<svg fill="none" height="130" viewBox="0 0 350 130" width="350" xmlns="http://www.w3.org/2000/svg" xmlns:xlink="http://www.w3.org/1999/xlink"><clipPath id="a"><path d="m0 0h350v130h-350z"/></clipPath><g clip-path="url(#a)"><path d="m246.33 76.05c-3.721-7.0572-9.224-13.0178-15.963-17.2896-6.738-4.2717-14.477-6.7058-22.447-7.0604-9-.29-18.76 1.94-26.41-2.76-7.5-4.61-10.09-15-7.39-23.36s9.68-14.82 17.47-18.91c5.875-2.88782 12.049-5.12445 18.41-6.67h-177.73c2.06 11.5-1 24 .28 35.93 2.14 20.29 17.25 37.73 35.76 46.32s39.86 9.27 60 5.93c9.27-1.54 18.66-3.91 27.95-2.49s18.64 7.93 19.74 17.31c1 8.67-5.14 16.48-6.81 25.05-.13.66-.22 1.33-.29 2h94.33c-.64-.94-1.26-1.9-1.82-2.9-8.74-15.58-6.96-35.24-15.08-51.1z" fill="#8dceff"/><path d="m176 103c-1.09-9.34-10.45-15.85-19.74-17.27s-18.68.94-27.95 2.49c-20.12 3.35-41.48 2.66-60-5.93s-33.62-26-35.76-46.32c-1.25-11.97 1.78-24.47-.28-35.97h-32.27v130h168.88c.07-.66.16-1.33.29-2 1.67-8.57 7.83-16.37 6.83-25z" fill="#c9e3fc"/><path d="m350 0h-140c-6.362 1.54876-12.535 3.78875-18.41 6.68-7.8 4.09-14.78 10.53-17.47 18.91s-.1 18.74 7.39 23.36c7.65 4.71 17.43 2.47 26.41 2.76 7.97.3546 15.709 2.7887 22.447 7.0604 6.739 4.2718 12.242 10.2324 15.963 17.2896 8.12 15.86 6.34 35.51 15.06 51 .56 1 1.17 2 1.82 2.9h86.79z" fill="#58afff"/><path d="m296.56 28.75h33.29c.663 0 1.299.2634 1.768.7322.469.4689.732 1.1048.732 1.7678v82.8c0 .663-.263 1.299-.732 1.768s-1.105.732-1.768.732h-33.29z" fill="#624b82"/><path d="m297.25 28.75h-66.88c-1.198 0-2.17.9715-2.17 2.17v83.46c0 1.198.972 2.17 2.17 2.17h66.88c1.198 0 2.17-.972 2.17-2.17v-83.46c0-1.1985-.972-2.17-2.17-2.17z" fill="#40295c"/><path d="m287.61 32.99h-54.76v77.48h54.76z" fill="#624b82"/><path d="m287.61 35.9h-30.18v62.76h30.18z" fill="#40295c"/><path d="m327.51 43.1899h-23.08v5.73h23.08z" fill="#baa8c6"/><path d="m325.57 37.82c1.099 0 1.99-1.0835 1.99-2.42s-.891-2.42-1.99-2.42-1.99 1.0835-1.99 2.42.891 2.42 1.99 2.42z" fill="#baa8c6"/><path d="m309.08 34.96h-4.65v1.88h4.65z" fill="#40295c"/><path d="m314.81 34.96h-4.65v1.88h4.65z" fill="#40295c"/><path d="m318.48 36.8599c.436 0 .79-.4298.79-.96 0-.5301-.354-.96-.79-.96s-.79.4299-.79.96c0 .5302.354.96.79.96z" fill="#40295c"/><path d="m316.33 69.4301h-.71c-.447 0-.81.3626-.81.81v35.1199c0 .447.363.81.81.81h.71c.447 0 .81-.363.81-.81v-35.1199c0-.4474-.363-.81-.81-.81z" fill="#40295c"/><path d="m327.51 50.35h-23.08v5.73h23.08z" fill="#baa8c6"/><path d="m326.62 43.78h-3.04v1.31h3.04z" fill="#fff"/><path d="m251.54 98.66h-16.54v11.81h16.54z" fill="#baa8c6"/><path d="m266.5 98.66h-14.95v11.81h14.95z" fill="#ede9f0"/><path d="m287.61 35.9h-30.18v55.24h30.18z" fill="#003090"/><path d="m287.61 98.66h-18.01v11.81h18.01z" fill="#40295c"/><path d="m286.18 99.97h-14.79v2.74h14.79z" fill="#baa8c6"/><path d="m286.18 105.7h-14.79v2.74h14.79z" fill="#baa8c6"/><path d="m285.47 48.08h-13.37c-.392 0-.71.3178-.71.71v13.37c0 .3921.318.71.71.71h13.37c.392 0 .71-.3179.71-.71v-13.37c0-.3922-.318-.71-.71-.71z" fill="#0078fa"/><path d="m267.69 48.08h-5.55v22.81h5.55z" fill="#40295c"/><path d="m283.42 50.12h-9.28c-.392 0-.71.3179-.71.71v9.28c0 .3921.318.71.71.71h9.28c.392 0 .71-.3179.71-.71v-9.28c0-.3921-.318-.71-.71-.71z" fill="#baa8c6"/><path d="m267.33 48.91h-4.83v1.19h4.83z" fill="#624b82"/><path d="m267.33 51.78h-4.83v1.19h4.83z" fill="#624b82"/><path d="m267.33 53.21h-4.83v1.19h4.83z" fill="#624b82"/><path d="m267.33 56.0699h-4.83v1.19h4.83z" fill="#624b82"/><path d="m267.33 57.5h-4.83v1.19h4.83z" fill="#624b82"/><path d="m267.33 58.9301h-4.83v1.19h4.83z" fill="#624b82"/><path d="m267.33 60.37h-4.83v1.19h4.83z" fill="#624b82"/><path d="m267.33 63.23h-4.83v1.19h4.83z" fill="#624b82"/><path d="m267.33 66.09h-4.83v1.19h4.83z" fill="#624b82"/><path d="m267.33 67.52h-4.83v1.19h4.83z" fill="#624b82"/><path d="m276.34 78.08h-39.33v6.15h39.33z" fill="#40295c"/><path d="m287.61 78.08h-11.27v6.15h11.27z" fill="#624b82"/><path d="m271.31 69.52c.944 0 1.71-.7656 1.71-1.71s-.766-1.71-1.71-1.71-1.71.7656-1.71 1.71.766 1.71 1.71 1.71z" fill="#baa8c6"/><path d="m264.91 40.15h-4.68v1.97h4.68z" fill="#0078fa"/><path d="m279.23 40.15h-4.68v1.97h4.68z" fill="#0078fa"/><path d="m273.5 40.15h-4.68v1.97h4.68z" fill="#0078fa"/><path d="m259.02 45.1h-3.44v5.25h3.44z" fill="#baa8c6"/><path d="m260.23 51.78h-4.65v4.65h4.65z" fill="#baa8c6"/><path d="m258.47 57.26h-2.89v3.7h2.89z" fill="#baa8c6"/><g fill="#58afff"><path d="m236.56 44.7101c.812 0 1.47-.7343 1.47-1.64 0-.9058-.658-1.64-1.47-1.64s-1.47.7342-1.47 1.64c0 .9057.658 1.64 1.47 1.64z"/><path d="m240.41 44.7101c.812 0 1.47-.7343 1.47-1.64 0-.9058-.658-1.64-1.47-1.64s-1.47.7342-1.47 1.64c0 .9057.658 1.64 1.47 1.64z"/><path d="m244.25 44.7101c.812 0 1.47-.7343 1.47-1.64 0-.9058-.658-1.64-1.47-1.64s-1.47.7342-1.47 1.64c0 .9057.658 1.64 1.47 1.64z"/><path d="m248.09 44.7101c.812 0 1.47-.7343 1.47-1.64 0-.9058-.658-1.64-1.47-1.64s-1.47.7342-1.47 1.64c0 .9057.658 1.64 1.47 1.64z"/><path d="m251.94 44.7101c.812 0 1.47-.7343 1.47-1.64 0-.9058-.658-1.64-1.47-1.64s-1.47.7342-1.47 1.64c0 .9057.658 1.64 1.47 1.64z"/><path d="m238.48 49.0001c.812 0 1.47-.7343 1.47-1.64 0-.9058-.658-1.64-1.47-1.64s-1.47.7342-1.47 1.64c0 .9057.658 1.64 1.47 1.64z"/><path d="m242.32 49.0001c.812 0 1.47-.7343 1.47-1.64 0-.9058-.658-1.64-1.47-1.64s-1.47.7342-1.47 1.64c0 .9057.658 1.64 1.47 1.64z"/><path d="m246.17 49.0001c.812 0 1.47-.7343 1.47-1.64 0-.9058-.658-1.64-1.47-1.64s-1.47.7342-1.47 1.64c0 .9057.658 1.64 1.47 1.64z"/><path d="m250.01 49.0001c.812 0 1.47-.7343 1.47-1.64 0-.9058-.658-1.64-1.47-1.64s-1.47.7342-1.47 1.64c0 .9057.658 1.64 1.47 1.64z"/><path d="m236.56 53.3c.812 0 1.47-.7342 1.47-1.64 0-.9057-.658-1.64-1.47-1.64s-1.47.7343-1.47 1.64c0 .9058.658 1.64 1.47 1.64z"/><path d="m240.41 53.3c.812 0 1.47-.7342 1.47-1.64 0-.9057-.658-1.64-1.47-1.64s-1.47.7343-1.47 1.64c0 .9058.658 1.64 1.47 1.64z"/><path d="m244.25 53.3c.812 0 1.47-.7342 1.47-1.64 0-.9057-.658-1.64-1.47-1.64s-1.47.7343-1.47 1.64c0 .9058.658 1.64 1.47 1.64z"/><path d="m248.09 53.3c.812 0 1.47-.7342 1.47-1.64 0-.9057-.658-1.64-1.47-1.64s-1.47.7343-1.47 1.64c0 .9058.658 1.64 1.47 1.64z"/><path d="m251.94 53.3c.812 0 1.47-.7342 1.47-1.64 0-.9057-.658-1.64-1.47-1.64s-1.47.7343-1.47 1.64c0 .9058.658 1.64 1.47 1.64z"/><path d="m238.48 57.5901c.812 0 1.47-.7343 1.47-1.64 0-.9058-.658-1.64-1.47-1.64s-1.47.7342-1.47 1.64c0 .9057.658 1.64 1.47 1.64z"/><path d="m242.32 57.5901c.812 0 1.47-.7343 1.47-1.64 0-.9058-.658-1.64-1.47-1.64s-1.47.7342-1.47 1.64c0 .9057.658 1.64 1.47 1.64z"/><path d="m246.17 57.5901c.812 0 1.47-.7343 1.47-1.64 0-.9058-.658-1.64-1.47-1.64s-1.47.7342-1.47 1.64c0 .9057.658 1.64 1.47 1.64z"/><path d="m250.01 57.5901c.812 0 1.47-.7343 1.47-1.64 0-.9058-.658-1.64-1.47-1.64s-1.47.7342-1.47 1.64c0 .9057.658 1.64 1.47 1.64z"/><path d="m236.56 61.8901c.812 0 1.47-.7342 1.47-1.64 0-.9057-.658-1.64-1.47-1.64s-1.47.7343-1.47 1.64c0 .9058.658 1.64 1.47 1.64z"/><path d="m240.41 61.8901c.812 0 1.47-.7342 1.47-1.64 0-.9057-.658-1.64-1.47-1.64s-1.47.7343-1.47 1.64c0 .9058.658 1.64 1.47 1.64z"/><path d="m244.25 61.8901c.812 0 1.47-.7342 1.47-1.64 0-.9057-.658-1.64-1.47-1.64s-1.47.7343-1.47 1.64c0 .9058.658 1.64 1.47 1.64z"/><path d="m248.09 61.8901c.812 0 1.47-.7342 1.47-1.64 0-.9057-.658-1.64-1.47-1.64s-1.47.7343-1.47 1.64c0 .9058.658 1.64 1.47 1.64z"/><path d="m251.94 61.8901c.812 0 1.47-.7342 1.47-1.64 0-.9057-.658-1.64-1.47-1.64s-1.47.7343-1.47 1.64c0 .9058.658 1.64 1.47 1.64z"/><path d="m238.48 66.1801c.812 0 1.47-.7342 1.47-1.64 0-.9057-.658-1.64-1.47-1.64s-1.47.7343-1.47 1.64c0 .9058.658 1.64 1.47 1.64z"/><path d="m242.32 66.1801c.812 0 1.47-.7342 1.47-1.64 0-.9057-.658-1.64-1.47-1.64s-1.47.7343-1.47 1.64c0 .9058.658 1.64 1.47 1.64z"/><path d="m246.17 66.1801c.812 0 1.47-.7342 1.47-1.64 0-.9057-.658-1.64-1.47-1.64s-1.47.7343-1.47 1.64c0 .9058.658 1.64 1.47 1.64z"/><path d="m250.01 66.1801c.812 0 1.47-.7342 1.47-1.64 0-.9057-.658-1.64-1.47-1.64s-1.47.7343-1.47 1.64c0 .9058.658 1.64 1.47 1.64z"/><path d="m236.56 70.4801c.812 0 1.47-.7343 1.47-1.64 0-.9058-.658-1.64-1.47-1.64s-1.47.7342-1.47 1.64c0 .9057.658 1.64 1.47 1.64z"/><path d="m240.41 70.4801c.812 0 1.47-.7343 1.47-1.64 0-.9058-.658-1.64-1.47-1.64s-1.47.7342-1.47 1.64c0 .9057.658 1.64 1.47 1.64z"/><path d="m244.25 70.4801c.812 0 1.47-.7343 1.47-1.64 0-.9058-.658-1.64-1.47-1.64s-1.47.7342-1.47 1.64c0 .9057.658 1.64 1.47 1.64z"/><path d="m248.09 70.4801c.812 0 1.47-.7343 1.47-1.64 0-.9058-.658-1.64-1.47-1.64s-1.47.7342-1.47 1.64c0 .9057.658 1.64 1.47 1.64z"/><path d="m251.94 70.4801c.812 0 1.47-.7343 1.47-1.64 0-.9058-.658-1.64-1.47-1.64s-1.47.7342-1.47 1.64c0 .9057.658 1.64 1.47 1.64z"/><path d="m238.48 74.7701c.812 0 1.47-.7342 1.47-1.64 0-.9057-.658-1.64-1.47-1.64s-1.47.7343-1.47 1.64c0 .9058.658 1.64 1.47 1.64z"/><path d="m242.32 74.7701c.812 0 1.47-.7342 1.47-1.64 0-.9057-.658-1.64-1.47-1.64s-1.47.7343-1.47 1.64c0 .9058.658 1.64 1.47 1.64z"/><path d="m246.17 74.7701c.812 0 1.47-.7342 1.47-1.64 0-.9057-.658-1.64-1.47-1.64s-1.47.7343-1.47 1.64c0 .9058.658 1.64 1.47 1.64z"/><path d="m250.01 74.7701c.812 0 1.47-.7342 1.47-1.64 0-.9057-.658-1.64-1.47-1.64s-1.47.7343-1.47 1.64c0 .9058.658 1.64 1.47 1.64z"/></g><path d="m287.61 67.1899h-11.27v1.64h11.27z" fill="#0078fa"/><path d="m287.61 71.73h-10.72v1.4h10.72z" fill="#0078fa"/><path d="m287.61 32.99h-54.76v77.48h54.76z" fill="#3d2c56" opacity=".91"/><path d="m274.16 32.99-41.31 57.65v19.83h28.72l26.04-35.61v-41.87z" fill="#fff" opacity=".11"/><path d="m255.58 32.99-22.73 30.84v-5.23l19.67-25.61z" fill="#fff" opacity=".05"/><path d="m166.61 110.29h21.45c-.104.338-.125.696-.062 1.044.062.348.207.675.422.956.222.295.511.534.843.698.332.163.697.246 1.067.242h-21.46c-.37.004-.735-.079-1.067-.242-.332-.164-.621-.403-.843-.698-.213-.281-.356-.61-.417-.958-.061-.347-.038-.705.067-1.042z" fill="#40295c"/><path d="m209 77.55h-21.45v3.32h21.45z" fill="#40295c"/><path d="m221.55 113.27h-21.45v3.32h21.45z" fill="#40295c"/><path d="m187.55 77.55v3.32h-11.55l-9.39 29.43c-.104.338-.125.696-.062 1.044.062.348.207.675.422.956.222.295.511.534.843.698.332.163.697.246 1.067.242h31.22v3.32h-31.23c-.899.009-1.788-.193-2.595-.589-.808-.396-1.511-.975-2.055-1.691-.542-.699-.905-1.52-1.056-2.392-.152-.871-.088-1.767.186-2.608l10.13-31.76z" fill="#40295c"/><path d="m187.22 113.27h-5.43v3.32h5.43z" fill="#624b82"/><path d="m221.56 113.27h-34.33v3.32h34.33z" fill="#baa8c6"/><path d="m166.61 110.29h21.45l2.35-7.36h-21.45z" fill="#624b82"/><path d="m176 80.86-7.04 22.07h21.45l7.04-22.07z" fill="#40295c"/><path d="m223.68 50.6499-3.82 1.49c.289-.1379.525-.3678.669-.6536.145-.2859.191-.6116.131-.9264l3.82-1.49c.06.3148.014.6405-.131.9264-.144.2858-.38.5157-.669.6536z" fill="#fff"/><path d="m223.68 50.65-3.82 1.49c-.137.0535-.283.0806-.43.08l3.82-1.49c.147.0006.293-.0265.43-.08z" fill="#e6f0fc"/><path d="m225.65 67.6799-3.82 1.49c-.134.0525-.276.0796-.42.08l3.82-1.49c.144-.0004.286-.0275.42-.08z" fill="#ffd7e2"/><path d="m234.4 92.2199-3.82 1.49-7.16-61.66 3.82-1.49z" fill="#624b82"/><path d="m236.08 98.8999-3.82 1.4901c-.287.113-.592.17-.9.17l3.82-1.4901c.308.0004.613-.0573.9-.17z" fill="#624b82"/><path d="m201.31 39.8799c-.147-.0006-.293.0265-.43.08l3.82-1.49c.137-.0535.283-.0806.43-.08z" fill="#fff"/><path d="m200.88 40 3.82-1.49c-.289.138-.525.3678-.669.6537-.145.2858-.191.6116-.131.9263l-3.82 1.49c-.06-.3147-.014-.6405.131-.9263.144-.2859.38-.5157.669-.6537z" fill="#e6f0fc"/><path d="m223.25 50.73-3.82 1.49h-16.69l3.82-1.49z" fill="#e6f0fc"/><path d="m204.94 49.0699-3.81 1.49-1.05-9.02 3.82-1.49z" fill="#e6f0fc"/><path d="m206.56 50.7299-3.82 1.49c-.421-.0416-.814-.2312-1.109-.5351s-.472-.7024-.501-1.1249l3.82-1.49c.029.4225.206.821.501 1.1249s.688.4935 1.109.5351z" fill="#e6f0fc"/><path d="m203.28 56.9099c-.147-.0006-.293.0266-.43.08l3.82-1.49c.137-.0534.283-.0806.43-.08-1.23.6018-2.508 1.1002-3.82 1.49z" fill="#fff"/><path d="m202.86 57 3.82-1.49c-.289.138-.525.3678-.669.6537-.145.2858-.191.6116-.131.9263l-3.82 1.49c-.06-.3147-.014-.6405.131-.9263.145-.2859.38-.5157.669-.6537z" fill="#ffd7e2"/><path d="m225.22 67.76-3.82 1.49h-16.69l3.82-1.49z" fill="#ffd7e2"/><path d="m199 40.67-3.82 1.49c-.041-.5746-.281-1.117-.679-1.5333-.398-.4164-.929-.6805-1.501-.7467l3.82-1.49c.572.0662 1.103.3303 1.501.7467.398.4163.639.9587.679 1.5333z" fill="#fff"/><path d="m206.92 66.1-3.82 1.49-1.05-9.02 3.82-1.49z" fill="#ffd7e2"/><path d="m208.53 67.76-3.82 1.49c-.421-.0435-.812-.2337-1.107-.5373-.294-.3035-.472-.701-.503-1.1227l3.82-1.49c.031.4217.209.8192.503 1.1227.295.3035.686.4938 1.107.5373z" fill="#ffd7e2"/><path d="m198.88 85.5999c.402-.1876.73-.5037.933-.8983.203-.3947.269-.8455.187-1.2817l3.82-1.49c.08.4335.014.8812-.186 1.2737-.201.3924-.526.7075-.924.8963z" fill="#fff"/><path d="m202.7 84.11-3.82 1.49c-.188.0733-.388.1106-.59.11l3.82-1.49c.202.0006.402-.0367.59-.11z" fill="#b6d4ff"/><path d="m149.93 39.9999 3.82-1.49c.188-.0733.388-.1106.59-.11l-3.82 1.49c-.202-.0006-.402.0367-.59.11z" fill="#fff"/><path d="m149.93 40 3.82-1.49c-.398.1888-.723.504-.924.8964-.2.3924-.266.8401-.186 1.2736l-3.82 1.49c-.08-.4335-.014-.8812.186-1.2736.201-.3924.526-.7076.924-.8964z" fill="#b6d4ff"/><path d="m227.24 30.5599-3.82 1.49-81.07.02 3.83-1.49z" fill="#624b82"/><path d="m141.05 28.73 3.82-1.49c-.615.2819-1.116.7632-1.423 1.3659-.307.6026-.401 1.2912-.267 1.9541l-3.82 1.49c-.134-.6629-.04-1.3515.267-1.9541.307-.6027.808-1.084 1.423-1.3659z" fill="#40295c"/><path d="m157.42 81.9299-3.82 1.49-4.77-41.26 3.82-1.49z" fill="#b6d4ff"/><path d="m159.64 84.2099-3.82 1.49c-.58-.0555-1.122-.3151-1.528-.7327-.407-.4175-.652-.9659-.692-1.5473l3.82-1.49c.04.5815.285 1.1298.692 1.5473.406.4176.948.6772 1.528.7327z" fill="#b6d4ff"/><path d="m153.33 92.24-3.82 1.49-7.16-61.66 3.83-1.49z" fill="#fff"/><path d="m227.24 30.5599-81.06.02 7.15 61.66 81.07-.02z" fill="#0078fa"/><path d="m234.4 92.22-3.82 1.49-81.07.02 3.82-1.49z" fill="#fff"/><path d="m237.78 95.58-7.53-65c-.062-.89-.438-1.7291-1.06-2.3681-.623-.639-1.452-1.0365-2.34-1.1219h-81.08c-1.65 0-2.81 1.56-2.59 3.49l7.53 65c.062.8899.438 1.729 1.06 2.368.623.639 1.452 1.0366 2.34 1.122h81.08c1.65 0 2.81-1.56 2.59-3.49zm-84.45-3.34-7.15-61.66h81.07l7.16 61.66h-81.07" fill="#624b82"/><path d="m235.19 99.0599-3.82 1.5001h-81.09l3.82-1.5001z" fill="#40295c"/><path d="m150.71 95.5799-3.82 1.49-7.53-65.02 3.82-1.49z" fill="#40295c"/><path d="m154.1 99.07-3.82 1.49c-.888-.085-1.717-.483-2.34-1.122-.622-.639-.998-1.4781-1.06-2.368l3.82-1.49c.062.8899.438 1.729 1.06 2.368.623.639 1.452 1.0366 2.34 1.122z" fill="#40295c"/><path d="m241.2 111.78h-97.68v4.77h97.68z" fill="#624b82"/><path d="m183.12 116.59h-39.6v-6.3l39.6 1.49z" fill="#40295c"/><path d="m143.52 110.29h58.68l39.6 1.49h-58.68z" fill="#baa8c6"/><path d="m258.02 110.61c1.226 0 2.22-.994 2.22-2.22s-.994-2.22-2.22-2.22-2.22.994-2.22 2.22.994 2.22 2.22 2.22z" fill="#baa8c6"/><path d="m274.62 106.42-17.13.64c-1.597.059-3.109.735-4.219 1.886-1.109 1.15-1.73 2.686-1.731 4.284 0 .88.35 1.725.972 2.348.623.622 1.467.972 2.348.972h22.85c.881 0 1.725-.35 2.348-.972.622-.623.972-1.468.972-2.348v-.64c-.001-.831-.169-1.652-.494-2.416-.326-.764-.802-1.455-1.4-2.031-.599-.576-1.307-1.025-2.083-1.321s-1.603-.433-2.433-.402z" fill="#624b82"/><path d="m282.69 114.83h-31.69v.48h31.69z" fill="#40295c"/><path d="m258.6 113.23c0 .544.088 1.084.26 1.6h.53c-.172-.516-.26-1.056-.26-1.6-.058-1.202.165-2.4.651-3.501.486-1.1 1.222-2.073 2.149-2.839h-.56c-.921.771-1.65 1.744-2.131 2.844-.48 1.1-.699 2.297-.639 3.496z" fill="#40295c"/><path d="m161.21 39.36h-8.04l.14 1.03h8.04z" fill="#83beff"/><path d="m158.6 41.6799h-5.12l.14 1.03h5.12z" fill="#83beff"/><path d="m182.08 41.6799h-20.61l.14 1.03h20.61z" fill="#83beff"/><path d="m194.87 41.6799h-10.79l.14 1.03h10.79z" fill="#83beff"/><path d="m168.81 43.98h-13.02l.14 1.04h13.02z" fill="#83beff"/><path d="m192.19 43.98h-19.39l.14 1.04h19.39z" fill="#83beff"/><path d="m172.41 46.2999h-18.3l.14 1.03h18.3z" fill="#83beff"/><path d="m187.11 46.2999h-13.02l.14 1.03h13.02z" fill="#83beff"/><path d="m169.44 48.61h-13.02l.14 1.03h13.01z" fill="#83beff"/><path d="m173.74 50.9199h-19l.14 1.03h19z" fill="#83beff"/><path d="m168.06 53.23h-13.01l.14 1.04h13.01z" fill="#83beff"/><path d="m181.07 55.5499h-21.71l.14 1.03h21.71z" fill="#83beff"/><path d="m190.36 55.5499h-7.02l.14 1.03h7.02z" fill="#83beff"/><path d="m200.35 55.5499h-7.02l.14 1.03h7.02z" fill="#83beff"/><path d="m170.53 57.86h-8.86l.14 1.03h8.86z" fill="#83beff"/><path d="m173.8 60.1699h-11.81l.14 1.03h11.81z" fill="#83beff"/><path d="m190.99 60.1699h-13.02l.14 1.03h13.02z" fill="#83beff"/><path d="m199.38 60.1699h-5.42l.14 1.03h5.42z" fill="#83beff"/><path d="m164.3 62.48h-7.99l.14 1.04h7.99z" fill="#83beff"/><path d="m169.63 64.79h-13.01l.14 1.03h13.01z" fill="#83beff"/><path d="m186.53 67.11h-23.6l.14 1.03h23.61z" fill="#83beff"/><path d="m203.52 67.11h-14.61l.14 1.03h14.61z" fill="#83beff"/><path d="m171.26 69.4199h-8.02l.14 1.03h8.02z" fill="#83beff"/><path d="m181.25 69.4199h-8.01l.14 1.03h8.02z" fill="#83beff"/><path d="m191.24 69.4199h-8.01l.14 1.03h8.01z" fill="#83beff"/><path d="m170.57 71.73h-13.01l.14 1.04h13.02z" fill="#83beff"/><path d="m174.88 74.04h-13l.13 1.03h13.01z" fill="#83beff"/><path d="m190.36 74.04h-13.01l.14 1.03h13.01z" fill="#83beff"/><path d="m185 78.6699h-7.3l.14 1.03h7.3z" fill="#83beff"/><path d="m181.49 76.36h-19.3l.14 1.03h19.3z" fill="#83beff"/><path d="m172.15 78.6699h-9.65l.14 1.03h9.65z" fill="#83beff"/></g></svg>