<svg fill="none" height="130" viewBox="0 0 350 130" width="350" xmlns="http://www.w3.org/2000/svg"><path d="m39.35 103.59c2.58-13.71 16.42-22.59 30.07-25.59s27.84-1.49 41.67-3.28 28.49-8 34.3-20.67c6-13 .37-29.07-9.89-39.07-6.74-6.53-15.1-10.98-23.71-14.98h-111.79v130h49c-7.08-7.08-11.47-16.74-9.65-26.41z" fill="#ffb842"/><path d="m180.81 110c6.19-15.74 19.19-27.74 32.92-37.67s28.52-18.45 40.69-30.19c13.22-12.75 22.8-28.81 35.44-42.14h-178.07c8.6 4 17 8.45 23.71 15 10.25 10 15.85 26.05 9.89 39.07-5.81 12.68-20.47 18.88-34.3 20.67s-28 .37-41.67 3.28-27.49 11.86-30.07 25.57c-1.82 9.67 2.57 19.33 9.65 26.41h128.7c-.42-6.813.641-13.636 3.11-20z" fill="#f8d095"/><path d="m350 0h-60.14c-12.64 13.33-22.22 29.39-35.44 42.15-12.17 11.74-27 20.26-40.69 30.19s-26.73 21.92-32.92 37.66c-2.476 6.362-3.544 13.186-3.13 20h172.32z" fill="#fff0d9"/><path d="m292.27 89.81h-25.07v2.68h25.07z" fill="#558a89"/><path d="m281.82 91.15h-3.96v30.54h3.96z" fill="#558a89"/><g fill="#8b3131"><path d="m282.53 90.59v-9.3h.76v8.41l3.89-.62.12.74z"/><path d="m286.37 92.49-3.46-1.91c-.085-.0476-.151-.1241-.185-.2157-.033-.0916-.033-.1923 0-.2839.034-.0916.099-.1682.185-.2159.085-.0478.184-.0635.28-.0445l4.13.84-.15.74-1.92-.4 1.49.82z"/><path d="m304.54 57.75 8.96 1.44-9.12 2.28z"/></g><path d="m253.39 84.05 5.28 7.6 9.8-11.93s9.8 7.16 19.53 3 12.37-11.23 12.87-17.72c0 0 5-2.51 3.77-6.91s-6.53-5.09-13.75 1.07-23.89 16.04-23.89 16.04z" fill="#ff6b6b"/><path d="m291.64 58.56s4.71 13-11.56 18.28-24.3-5.65-24.3-5.65z" fill="#f9b9b9"/><path d="m299.8 59.59c.608 0 1.1-.4925 1.1-1.1s-.492-1.1-1.1-1.1-1.1.4925-1.1 1.1.492 1.1 1.1 1.1z" fill="#8b3131"/><path d="m308.74 32c-5.3-6.43-13-10.11-23-11v-3c1.279-.9958 2.215-2.3662 2.677-3.9198.462-1.5535.428-3.2126-.099-4.74561-.526-1.53297-1.518-2.86323-2.838-3.80499-1.319-.94176-2.899-1.448-4.52-1.448s-3.201.50624-4.52 1.448c-1.32.94176-2.312 2.27202-2.838 3.80499-.527 1.53301-.561 3.19211-.099 4.74561.462 1.5536 1.398 2.924 2.677 3.9198v3c-10 .87-17.73 4.55-23 11-6.48 7.86-9.55 19.89-9.38 36.77.14 13.35 2.21 29.66 6.72 52.9l3.34-.65c-1.26-6.48-2.43-12.94-3.44-19.27h3.7c.773 6.32 1.69 12.937 2.75 19.85l3.36-.51c-1-6.51-1.9-13-2.69-19.34h8.68c.4 6.26.873 12.837 1.42 19.73l3.39-.27c-.52-6.56-1-13.09-1.4-19.46h9.67v19.6h3.4v-19.6h9.67c-.41 6.38-.88 12.9-1.4 19.46l3.39.27c.54-6.893 1.013-13.47 1.42-19.73h8.68c-.78 6.35-1.7 12.84-2.69 19.34l3.36.51c1.047-6.907 1.963-13.523 2.75-19.85h3.7c-1 6.34-2.18 12.8-3.44 19.27l3.34.65c4.51-23.24 6.58-39.55 6.72-52.9.09-16.86-2.98-28.89-9.46-36.77zm-2.62 2.16c3.29 4 5.49 9.12 6.85 15.12h-4c-1.37-8.24-3.9-14.89-7.92-19.74 1.894 1.3082 3.597 2.8731 5.06 4.65zm-7.92-2.76c3.68 4.28 6 10.43 7.31 17.91h-9.16c-1-11-3-19-6.49-23.66 3.24 1.1451 6.118 3.1293 8.34 5.75zm-11.86-4.68c3.57 3.86 5.58 11.87 6.53 22.59h-10.24v-24.87c1.443.3648 2.74 1.16 3.72 2.28zm-5.41-19.15999c1.061-.00661 2.089.37247 2.892 1.06677.803.69429 1.327 1.65652 1.473 2.70782.147 1.0513-.093 2.1201-.675 3.0077-.583.8876-1.467 1.5335-2.49 1.8177h-2.4c-1.023-.2842-1.907-.9301-2.49-1.8177-.582-.8876-.822-1.9564-.675-3.0077.146-1.0513.67-2.01353 1.473-2.70782.803-.6943 1.831-1.07338 2.892-1.06677zm-1.7 16.87999v24.87h-10.23c1-10.71 3-18.73 6.53-22.59.975-1.1166 2.265-1.9115 3.7-2.28zm-7.23 1.21c-3.49 4.7-5.53 12.69-6.49 23.66h-9.16c1.31-7.48 3.62-13.62 7.31-17.91 2.222-2.6207 5.1-4.6049 8.34-5.75zm-16.25 8.54c1.447-1.7621 3.129-3.3167 5-4.62-4 4.85-6.54 11.5-7.92 19.74h-4c1.42-6 3.62-11.14 6.91-15.12zm-5.91 64.19c-2.53-16.88-3.69-32.71-1.66-45.32h4.14c-1.45 12.2-.72 27.48 1.34 45.32zm7.23 0c-2-16.9-2.85-32.71-1.28-45.32h9.44c-.75 12.06-.37 27.28.71 45.32zm12.28 0c-1-16.94-1.46-32.71-.66-45.32h10.54v45.31zm23.15 0h-9.88v-45.33h10.54c.84 12.61.36 28.38-.66 45.32zm12.28 0h-8.87c1.09-18 1.46-33.26.71-45.32h9.44c1.58 12.6.69 28.41-1.27 45.31zm7.23 0h-3.81c2.06-17.84 2.79-33.12 1.34-45.32h4.14c2.03 12.6.87 28.43-1.68 45.31z" fill="#1bc5b8"/><path d="m314 118.32h-66.11c-.228.001-.454.052-.661.149s-.39.238-.536.413c-.147.176-.254.381-.313.601-.059.221-.069.452-.03.677l.59 3.35c.065.361.255.688.537.924.281.235.636.365 1.003.366h2.24v2.78c0 .318.063.632.184.926.122.294.3.56.525.785s.491.403.785.525c.294.121.608.184.926.184h55.56c.318 0 .632-.063.926-.184.294-.122.56-.3.785-.525s.403-.491.525-.785c.121-.294.184-.608.184-.926v-2.78h2.24c.367-.001.722-.131 1.003-.366.282-.236.472-.563.537-.924l.59-3.35c.039-.221.03-.448-.027-.665-.056-.217-.158-.42-.299-.594-.142-.174-.318-.316-.519-.417-.201-.1-.421-.156-.645-.164z" fill="#558a89"/></svg>