<svg fill="none" height="130" viewBox="0 0 350 130" width="350" xmlns="http://www.w3.org/2000/svg" xmlns:xlink="http://www.w3.org/1999/xlink"><clipPath id="a"><path d="m0 0h350v130h-350z"/></clipPath><g clip-path="url(#a)"><path d="m246.33 76.05c-3.721-7.0572-9.224-13.0178-15.963-17.2896-6.738-4.2717-14.477-6.7058-22.447-7.0604-9-.29-18.76 1.94-26.41-2.76-7.5-4.61-10.09-15-7.39-23.36s9.68-14.82 17.47-18.91c5.875-2.88782 12.049-5.12445 18.41-6.67h-177.73c2.06 11.5-1 24 .28 35.93 2.14 20.29 17.25 37.73 35.76 46.32s39.86 9.27 60 5.93c9.27-1.54 18.66-3.91 27.95-2.49s18.64 7.93 19.74 17.31c1 8.67-5.14 16.48-6.81 25.05-.13.66-.22 1.33-.29 2h94.33c-.64-.94-1.26-1.9-1.82-2.9-8.74-15.58-6.96-35.24-15.08-51.1z" fill="#8edada"/><path d="m176 103c-1.09-9.34-10.45-15.85-19.74-17.27s-18.68.94-27.95 2.49c-20.12 3.35-41.48 2.66-60-5.93s-33.62-26-35.76-46.32c-1.25-11.97 1.78-24.47-.28-35.97h-32.27v130h168.88c.07-.66.16-1.33.29-2 1.67-8.57 7.83-16.37 6.83-25z" fill="#dbf3f5"/><path d="m350 0h-140c-6.362 1.54876-12.535 3.78875-18.41 6.68-7.8 4.09-14.78 10.53-17.47 18.91s-.1 18.74 7.39 23.36c7.65 4.71 17.43 2.47 26.41 2.76 7.97.3546 15.709 2.7887 22.447 7.0604 6.739 4.2718 12.242 10.2324 15.963 17.2896 8.12 15.86 6.34 35.51 15.06 51 .56 1 1.17 2 1.82 2.9h86.79z" fill="#5ecccd"/><path d="m190.75 114.66h148.7c.464 0 .909.184 1.237.513.329.328.513.773.513 1.237v1.64c0 1.392-.553 2.728-1.538 3.712-.984.985-2.32 1.538-3.712 1.538h-141.7c-1.392 0-2.728-.553-3.712-1.538-.985-.984-1.538-2.32-1.538-3.712v-1.64c0-.464.184-.909.513-1.237.328-.329.773-.513 1.237-.513z" fill="#fff"/><path d="m276.62 118.78h-24.48c-.764 0-1.496-.303-2.036-.844-.541-.54-.844-1.272-.844-2.036h30.24c0 .764-.303 1.496-.844 2.036-.54.541-1.272.844-2.036.844z" fill="#83beff"/><path d="m325.52 35.43h-122.39c-1.9 0-3.44 1.5401-3.44 3.44v72.35c0 1.9 1.54 3.44 3.44 3.44h122.39c1.9 0 3.44-1.54 3.44-3.44v-72.35c0-1.8999-1.54-3.44-3.44-3.44z" fill="#003090"/><path d="m324.03 41.44h-120.32v69.63h120.32z" fill="#0078fa"/><g fill="#83beff"><path d="m233.87 45.97h-13.97v1.55h13.97z"/><path d="m228.8 49.44h-8.9v1.55h8.9z"/><path d="m269.59 49.44h-35.8v1.55h35.8z"/><path d="m291.81 49.44h-18.75v1.55h18.75z"/><path d="m245.98 52.91h-22.61v1.55h22.61z"/><path d="m286.6 52.91h-33.68v1.55h33.68z"/><path d="m251.69 56.38h-31.79v1.55h31.79z"/><path d="m277.23 56.38h-22.61v1.55h22.61z"/><path d="m245.98 59.86h-22.61v1.55h22.61z"/><path d="m252.92 63.33h-33.02v1.55h33.02z"/><path d="m242.51 66.8h-22.61v1.55h22.61z"/><path d="m264.56 70.27h-37.71v1.55h37.71z"/><path d="m280.7 70.27h-12.19v1.55h12.19z"/><path d="m298.06 70.27h-12.19v1.55h12.19z"/><path d="m245.7 73.74h-15.38v1.55h15.38z"/><path d="m250.84 77.21h-20.52v1.55h20.52z"/><path d="m280.7 77.21h-22.61v1.55h22.61z"/><path d="m295.28 77.21h-9.41v1.55h9.41z"/><path d="m233.79 80.69h-13.89v1.55h13.89z"/><path d="m242.51 84.16h-22.61v1.55h22.61z"/><path d="m271.33 87.63h-41.01v1.55h41.01z"/><path d="m300.83 87.63h-25.38v1.55h25.38z"/><path d="m244.25 91.1h-13.93v1.55h13.93z"/><path d="m261.61 91.1h-13.93v1.55h13.93z"/><path d="m278.97 91.1h-13.93v1.55h13.93z"/><path d="m242.51 94.57h-22.61v1.55h22.61z"/><path d="m249.46 98.05h-22.61v1.55h22.61z"/><path d="m276.34 98.05h-22.61v1.55h22.61z"/><path d="m265.92 104.99h-12.67v1.55h12.67z"/><path d="m260.38 101.52h-33.53v1.55h33.53z"/><path d="m243.62 104.99h-16.77v1.55h16.77z"/></g></g></svg>