<svg fill="none" height="130" viewBox="0 0 350 130" width="350" xmlns="http://www.w3.org/2000/svg" xmlns:xlink="http://www.w3.org/1999/xlink"><clipPath id="a"><path d="m0 0h350v130h-350z"/></clipPath><g clip-path="url(#a)"><path d="m0 0h350v130h-350z" fill="#baa8c6"/><path d="m65.2753 63.4696c-16.9693-8.4292-36.5097-25.2876-65.820237 16.8584l-16.455063 104.838 116.2139 28.976 195.4041 16.858 140.382-85.346c-7.713-45.482-25.505-142.97993-34.967-169.1105-11.827-32.6631-130.098 6.3219-148.096 27.92177-17.997 21.59983-79.704 42.67273-124.441 21.59973-44.7372-21.07296-45.2514 45.8338-62.2207 37.4046z" fill="#ede9f0"/><path d="m99.6351 120.043c10.9999-26.9998-21-29.4997 44.4999-52.4997 39.117-13.7359 68.5 5.4999 113-16.2685 45.5-12.7316 59.818 6.3169 100.5 13.7685l34.5 96.4997-159 35c-33.333-.333-108.1-2.9-140.4999-10.5-40.5-9.5-4-39 7-66z" fill="#faf9fb"/><path d="m254.343 48.2353c-.579 4.8394-1.15 9.6161 15.656 17.7647 28.762 17.7301 23.993 34.529 19.21 51.375-1.286 4.532-2.574 9.067-3.21 13.625-.4 2.4 2 4.5 2.5 6-.347 1.797-2.937 5.452-10.52 5.696-1.609.194-3.43.304-5.48.304h-27c-1.167-.167-2.8-1.3 0-4.5 2.187-2.5 3-3 5-3 2.5-3 0-4.5-1-5.5-5.5-3-8.823 7.065-10.5 10-1.771 3.099-3.933 3.062-6.835 3.013-.376-.006-.764-.013-1.165-.013h-6.5c-3 0-3-6 1-7 4.5.5 12.7-2.6 9.5-19-1.141-5.848-1.875-10.15-2.435-13.428-1.401-8.2127-1.706-9.9984-4.565-13.572-4-5-6-8.5-2.5-24 .065-.3258.132-.6516.199-.9762.962-4.6584 1.877-9.089-4.199-10.0238-6.182-.951-6.035-5.8277-6.004-8.496.002-.1786.004-.8472.004-1.004 0-1 1-1 2-1.5 1.5-2 6.419-6.9189 8-8.5.551-.551 1.406-.9882 2.344-1.4683 1.052-1.8439 2.956-6.2317 2.156-9.0317-1-3.5 7.5-.5 10.5 6 14.967 7.8514 14.402 12.5724 13.844 17.2353z" fill="#ffb942"/><path clip-rule="evenodd" d="m225.125 67.7088 33.182-8.8911c-1.558-1.3741-2.561-2.6416-3.192-3.8387l-28.974 7.7634c-.125.7443-.283 1.5098-.443 2.2814-.067.3247-.134.6505-.199.9763-.132.5865-.257 1.1558-.374 1.7087z" fill="#ff6b6b" fill-rule="evenodd"/><path d="m229.047 41.3459c-.178-.3081-.415-.5781-.697-.7947-.283-.2166-.605-.3754-.948-.4675-.344-.0921-.702-.1155-1.055-.0691s-.693.1619-1.001.3397c-.308.1779-.578.4147-.795.697-.216.2822-.375.6043-.467.9479-.092.3437-.116.7021-.069 1.0548.046.3527.162.6928.339 1.0008l.93-.5364c-.108-.1861-.177-.3915-.205-.6045-.029-.213-.014-.4294.041-.637.056-.2075.152-.402.283-.5724.13-.1705.293-.3135.48-.4209.186-.1074.391-.1772.604-.2052s.429-.0139.637.0417c.207.0557.402.1516.572.2824.171.1308.314.2938.421.4799z" fill="#030303"/><path d="m276 135.425c17.25 4.854 44.432 8.252 38.682-14.077-5.75-22.3293-8.364-28.6397 7.318-38.348" stroke="#ffb942" stroke-linecap="round" stroke-linejoin="round" stroke-width="7"/><path clip-rule="evenodd" d="m215.492 46.9945c.001-.13.002-.2562.004-.3781 0-.0379.001-.0754.001-.1125.002-.1786.004-.8472.004-1.004 0-.732.536-.9282 1.215-1.1769.231-.0844.478-.1748.726-.2942.214.2606.403.5804.559.9711.35.874-.482 1.9105-2.509 1.9946z" fill="#030303" fill-rule="evenodd"/></g></svg>