<svg fill="none" height="130" viewBox="0 0 350 130" width="350" xmlns="http://www.w3.org/2000/svg"><path d="m350 116.406c-4.133.206-8.275.189-12.406-.052-27.949-1.75-54.382-13.315-74.636-32.654-16.672-16.033-30.651-38.179-53.407-42.323-14.612-2.661-29.608 3.157-41.837 11.586s-22.456 19.4-33.887 28.885c-7.632 6.332-16.111 12.137-25.818 14.169s-20.885-.451-26.993-8.264c-6.355-8.13-5.817-19.811-2.495-29.58s9.028-18.588 12.379-28.346 3.975-21.421-2.3-29.612c-.057-.075-.121-.141-.179-.215h-88.421v79.369c5.33668.6559 10.4835 2.3933 15.1259 5.106s8.6827 6.3437 11.8741 10.671c7.327 10.307 9.254 23.659 16.352 34.125.169.25.361.483.536.729h69.528c14.516-13.041 27.415-29.826 45.7-36.151 20.056-6.937 42.277.309 60.9 10.494 15.202 8.317 29.484 18.678 45.238 25.657h84.746z" fill="#ffbacc"/><path d="m90.8999 29.827c-3.354 9.759-9.059 18.581-12.381 28.35s-3.86 21.451 2.495 29.58c6.107 7.813 17.286 10.3 26.9931 8.264 9.707-2.036 18.185-7.837 25.818-14.169 11.431-9.483 21.658-20.456 33.887-28.885s27.225-14.247 41.837-11.586c22.756 4.144 36.735 26.29 53.407 42.323 20.254 19.338 46.687 30.901 74.635 32.65 4.131.241 8.273.258 12.406.052v-116.406h-261.5761c.058.074.122.14.18.215 6.274 8.191 5.656 19.853 2.299 29.612z" fill="#ff9eb1"/><path d="m159.117 93.849c-18.286 6.325-31.184 23.11-45.7 36.151h151.837c-15.755-6.979-30.036-17.34-45.242-25.658-18.618-10.184-40.839-17.431-60.895-10.493z" fill="#ffbacc"/><path d="m27 95.146c-3.1914-4.3273-7.2317-7.9583-11.8741-10.671s-9.78922-4.4501-15.1259-5.106v50.631h43.888c-.176-.246-.367-.479-.536-.729-7.099-10.466-9.026-23.817-16.352-34.125z" fill="#fce4e4"/><g fill="#754d2f"><path d="m309.888 49.336c3.248 17.408 10.372 32.545 19.566 47.528 2.85 4.644 13.658 21.685 5.406 25.68-3.715 1.8-10.23.75-14.184.755-4.714.006-9.424-.129-14.133-.351-4.156-.2-4.146 6.264 0 6.46 5.718.27 11.438.4 17.163.329 4.638-.058 10.485.493 14.746-1.753 7.724-4.072 5.841-14.516 3.35-21.247-3.407-9.206-9.635-17.008-14.2-25.622-5.504-10.5198-9.375-21.8157-11.48-33.5-.762-4.082-6.989-2.353-6.229 1.717z"/><path d="m291.636 48.17h-1.256c-4.451-.0343-8.709-1.8266-11.844-4.9863-3.136-3.1598-4.895-7.4308-4.895-11.8822s1.759-8.7224 4.895-11.8822c3.135-3.1597 7.393-4.952 11.844-4.9863h1.257c2.226-.0171 4.434.4065 6.495 1.2466 2.062.84 3.937 2.0798 5.517 3.6479s2.834 3.4334 3.69 5.4885 1.297 4.2593 1.297 6.4855-.441 4.4304-1.297 6.4855-2.11 3.9204-3.69 5.4885-3.455 2.8079-5.517 3.6479c-2.061.8401-4.269 1.2637-6.495 1.2466zm-1.256-28.353c-3.046 0-5.967 1.21-8.121 3.3639-2.154 2.1538-3.364 5.0751-3.364 8.1211s1.21 5.9673 3.364 8.1211c2.154 2.1539 5.075 3.3639 8.121 3.3639h1.257c3.046 0 5.967-1.21 8.121-3.3639 2.154-2.1538 3.364-5.0751 3.364-8.1211s-1.21-5.9673-3.364-8.1211c-2.154-2.1539-5.075-3.3639-8.121-3.3639z"/><path d="m255.116 60.136c2.252-17.491 17.748-30.629 36.127-30.629s33.875 13.137 36.127 30.629l5.994 46.552c.087.691.139 1.385.155 2.081.021-1.029-.031-2.058-.155-3.08l-5.994-48.548c-1.088-8.815-5.362-16.928-12.016-22.811-6.654-5.8831-15.229-9.1303-24.111-9.13-8.882-.0003-17.457 3.2469-24.112 9.13-6.654 5.883-10.927 13.996-12.015 22.811l-5.994 48.548c-.124 1.022-.176 2.051-.155 3.08.016-.696.067-1.39.155-2.081z"/></g><path d="m248.968 108.77c-.287 11.5 9.37 21.23 21.649 21.23-5.669-.001-11.112-2.225-15.16-6.194-4.047-3.97-6.377-9.368-6.489-15.036z" fill="#915f3a"/><path d="m311.87 130c12.279 0 21.936-9.729 21.649-21.23-.112 5.668-2.442 11.066-6.489 15.036-4.048 3.969-9.491 6.193-15.16 6.194z" fill="#915f3a"/><path d="m333.519 108.77c-.016-.696-.068-1.39-.155-2.081l-5.994-46.552c-2.252-17.491-17.748-30.629-36.127-30.629s-33.875 13.137-36.127 30.629l-5.994 46.552c-.088.691-.139 1.385-.155 2.081.112 5.668 2.442 11.067 6.489 15.036 4.048 3.969 9.491 6.193 15.161 6.194h41.253c5.669-.001 11.112-2.225 15.159-6.194 4.048-3.97 6.378-9.368 6.49-15.036z" fill="#915f3a"/><path d="m323.647 84.013-2.687-21.772c-.896-7.2501-4.411-13.9225-9.885-18.761-5.473-4.8385-12.526-7.5091-19.831-7.5091s-14.359 2.6706-19.832 7.5091-8.988 11.5109-9.884 18.761l-2.688 21.772-2.137-.264 2.688-21.773c.96-7.7718 4.728-14.9246 10.595-20.1114 5.866-5.1868 13.427-8.0497 21.258-8.0497s15.391 2.8629 21.258 8.0497 9.635 12.3396 10.595 20.1114l2.688 21.773z" fill="#ffb842"/><path d="m324.613 81.1h.285c.493 0 .966.1959 1.314.5445.349.3486.545.8215.545 1.3145v5.248c0 .3522-.14.69-.389.939-.249.2491-.587.389-.939.389h-1.347c-.352 0-.69-.1399-.939-.389-.249-.249-.389-.5868-.389-.939v-5.249c0-.493.196-.9659.544-1.3145.349-.3486.822-.5445 1.315-.5445z" fill="#ffb842"/><path d="m324.756 84.495c.691 0 1.251-.5601 1.251-1.251s-.56-1.251-1.251-1.251-1.251.5601-1.251 1.251.56 1.251 1.251 1.251z" fill="#915f3a"/><path d="m271.3 91.687h37.561c4.217 0 8.261 1.6752 11.243 4.657s4.657 7.026 4.657 11.243v6.338c0 3.183-1.264 6.235-3.515 8.485-2.25 2.251-5.303 3.515-8.485 3.515h-45.361c-3.183 0-6.235-1.264-8.485-3.515-2.251-2.25-3.515-5.302-3.515-8.485v-6.338c0-4.217 1.675-8.2612 4.657-11.243s7.026-4.657 11.243-4.657z" fill="#b97e50"/><path d="m322.064 108.805h-2.154c-.004-3.254-1.298-6.373-3.599-8.674-2.301-2.3011-5.42-3.5953-8.674-3.599h-35.121c-3.254.0037-6.374 1.2979-8.674 3.599-2.301 2.301-3.595 5.42-3.599 8.674h-2.153c.004-3.825 1.525-7.492 4.23-10.1964 2.704-2.7046 6.371-4.2261 10.196-4.2306h35.121c3.825.0042 7.492 1.5256 10.197 4.2302 2.704 2.7048 4.226 6.3718 4.23 10.1968z" fill="#ffb842"/><path d="m320.549 105.056h.249c.43 0 .842.171 1.146.475s.475.716.475 1.146v4.578c0 .307-.122.602-.339.819s-.512.339-.819.339h-1.175c-.307 0-.602-.122-.819-.339s-.339-.512-.339-.819v-4.578c0-.43.171-.842.475-1.146s.716-.475 1.146-.475z" fill="#ffb842"/><path d="m320.673 108.018c.603 0 1.091-.488 1.091-1.091s-.488-1.091-1.091-1.091-1.091.488-1.091 1.091.488 1.091 1.091 1.091z" fill="#915f3a"/><path d="m302.549 52.631h-19.532c-1.18 0-2.137.9568-2.137 2.137v10.918c0 1.1802.957 2.137 2.137 2.137h19.532c1.18 0 2.137-.9568 2.137-2.137v-10.918c0-1.1802-.957-2.137-2.137-2.137z" fill="#754d2f"/><path d="m298.678 52.631h-.478c.102.2614.155.5394.157.82v8.838c0 .61-.242 1.195-.674 1.6263-.431.4314-1.016.6737-1.626.6737h-15.019c.166.4345.459.8086.842 1.0728.383.2643.837.4062 1.302.4072h15.5c.61 0 1.195-.2423 1.626-.6737.432-.4313.674-1.0163.674-1.6263v-8.837c0-.3025-.06-.602-.175-.8814-.116-.2794-.286-.5333-.5-.747s-.468-.3832-.748-.4986c-.279-.1154-.579-.1745-.881-.174z" fill="#e08d14"/><path d="m298.354 62.289v-8.838c-.002-.2807-.055-.5586-.157-.82h-15.016c-.61 0-1.195.2423-1.626.6736-.432.4314-.674 1.0164-.674 1.6264v8.839c.002.2807.055.5587.158.82h15.016c.302-.0001.601-.0598.88-.1755s.532-.2852.746-.4989c.213-.2136.383-.4673.498-.7464.116-.2791.175-.5782.175-.8802z" fill="#ffb942"/><path d="m283.572 54.092h-.233c-.842 0-1.525.6828-1.525 1.525v2.692c0 .8422.683 1.525 1.525 1.525h.233c.842 0 1.525-.6828 1.525-1.525v-2.692c0-.8422-.683-1.525-1.525-1.525z" fill="#ffd392"/><path d="m195.768 74.358h62.34c1.613 0 3.161.6409 4.301 1.7817 1.141 1.1407 1.782 2.688 1.782 4.3013v.933c0 1.6133-.641 3.1605-1.782 4.3013-1.14 1.1408-2.688 1.7817-4.301 1.7817h-62.34v-13.1z" fill="#ffb942"/><path d="m225.133 74.358h-31.646v1.615h31.646c.672-.0383 1.344.061 1.976.2917s1.21.588 1.7 1.05c.489.4621.878 1.0191 1.145 1.6369.266.6179.403 1.2836.403 1.9564s-.137 1.3385-.403 1.9564c-.267.6178-.656 1.1748-1.145 1.6368-.49.462-1.068.8193-1.7 1.0501-.632.2307-1.304.3299-1.976.2917h-31.646v1.615h31.646c.892.0517 1.785-.0793 2.625-.3851s1.608-.7799 2.258-1.3932 1.168-1.3529 1.521-2.1734c.354-.8206.537-1.7047.537-2.5983s-.183-1.7778-.537-2.5983c-.353-.8205-.871-1.5601-1.521-2.1734s-1.418-1.0874-2.258-1.3932-1.733-.4368-2.625-.3851z" fill="#e08d14"/><path d="m230.36 80.908c-.041-1.3465-.614-2.6218-1.594-3.5467-.979-.9249-2.285-1.4241-3.632-1.3883h-29.366v1.527h27.626c.679-.0181 1.354.1231 1.968.4124.615.2893 1.154.7187 1.573 1.2536.745.8955 1.15 2.025 1.144 3.1898s-.422 2.2902-1.176 3.1782c.988-.313 1.852-.9275 2.472-1.7573s.965-1.833.985-2.8687z" fill="#f7f7f8"/><path d="m226.935 79.164c-.419-.5349-.958-.9642-1.573-1.2536-.614-.2893-1.289-.4305-1.968-.4124h-27.626v8.345h29.365c.603-.0047 1.201-.1098 1.77-.311.754-.888 1.17-2.0134 1.176-3.1782s-.399-2.2943-1.144-3.1898z" fill="#f7f7f8"/><path d="m208.93 81.972h-13.162v1.166h13.162z" fill="#c6d8f4"/><path d="m204.844 79.37h-9.076v1.077h9.076z" fill="#c6d8f4"/><path d="m196.67 96.513c0 .3808.151.7461.421 1.0154.269.2693.634.4206 1.015.4206h59.938c.381 0 .746-.1513 1.015-.4206.27-.2693.421-.6346.421-1.0154v-6.084h-62.81z" fill="#0f515d"/><path d="m258.044 87.249h-59.938c-.381 0-.746.1513-1.015.4206-.27.2693-.421.6345-.421 1.0154v1.744h62.81v-1.744c0-.3809-.151-.7461-.421-1.0154-.269-.2693-.634-.4206-1.015-.4206z" fill="#0f515d"/><path d="m205.847 87.249h-1.768v10.699h1.768z" fill="#ffb942"/><path d="m205.847 87.249h-1.768v3.194h1.768z" fill="#e08d14"/><path d="m252.146 87.249h-1.768v10.699h1.768z" fill="#ffb942"/><path d="m252.146 87.249h-1.768v3.194h1.768z" fill="#e08d14"/><path d="m195 97.949h62.34c.799 0 1.59.1573 2.328.463s1.408.7538 1.973 1.3186c.565.5654 1.013 1.2354 1.319 1.9734s.463 1.529.463 2.328v2.513c0 .799-.157 1.59-.463 2.328s-.754 1.408-1.319 1.973-1.235 1.013-1.973 1.319-1.529.463-2.328.463h-62.34z" fill="#1bc5b8"/><path d="m224.369 97.949h-31.646v1.81h31.646c1.412.0806 2.74.698 3.711 1.727.971 1.028 1.512 2.389 1.512 3.803s-.541 2.775-1.512 3.803c-.971 1.029-2.299 1.646-3.711 1.727h-31.646v1.81h31.646c1.874-.107 3.636-.927 4.925-2.292s2.007-3.171 2.007-5.048-.718-3.683-2.007-5.048c-1.289-1.3648-3.051-2.1848-4.925-2.292z" fill="#069183"/><path d="m229.6 105.288c.037-1.426-.491-2.808-1.471-3.844-.979-1.037-2.33-1.6428-3.755-1.686h-29.374v1.709h27.63c.699-.009 1.389.157 2.008.483.618.326 1.145.802 1.533 1.384.75 1.04 1.15 2.291 1.145 3.573-.006 1.282-.418 2.53-1.177 3.563 1.032-.414 1.915-1.13 2.533-2.055s.941-2.015.928-3.127z" fill="#f7f7f8"/><path d="m226.171 103.334c-.388-.582-.915-1.058-1.533-1.384-.619-.326-1.309-.492-2.008-.483h-27.63v9.351h29.365c.606-.006 1.207-.124 1.77-.349.759-1.033 1.172-2.28 1.178-3.562.007-1.282-.393-2.533-1.142-3.573z" fill="#f7f7f8"/><path d="m208.166 106.601h-13.162v1.307h13.162z" fill="#c6d8f4"/><path d="m204.08 103.685h-9.076v1.207h9.076z" fill="#c6d8f4"/><path d="m265.488 130h-73.039c-.799 0-1.59-.157-2.328-.463s-1.408-.754-1.973-1.319-1.013-1.235-1.319-1.973-.463-1.529-.463-2.328v-5.2c-.001-.799.156-1.591.461-2.33.306-.738.754-1.41 1.319-1.975.565-.566 1.235-1.014 1.974-1.32.738-.306 1.53-.464 2.329-.464h73.039z" fill="#d34242"/><path d="m231.529 112.628h36.6v2.141h-36.6c-1.646.13-3.183.876-4.304 2.089-1.12 1.213-1.743 2.804-1.743 4.455 0 1.652.623 3.243 1.743 4.456 1.121 1.213 2.658 1.959 4.304 2.089h36.6v2.142h-36.6c-4.431 0-8.023-3.889-8.023-8.686s3.594-8.686 8.023-8.686z" fill="#ff6b6b"/><path d="m225.485 121.314c-.062-1.668.539-3.293 1.672-4.519 1.132-1.226 2.704-1.954 4.372-2.025h33.959v2.023h-31.947c-.814-.009-1.618.189-2.335.576-.717.386-1.324.948-1.765 1.633-.868 1.239-1.33 2.716-1.324 4.228.007 1.512.482 2.985 1.361 4.216-1.202-.506-2.225-1.36-2.937-2.453-.712-1.094-1.08-2.375-1.056-3.679z" fill="#f7f7f8"/><path d="m229.445 119c.441-.685 1.048-1.247 1.765-1.633.717-.387 1.521-.585 2.335-.576h31.947v11.066h-33.963c-.702-.007-1.397-.148-2.047-.413-.879-1.231-1.354-2.704-1.361-4.216-.006-1.512.456-2.99 1.324-4.228z" fill="#f7f7f8"/><path d="m250.267 124.597h15.221v-1.547h-15.221z" fill="#c6d8f4"/><path d="m254.993 121.028h10.495v-1.428h-10.495z" fill="#c6d8f4"/><path d="m216.457 111.09-3.14-2.153-3.141 2.153v-7.591h6.281z" fill="#ff6b6b"/></svg>