<svg fill="none" height="130" viewBox="0 0 350 130" width="350" xmlns="http://www.w3.org/2000/svg" xmlns:xlink="http://www.w3.org/1999/xlink"><clipPath id="a"><path d="m0 0h350v130h-350z"/></clipPath><g clip-path="url(#a)"><path d="m103.39 64.32c26.68-10.66 56.35-10.64 85-8.56s57.45 6.07 86 2.81c18.88-2.15 37.83-7.71 52.92-19.25 9.17-7 16.46-15.84 22.68-25.54v34.11c-20.67 24.17-51.65 39.63-83.53 40.39-24.61.58-49.66-6.86-73.55-.89-16.95 4.23-31.7 15-43.51 27.85-4.255 4.686-8.235 9.614-11.92 14.76h-108.61c5.9582-8.525 12.3742-16.72 19.22-24.55 15.35-17.37 33.77-32.53 55.3-41.13z" fill="#e7f9f9"/><path d="m192.92 87.38c23.89-6 48.94 1.47 73.55.89 31.88-.75 62.86-16.22 83.53-40.39v82.12h-212.52c3.688-5.146 7.672-10.074 11.93-14.76 11.8-12.88 26.59-23.62 43.51-27.86z" fill="#f3fbfd"/><path d="m0 0h350v13.78c-6.22 9.71-13.51 18.53-22.68 25.54-15.1 11.54-34 17.09-52.92 19.25-28.55 3.26-57.34-.73-86-2.81s-58.33-2.09-85 8.56c-21.53 8.6-39.94 23.76-55.3 41.13-6.8492 7.83-13.2686 16.025-19.23 24.55h-28.87z" fill="#dbf3f5"/><path d="m317.56 59.97h-133.1c-2.916 0-5.28 2.3639-5.28 5.28v55.14c0 2.916 2.364 5.28 5.28 5.28h133.1c2.916 0 5.28-2.364 5.28-5.28v-55.14c0-2.9161-2.364-5.28-5.28-5.28z" fill="#adadad"/><path d="m207.67 24.91h84.79c.274 0 .544.0542.797.1594.252.1053.481.2596.674.4539.192.1944.344.4249.447.6784.103.2534.155.5248.152.7983v33h-88.93v-33c-.003-.2735.049-.5449.152-.7983.103-.2535.255-.484.447-.6784.193-.1943.422-.3486.674-.4539.253-.1052.523-.1594.797-.1594z" fill="#434444"/><path d="m211.75 19.16h76.63c.554 0 1.086.2202 1.478.6121.392.392.612.9236.612 1.4779v38.75h-80.81v-38.75c0-.5543.22-1.0859.612-1.4779.392-.3919.924-.6121 1.478-.6121z" fill="#f7f7f7"/><path d="m302.19 81.18c2.618 0 4.74-2.1222 4.74-4.74s-2.122-4.74-4.74-4.74-4.74 2.1222-4.74 4.74 2.122 4.74 4.74 4.74z" fill="#eee"/><path d="m299.82 106.95h-97.63v9.82h97.63z" fill="#434444"/><path d="m196.89 73.04h-4.06v4.06h4.06z" fill="#eee"/><path d="m203.89 73.04h-4.06v4.06h4.06z" fill="#eee"/><path d="m210.89 73.04h-4.06v4.06h4.06z" fill="#eee"/><path d="m317.55 59.85h-133.09c-1.4 0-2.743.5563-3.734 1.5465-.99.9902-1.546 2.3331-1.546 3.7335v3.94h143.66v-3.94c0-.6942-.137-1.3816-.403-2.0229-.266-.6412-.656-1.2238-1.147-1.7142s-1.075-.8791-1.716-1.1439c-.642-.2647-1.33-.4003-2.024-.399z" fill="#434444"/><path d="m184.46 126.07h133.09c1.4 0 2.743-.556 3.734-1.547.99-.99 1.546-2.333 1.546-3.733v-3.94h-143.65v3.94c0 1.4.556 2.743 1.546 3.733.991.991 2.334 1.547 3.734 1.547z" fill="#434444"/><path d="m211.75 19.16c-.554 0-1.086.2202-1.478.6121-.392.392-.612.9236-.612 1.4779v38.75h41.34v-40.84z" fill="#fff"/><path d="m250.06 109.6h-41.55l-8.13 20.4h49.68z" fill="#fff"/><path d="m301.34 130-8.13-20.4h-43.15v20.4z" fill="#f7f7f7"/><path d="m208.51 109.6h-3.95l-8.58 20.4h4.4z" fill="#adadad"/><path d="m297.45 109.6h-4.24l8.13 20.4h4.69z" fill="#adadad"/><g fill="#dbf3f5"><path d="m209.98 111.74-1 2.64h41.08v-2.64z"/><path d="m207.98 117.4-1 2.64h43.08v-2.64z"/><path d="m205.98 123.06-1 2.65h45.08v-2.65z"/></g><path d="m290.14 111.74h-40.08v2.64h41.08z" fill="#c0eced"/><path d="m292.14 117.4h-42.08v2.64h43.08z" fill="#c0eced"/><path d="m294.14 123.06h-44.08v2.65h45.08z" fill="#c0eced"/></g></svg>