<svg fill="none" height="130" viewBox="0 0 350 130" width="350" xmlns="http://www.w3.org/2000/svg" xmlns:xlink="http://www.w3.org/1999/xlink"><clipPath id="a"><path d="m0 0h350v130h-350z"/></clipPath><g clip-path="url(#a)"><path d="m92.45 23.08c7.05 13.7 14 29 27.87 35.8 11.95 5.85 26.11 3.79 39.14 1.1 26.12-5.4 51.81-12.83 78.08-17.45s53.46-6.37 79.46-.39c11.574 2.6344 22.695 6.968 33 12.86v-55h-274.44c7.1 6 12.57 14.68 16.89 23.08z" fill="#ffb842"/><path d="m317 42.14c-26-6-53.21-4.23-79.48.39s-52 12-78.08 17.45c-13 2.69-27.19 4.75-39.14-1.1-13.84-6.78-20.82-22.1-27.87-35.8-4.3-8.4-9.77-17.08-16.87-23.08h-75.56v56.84c7.28479-2.3796 15.1204-2.4912 22.47-.32 13.56 4 24.45 14 34.66 23.78s20.71 20 34 24.87c14.37 5.24 30.45 3.52 45.07-1s28.26-11.66 42.43-17.42c42.289-17.1139 88.592-21.7671 133.44-13.41 13.5 2.54 27.54 6.83 37.93 15.36v-33.7c-10.305-5.892-21.426-10.2256-33-12.86z" fill="#f9d196"/><path d="m178.64 86.75c-14.17 5.77-27.81 12.91-42.43 17.42s-30.7 6.23-45.07 1c-13.3-4.85-23.79-15.07-34-24.87s-21.14-19.75-34.67-23.79c-7.3506-2.168-15.18623-2.0529-22.47.33v73.16h350v-41.31c-10.39-8.53-24.44-12.81-37.93-15.36-44.846-8.352-91.145-3.6953-133.43 13.42z" fill="#fff1da"/><path d="m343.46 134.77-44.49-21.93 11.58-23.5 39.45 19.45v25.98z" fill="#ff6a6c"/><path d="m305.02 100.56 44.98 23.11v11.1h-6.54l-44.49-21.93z" fill="#ea5959"/><path d="m300.57 110.39-10.57-5.23h-23.7l-16.72-9.76-8.88-7.4s-.89-3.26 3.55-3c3.623.3271 7.021 1.8956 9.62 4.44l1.33 1.56 10.8 4.1 15.54-3.1s-9.6-1.15-10.94-1.44-6.52-2.56-5.6-4.93 6.22-1.48 7.55-1.33c.79.09 8.22 0 14.08-.14 4.758-.0905 9.466.9768 13.72 3.11l9.3 4.73z" fill="#fb919f"/><path d="m314.98 24h-105.03v60.08h105.03z" fill="#bc9272"/><path d="m274.46 77.28h-22.78v7.18h22.78z" fill="#dccac1"/><g fill="#915f3a"><path d="m242.82 31.98h-27.49v2.69h27.49z"/><path d="m242.82 36.52h-27.49v2.69h27.49z"/><path d="m231 41.05h-15.67v2.69h15.67z"/><path d="m287.68 73.18h-5.44c-.795 0-1.44.6447-1.44 1.44v4.81c0 .7953.645 1.44 1.44 1.44h5.44c.795 0 1.44-.6447 1.44-1.44v-4.81c0-.7953-.645-1.44-1.44-1.44z"/><path d="m297.76 73.18h-5.44c-.795 0-1.44.6447-1.44 1.44v4.81c0 .7953.645 1.44 1.44 1.44h5.44c.795 0 1.44-.6447 1.44-1.44v-4.81c0-.7953-.645-1.44-1.44-1.44z"/><path d="m307.85 73.18h-5.44c-.795 0-1.44.6447-1.44 1.44v4.81c0 .7953.645 1.44 1.44 1.44h5.44c.795 0 1.44-.6447 1.44-1.44v-4.81c0-.7953-.645-1.44-1.44-1.44z"/></g><path d="m274.46 24h-22.78v7.18h22.78z" fill="#dccac1"/></g></svg>