<svg fill="none" height="130" viewBox="0 0 350 130" width="350" xmlns="http://www.w3.org/2000/svg" xmlns:xlink="http://www.w3.org/1999/xlink"><clipPath id="a"><path d="m0 0h350v130h-350z"/></clipPath><g clip-path="url(#a)"><path d="m92.45 23.08c7.05 13.7 14 29 27.87 35.8 11.95 5.85 26.11 3.79 39.14 1.1 26.12-5.4 51.81-12.83 78.08-17.45s53.46-6.37 79.46-.39c11.574 2.6344 22.695 6.968 33 12.86v-55h-274.44c7.1 6 12.57 14.68 16.89 23.08z" fill="#74599c"/><path d="m317 42.14c-26-6-53.21-4.23-79.48.39s-52 12-78.08 17.45c-13 2.69-27.19 4.75-39.14-1.1-13.84-6.78-20.82-22.1-27.87-35.8-4.3-8.4-9.77-17.08-16.87-23.08h-75.56v56.84c7.28479-2.3796 15.1204-2.4912 22.47-.32 13.56 4 24.45 14 34.66 23.78s20.71 20 34 24.87c14.37 5.24 30.45 3.52 45.07-1s28.26-11.66 42.43-17.42c42.289-17.1139 88.592-21.7671 133.44-13.41 13.5 2.54 27.54 6.83 37.93 15.36v-33.7c-10.305-5.892-21.426-10.2256-33-12.86z" fill="#bba8c6"/><path d="m178.64 86.75c-14.17 5.77-27.81 12.91-42.43 17.42s-30.7 6.23-45.07 1c-13.3-4.85-23.79-15.07-34-24.87s-21.14-19.75-34.67-23.79c-7.3506-2.168-15.18623-2.0529-22.47.33v73.16h350v-41.31c-10.39-8.53-24.44-12.81-37.93-15.36-44.846-8.352-91.145-3.6953-133.43 13.42z" fill="#ece9f0"/><path d="m343.46 134.77-44.49-21.93 11.58-23.5 39.45 19.45v25.98z" fill="#ff6a6c"/><path d="m305.02 100.56 44.98 23.11v11.1h-6.54l-44.49-21.93z" fill="#ea5959"/><path d="m300.57 110.39-10.57-5.23h-23.7l-16.72-9.76-8.88-7.4s-.89-3.26 3.55-3c3.623.3271 7.021 1.8956 9.62 4.44l1.33 1.56 10.8 4.1 15.54-3.1s-9.6-1.15-10.94-1.44-6.52-2.56-5.6-4.93 6.22-1.48 7.55-1.33c.79.09 8.22 0 14.08-.14 4.758-.0905 9.466.9768 13.72 3.11l9.3 4.73z" fill="#fb919f"/><path d="m294.048 18.2907-13.555-3.2542c-1.176-.2823-2.358.4422-2.641 1.6183l-3.987 16.608c-.282 1.1761.442 2.3584 1.618 2.6408l13.555 3.2542c1.176.2824 2.359-.4422 2.641-1.6182l3.987-16.6081c.283-1.1761-.442-2.3584-1.618-2.6408z" fill="#dbf3f4"/><g fill="#fff"><path d="m282.879 20.9279c.235-.9774-.367-1.96-1.344-2.1946-.978-.2347-1.96.3674-2.195 1.3448s.367 1.96 1.345 2.1946c.977.2347 1.96-.3675 2.194-1.3448z"/><path d="m293.237 23.4151c.234-.9774-.368-1.9599-1.345-2.1946-.977-.2346-1.96.3675-2.195 1.3449-.234.9773.368 1.9599 1.345 2.1946.978.2346 1.96-.3675 2.195-1.3449z"/><path d="m288.054 22.1605c.235-.9774-.367-1.9599-1.344-2.1946-.978-.2346-1.96.3675-2.195 1.3449-.235.9773.367 1.9599 1.345 2.1945.977.2347 1.96-.3674 2.194-1.3448z"/><path d="m281.39 27.1364c.235-.9774-.367-1.9599-1.345-2.1946-.977-.2346-1.96.3675-2.194 1.3449-.235.9774.367 1.9599 1.344 2.1946.978.2346 1.96-.3675 2.195-1.3449z"/><path d="m291.747 29.6237c.235-.9774-.367-1.96-1.344-2.1946-.978-.2346-1.96.3674-2.195 1.3448s.367 1.96 1.345 2.1946c.977.2347 1.96-.3675 2.194-1.3448z"/><path d="m286.565 28.369c.235-.9774-.367-1.9599-1.345-2.1946-.977-.2346-1.96.3675-2.194 1.3449-.235.9774.367 1.9599 1.344 2.1946.978.2346 1.96-.3675 2.195-1.3449z"/></g><path d="m253.45 27v5.12c0 1.5091.599 2.9564 1.667 4.0235 1.067 1.067 2.514 1.6665 4.023 1.6665h1.06c1.509 0 2.956-.5995 4.023-1.6665 1.068-1.0671 1.667-2.5144 1.667-4.0235v-5.12c-.005-.4589-.065-.9156-.18-1.36h-12.08c-.115.4444-.175.9011-.18 1.36z" fill="#ff6a6c"/><path d="m260.2 21.34h-1.06c-1.27.0016-2.504.4291-3.502 1.214-.999.785-1.706 1.8821-2.008 3.116h12.08c-.302-1.2339-1.009-2.331-2.008-3.116-.999-.7849-2.232-1.2124-3.502-1.214z" fill="#fff"/><path d="m261.5 20h-4.52v2.8h4.52z" fill="#fff"/><path d="m262.97 16.95h-7.01v3.05h7.01z" fill="#71b1e7"/><path d="m244.72 12.8967-13.547 2.2961c-2.085.3535-3.489 2.3307-3.136 4.4162l4.191 24.7273c.354 2.0856 2.331 3.4896 4.417 3.1361l13.546-2.2961c2.086-.3535 3.49-2.3307 3.136-4.4162l-4.191-24.7273c-.353-2.0855-2.33-3.4896-4.416-3.1361z" fill="#dbf3f4"/><path d="m235.273 17.9027-3.303.5598c-.914.1551-1.53 1.0224-1.375 1.9372l.052.3056c.155.9148 1.022 1.5307 1.937 1.3756l3.303-.5598c.914-.1551 1.53-1.0223 1.375-1.9371l-.051-.3057c-.156-.9148-1.023-1.5306-1.938-1.3756z" fill="#8edadb"/><path d="m235.087 18.7662-2.771.4696c-.506.0858-.847.5659-.761 1.0723l.02.1183c.086.5064.566.8473 1.072.7615l2.771-.4696c.506-.0858.847-.5659.761-1.0723l-.02-.1183c-.086-.5064-.566-.8474-1.072-.7615z" fill="#ff6a6c"/><path d="m244.723 16.306-3.303.5598c-.915.1551-1.53 1.0223-1.375 1.9371l.051.3057c.155.9148 1.023 1.5306 1.938 1.3756l3.302-.5598c.915-.1551 1.531-1.0224 1.376-1.9372l-.052-.3056c-.155-.9148-1.022-1.5307-1.937-1.3756z" fill="#8edadb"/><path d="m245.569 16.5254-2.782.4777c-.508.0873-.85.5703-.762 1.0788l.02.1188c.087.5085.57.8499 1.079.7626l2.782-.4777c.508-.0873.85-.5703.762-1.0788l-.02-.1188c-.087-.5085-.57-.8499-1.079-.7626z" fill="#ff6a6c"/><path d="m236.226 23.5627-3.303.5598c-.915.1551-1.531 1.0223-1.376 1.9371l.052.3057c.155.9148 1.022 1.5307 1.937 1.3756l3.303-.5598c.915-.1551 1.531-1.0224 1.376-1.9372l-.052-.3056c-.155-.9148-1.022-1.5307-1.937-1.3756z" fill="#8edadb"/><path d="m236.039 24.4261-2.77.4696c-.507.0859-.848.566-.762 1.0724l.02.1183c.086.5064.566.8473 1.072.7615l2.771-.4696c.506-.0858.847-.5659.761-1.0723l-.02-.1183c-.085-.5064-.566-.8474-1.072-.7616z" fill="#ff6a6c"/><path d="m245.675 21.9659-3.302.5599c-.915.155-1.531 1.0223-1.376 1.9371l.052.3056c.155.9148 1.022 1.5307 1.937 1.3757l3.303-.5599c.915-.155 1.53-1.0223 1.375-1.9371l-.051-.3056c-.155-.9148-1.023-1.5307-1.938-1.3757z" fill="#8edadb"/><path d="m245.489 22.8294-2.771.4696c-.506.0858-.847.5659-.761 1.0723l.02.1183c.086.5064.566.8474 1.072.7616l2.771-.4696c.506-.0859.847-.566.761-1.0724l-.02-.1183c-.086-.5064-.566-.8473-1.072-.7615z" fill="#ff6a6c"/><path d="m237.19 29.2325-3.303.5598c-.915.1551-1.531 1.0223-1.376 1.9371l.052.3057c.155.9148 1.022 1.5307 1.937 1.3756l3.303-.5598c.915-.1551 1.531-1.0224 1.376-1.9372l-.052-.3056c-.155-.9148-1.022-1.5307-1.937-1.3756z" fill="#8edadb"/><path d="m237.003 30.096-2.77.4696c-.507.0858-.848.5659-.762 1.0723l.02.1183c.086.5064.566.8474 1.073.7616l2.77-.4696c.506-.0859.847-.566.762-1.0724l-.021-.1183c-.085-.5064-.565-.8473-1.072-.7615z" fill="#ff6a6c"/><path d="m246.64 27.6358-3.303.5598c-.915.1551-1.531 1.0224-1.376 1.9372l.052.3056c.155.9148 1.022 1.5307 1.937 1.3756l3.303-.5598c.915-.1551 1.53-1.0223 1.375-1.9371l-.051-.3057c-.155-.9148-1.023-1.5307-1.937-1.3756z" fill="#8edadb"/><path d="m246.453 28.4993-2.771.4696c-.506.0858-.847.5659-.761 1.0723l.02.1183c.086.5064.566.8473 1.072.7615l2.771-.4696c.506-.0858.847-.5659.761-1.0723l-.02-.1183c-.086-.5064-.566-.8474-1.072-.7615z" fill="#ff6a6c"/><path d="m278.66 21.4h-14.9v12.89h14.9z" fill="#77b590"/><path d="m279.46 19.98h-16.5v3.14h16.5z" fill="#3c6448"/><path d="m278.66 27.1h-14.9v5.1h14.9z" fill="#fff"/><path d="m278.66 23.12h-1.86v11.16h1.86z" fill="#3c6448" opacity=".2"/><path d="m295.83 29h-67.43c-1.243 0-2.25 1.0074-2.25 2.25v51.08c0 1.2426 1.007 2.25 2.25 2.25h67.43c1.243 0 2.25-1.0074 2.25-2.25v-51.08c0-1.2426-1.007-2.25-2.25-2.25z" fill="#71b1e7"/><path d="m261.5 71.37c8.643 0 15.65-7.0067 15.65-15.65 0-8.6432-7.007-15.65-15.65-15.65s-15.65 7.0068-15.65 15.65c0 8.6433 7.007 15.65 15.65 15.65z" fill="#fff"/><path d="m264.46 52.74h7.75v5.6h-7.75v8.76h-5.9v-8.76h-7.77v-5.6h7.77v-8.39h5.9z" fill="#ff6a6c"/></g></svg>