<svg fill="none" height="130" viewBox="0 0 350 130" width="350" xmlns="http://www.w3.org/2000/svg" xmlns:xlink="http://www.w3.org/1999/xlink"><clipPath id="a"><path d="m0 0h350v130h-350z"/></clipPath><g clip-path="url(#a)"><path d="m.2 4.61001-.2-.16v125.54999h101.47c-2.5533-1.827-5.04-3.753-7.46-5.78-39.01-32.73-54.17-87.66-93.81-119.60999z" fill="#fff1da"/><path d="m350 0h-119.21c-.376 1.54523-.84 3.06771-1.39 4.56-4.71 12.72-14.14 23-22.87 33.37s-17.24 21.77-19.46 35.14c-2.57 15.54 4 31.55 14.36 43.42 4.482 5.048 9.513 9.579 15 13.51h133.57z" fill="#ffb842"/><path d="m201.44 116.49c-10.35-11.87-16.93-27.88-14.36-43.42 2.21-13.38 10.73-24.77 19.46-35.14s18.16-20.66 22.87-33.37c.546-1.4925 1.007-3.01498 1.38-4.56h-230.79v4.45l.2.16c39.64 31.95 54.8 86.88 93.8 119.61 2.4133 2 4.9 3.927 7.46 5.78h114.94c-5.473-3.933-10.491-8.465-14.96-13.51z" fill="#f9d196"/><path d="m289.39 43.05v7.88l-8.5 9.32-1.45 1.88 2.8 1.41s9.53-6.65 11.13-8.63 2.23-10.91 2.23-10.91z" fill="#fb919f"/><path d="m288 98c.87 2.23 5.34 6.82 9.94 11.16 5.5 5.18 11.19 10 11.19 10s2.6.79 1.47-3c0 0-6.28-11.53-9-14.94-.77-1-1.57-1.86-2.31-2.63-1.07-1.1169-2.209-2.1656-3.41-3.14 0 0 .35-.57.93-1.55 2.8-4.8 10.84-19.49 8.36-26-3-7.86-10.42-11.4-10.42-11.4s-2.36 9.94-4.35 20.16c-1.78 9.34-3.3 19.01-2.4 21.34z" fill="#533a71"/><path d="m290.45 76.63c1.37 6.29 3.74 15.2 6.41 17.24 2.8-4.8 10.84-19.49 8.36-26-3-7.86-10.42-11.4-10.42-11.4s-2.36 9.94-4.35 20.16z" fill="#40295c"/><path d="m298 109.18c5.5 5.18 11.19 10 11.19 10s2.6.79 1.47-3c0 0-6.28-11.53-9-14.94-.77-1-1.57-1.86-2.31-2.63.08 2.9 0 7.9-1.35 10.57z" fill="#533a71"/><path d="m296.67 60.41.52-1.92c3.66 1.58 14.41-.73 14.41-.73s3.2 3.8 1.55 11.5c-.8 3.76-3.65 19.82-4.82 24.53-.42 1.71-.75 2.91-.88 3.4-.048.1428-.048.2973 0 .44.488 1.2147.869 2.469 1.14 3.75 2.66 12.46-4.63 26.23-4.63 26.23l-1.25-.73s-.49-16.61-1.78-24.11c-.141-.989-.386-1.961-.73-2.9-.918-2.5801-1.493-5.2698-1.71-8-.649-6.8833-.919-13.797-.81-20.71-.06-.03-1.01-10.75-1.01-10.75z" fill="#533a71"/><path d="m312.25 60.55c1.28-2.37-4.61-11.08-4.5-12 .301-1.8733.818-3.7054 1.54-5.46.595-1.4061 1.109-2.8451 1.54-4.31l-.85-1c-.372-.4061-.706-.8445-1-1.31-.265-.3823-.382-.8478-.33-1.31.057-.3394.14-.6738.25-1 .053-.1533.107-.3033.16-.45.426-1.0334.976-2.0107 1.64-2.91-1.499-.7173-3.122-1.1383-4.78-1.24l-.56-.11h-.32c-.36-.05-.73-.1-1-.12-.7-.59-1.68-2.91-1.76-6.45l-.31.07-5.15 1.16s.16 1.63.21 3.16c.113.8771.031 1.7683-.24 2.61l-.64.11-.8.15h-.06c-.45.09-.83.18-1.13.27h-.06c-.403.0916-.792.2327-1.16.42.19 1.64-2.21 4.74-1.69 8.44 0 .14 2.23 9.76 2.24 9.9.14 2.78-.53 10.71-.53 10.71-1.09 2.64 18.7 3.05 19.29.67z" fill="#fb919f"/><path d="m302.94 10.25c.07-.28002 1-3.25002 5.59-2.40002 0 0-2.32-.23-2.93.68 0 0 1.81-.89 3-.22s1.42 3.00002 1.27 3.76002-1.36 2.9-2.2 2.92c-.344-.0001-.685-.0716-1-.21.151.4056.278.8196.38 1.24 1 4.17-1.7 7.44-3.16 6.69-.94-.48-1.6 1.16-1.6 1.16l-8-10s5.22-6.55002 8.65-3.62z" fill="#066d76"/><path d="m295.86 25.64s6.86-.07 6.75-4.34.7-7.16-3.68-7.29-5.19 1.52-5.5 3 .64 8.54 2.43 8.63z" fill="#fb919f"/><g fill="#066d76"><path d="m293.56 14.58c1-1.31 1.83-1.05 2.29-.68.959-.6261 2.111-.8877 3.247-.7372 1.136.1504 2.18.7029 2.943 1.5572.354 1.8602 1.344 3.5395 2.8 4.75 0 0-1.23.81-4.13.14-.929-.2704-1.757-.8097-2.38-1.55.793 1.2207 1.748 2.3276 2.84 3.29-3.48-1.5-5-6.25-5.15-6.75-.628.5463-1.121 1.2309-1.44 2-.31 1.1-.41 3.34-1.06 3.28.01.03-1.52-3.33.04-5.3z"/><path d="m295.85 128h10.61c.218-.954.112-1.953-.3-2.84-.62-1-.24-1.71 0-2.58-.535.29-1.131.451-1.74.47-.656-.114-1.283-.351-1.85-.7-.85 1.16-1.768 2.269-2.75 3.32-.67.5-3.76.33-3.97 2.33z"/><path d="m311.62 127.75 4-9.83c-.803-.562-1.771-.84-2.75-.79-.43.103-.882.061-1.285-.12-.404-.181-.736-.49-.945-.88.014.613-.109 1.221-.36 1.78-.271.495-.65.922-1.11 1.25.676 1.298 1.277 2.633 1.8 4 .2.84-1.13 3.64.65 4.59z"/></g><path d="m293.42 49.29c0-.08-.69-3.1-1.3-5.79-.928-.0038-1.85-.1557-2.73-.45-.06-1.19-.17-11.4 4-12.35l.6-.2h.06c.51-.14 1-.24 1.13-.27h.06c-.37 1.3632-.667 2.7451-.89 4.14.06.42 4.16.2 6.85 0s3.8-4.8 3.8-4.88h.32c.15 0 3.76.25 5.34 1.35-.664.8992-1.215 1.8765-1.64 2.91-.06.1533-.113.3033-.16.45-.11.3262-.193.6605-.25 1-.052.4622.065.9277.33 1.31.294.4656.628.904 1 1.31l.85 1c-.094.4073-.214.8081-.36 1.2-.31.88-.75 2-1.19 3.11-.726 1.7541-1.246 3.5863-1.55 5.46-.1.88 5.79 9.59 4.5 12-.18.7-2 1.16-4.52 1.4-5.95.56-15.56-.17-14.83-1.95.05-.04.72-7.97.58-10.75z" fill="#5ecccd"/><path d="m307.73 61.95c2.5-.23 4.35-.69 4.52-1.4 1.28-2.37-4.61-11.08-4.5-12 .304-1.8737.824-3.7059 1.55-5.46.44-1.16.88-2.24 1.19-3.11l-.49-1.25s-4.85 6.77-5.83 9.84c-.74 2.43 2.24 10.15 3.56 13.38z" fill="#5ecccd"/><path d="m237.05 127.92c2.342 0 4.24-1.898 4.24-4.24s-1.898-4.24-4.24-4.24-4.24 1.898-4.24 4.24 1.898 4.24 4.24 4.24z" fill="#066d76"/><path d="m229.84 123.18 3.26.51 5.68-26.14h24.47c.725.0425 1.44-.1793 2.014-.6243s.967-1.083 1.106-1.7957l3.15-29.53c.025-.1864.119-.3566.263-.477.145-.1204.329-.1821.517-.173h14.6v-2.82h-14.6c-.962-.0628-1.913.2339-2.669.8326-.755.5986-1.262 1.4566-1.421 2.4074l-1.1 10.33h-24.11c-2.54 0-4.59 1.69-4.68 3.84l-.57 16.46zm33.25-28.45h-24l.57-15.09c.04-.3216.201-.6161.449-.824.249-.2079.567-.3137.891-.296h23.76z" fill="#558a89"/><path d="m255.9 50.93s-2.22.65-3.38 6.27-2.52 21.24-2.52 21.24h6.71z" fill="#fef5f6"/><path d="m275.63 65.22h15.4v-4.96h-15.4z" fill="#066d76"/><path d="m245.9 107.81c.002 3.977 1.183 7.865 3.395 11.171 2.211 3.306 5.353 5.882 9.029 7.402 3.675 1.52 7.719 1.917 11.619 1.139 3.901-.778 7.483-2.695 10.294-5.509s4.725-6.398 5.499-10.3c.774-3.901.373-7.944-1.151-11.618-1.523-3.6739-4.103-6.8133-7.411-9.0214s-7.197-3.3856-11.174-3.3836c-2.641.0013-5.256.5228-7.695 1.5346s-4.656 2.4942-6.522 4.3626c-1.866 1.8683-3.347 4.0859-4.356 6.5258-1.009 2.441-1.528 5.056-1.527 7.697zm3.42 0c-.002-3.302.975-6.53 2.809-9.2762 1.833-2.7462 4.439-4.887 7.489-6.1514 3.051-1.2645 6.407-1.5959 9.646-.9522 3.238.6437 6.213 2.2335 8.548 4.5682 2.334 2.3347 3.924 5.3096 4.568 8.5476.643 3.239.312 6.596-.952 9.646-1.265 3.05-3.406 5.656-6.152 7.489-2.746 1.834-5.974 2.811-9.276 2.809-4.421-.005-8.66-1.765-11.785-4.892s-4.882-7.367-4.885-11.788z" fill="#066d76"/><path d="m250.68 107.81c.002 3.032.903 5.995 2.589 8.515s4.082 4.483 6.884 5.642c2.802 1.158 5.884 1.46 8.858.866 2.973-.593 5.703-2.055 7.846-4.2s3.601-4.878 4.19-7.852c.59-2.974.284-6.056-.878-8.857-1.162-2.8002-3.128-5.1932-5.65-6.876-2.523-1.6828-5.487-2.58-8.519-2.578-2.013.0013-4.006.3991-5.866 1.1707-1.859.7716-3.548 1.9019-4.971 3.3264-1.423 1.4244-2.551 3.1149-3.32 4.9759-.769 1.86-1.164 3.854-1.163 5.867zm2.26 0c0-2.588.768-5.118 2.206-7.269 1.438-2.1514 3.482-3.8279 5.873-4.8173s5.022-1.2472 7.56-.7409 4.869 1.754 6.697 3.5853c1.829 1.8309 3.073 4.1639 3.575 6.7019.503 2.539.241 5.17-.752 7.559-.993 2.39-2.673 4.431-4.827 5.866-2.153 1.435-4.684 2.199-7.272 2.195-3.467-.003-6.792-1.382-9.242-3.835-2.451-2.452-3.828-5.778-3.828-9.245z" fill="#fef5f6"/><path d="m266.01 112.77c2.739 0 4.96-2.221 4.96-4.96s-2.221-4.96-4.96-4.96-4.96 2.221-4.96 4.96 2.221 4.96 4.96 4.96z" fill="#40295c"/><path d="m257.75 93.83h25.61l3.53-30.29h-25.62z" fill="#533a71"/><path d="m236.7 96.14h41.4v-2.31h-41.4z" fill="#533a71"/><path d="m262.16 37.56s7.19 3.52 7.66 8.13-.7 6.65-.7 6.65l-7.12-5.79-.78-5.24z" fill="#fef5f6"/><path d="m255.64 37.56h-1.37c-1.286 0-2.52-.511-3.429-1.4205-.91-.9096-1.421-2.1432-1.421-3.4295v-.81c0-1.2863.511-2.5199 1.421-3.4295.909-.9095 2.143-1.4205 3.429-1.4205h1.37z" fill="#fef5f6"/><path d="m264.35 46.1 1.76 1.08s6.8 2.23 7.62 7.39.59 25.21.59 25.21h-20.32s-.47-25.8 0-27.44 3.91-3.75 3.91-3.75z" fill="#5ecccd"/><path d="m263.13 44s2.74 2.25 2.86 2.72l.12.47s.12 1.56-2.46 3.3-3.4 1.86-3.4 1.86l-2.31-2.81-2 1.41s-1-3.78.79-4.46 1.24-1.17 1.24-1.17z" fill="#dbf3f5"/><path d="m251.47 30h.06c.288 1.9488 1.269 3.7287 2.761 5.014 1.493 1.2854 3.399 1.9904 5.369 1.986h4.66l-.94 2.81c0 3.87-2 7.26-5.91 7.36-.938.0295-1.872-.1298-2.746-.4683-.875-.3386-1.673-.8496-2.347-1.5025-.673-.653-1.208-1.4347-1.574-2.2986-.365-.864-.553-1.7925-.553-2.7306v-6.29c.014-1.3856.438-2.7359 1.22-3.88z" fill="#fb919f"/><path d="m251.52 29.89c.838-1.2614 2.062-2.2172 3.489-2.7239 1.427-.5066 2.98-.5369 4.426-.0862 1.445.4508 2.706 1.3581 3.592 2.586s1.351 2.7101 1.323 4.2241v3.11h-4.69c-1.988.001-3.908-.7191-5.405-2.0266s-2.469-3.1137-2.735-5.0834z" fill="#fef5f6"/><path d="m256.69 43.2h-3.35c.033.4219.223.8159.534 1.1034.31.2874.718.4471 1.141.4471s.831-.1597 1.141-.4471c.311-.2875.501-.6815.534-1.1034z" fill="#fff"/><path d="m262.94 43.2.7 2.93s-.12 1.52-2.35 2.46-3.36 0-3.36 0v-2.49z" fill="#fb919f"/><path d="m271.07 50.77c-2.19-.73-3.83 2-5 6.72s-1.53 10.24-2.46 12-9.79 7.51-9.79 7.51l.83 2.81s11.1-2.89 14.23-6.33 5.47-21.61 2.19-22.71z" fill="#fef5f6"/><path d="m273.81 79.78v3.67c0 4.49-3.64 10.95-8.13 10.95h-8.37l2.05 13.24-21.32.24-5.49-17.7c.341-2.6512 1.605-5.0973 3.572-6.9081 1.966-1.8107 4.508-2.8701 7.178-2.9919l10.72-.5z" fill="#54546e"/><path d="m245.29 107.64 1.62 7.87h-5.27l-2.86-7.87z" fill="#fb919f"/><path d="m246.91 115.51h-5.27c-1.474 1.257-3.024 2.422-4.64 3.49l-3.17 1.83c-.24.14 0 1 0 1l13.61-.86" fill="#fb919f"/><path d="m233.05 122.23h14.17c.436 0 .79-.354.79-.79v-.14c0-.436-.354-.79-.79-.79h-14.17c-.436 0-.79.354-.79.79v.14c0 .436.354.79.79.79z" fill="#fef5f6"/><path d="m240.6 120.54h-7.79v-.28c0-.881.35-1.725.972-2.348.623-.622 1.467-.972 2.348-.972h1.74c.724 0 1.418.288 1.93.8s.8 1.206.8 1.93z" fill="#fef5f6"/><path d="m254.67 107.64 1.62 7.87h-5.27l-2.86-7.87z" fill="#fb919f"/><path d="m256.29 115.51h-5.29c-1.461 1.255-2.998 2.421-4.6 3.49l-3.17 1.83c-.24.14 0 1 0 1l13.61-.86" fill="#fb919f"/><path d="m242.43 122.23h14.17c.436 0 .79-.354.79-.79v-.14c0-.436-.354-.79-.79-.79h-14.17c-.436 0-.79.354-.79.79v.14c0 .436.354.79.79.79z" fill="#fef5f6"/><path d="m249.98 120.54h-7.81v-.28c0-.881.35-1.725.972-2.348.623-.622 1.467-.972 2.348-.972h1.74c.724 0 1.418.288 1.93.8s.8 1.206.8 1.93v.87z" fill="#fef5f6"/><path d="m253.82 77s-6.66-.63-7.49 0-1.33 3.2-1.33 3.2l9.61-.42z" fill="#fb919f"/><path d="m229.15 124.64h29.79c.613 0 1.11-.497 1.11-1.11v-.18c0-.613-.497-1.11-1.11-1.11h-29.79c-.613 0-1.11.497-1.11 1.11v.18c0 .613.497 1.11 1.11 1.11z" fill="#558a89"/><path d="m255.02 96.14h28.95v-9.03h-28.95z" fill="#40295c"/><path d="m248.6 123.18 3.26.51 5.68-26.14h24.46c.725.0425 1.44-.1793 2.014-.6243s.967-1.083 1.106-1.7957l3.15-29.53c.025-.1864.119-.3566.263-.477.145-.1204.329-.1822.517-.173h14.6v-2.82h-14.6c-.955-.0525-1.897.2488-2.644.8466-.747.5977-1.248 1.4498-1.406 2.3934l-1.1 10.33h-24.09c-2.54 0-4.59 1.69-4.68 3.84l-.62 16.46zm33.25-28.45h-24l.57-15.09c.04-.3253.204-.6228.457-.8312s.576-.3117.903-.2888h23.76z" fill="#558a89"/><path d="m264.66 107.81c0 3.977 1.179 7.865 3.389 11.173 2.21 3.307 5.351 5.884 9.025 7.406 3.675 1.522 7.718 1.921 11.619 1.145s7.485-2.692 10.297-5.504c2.812-2.813 4.728-6.396 5.504-10.297s.377-7.944-1.145-11.619c-1.522-3.6744-4.099-6.8151-7.406-9.0248-3.308-2.2098-7.196-3.3892-11.173-3.3892-5.333 0-10.449 2.1187-14.22 5.8901s-5.89 8.8869-5.89 14.2199zm3.42 0c0-3.301.979-6.528 2.813-9.2724 1.834-2.7447 4.44-4.8839 7.49-6.1471 3.05-1.2633 6.406-1.5938 9.643-.9498 3.238.644 6.212 2.2336 8.546 4.5677s3.923 5.3076 4.567 8.5456c.644 3.237.314 6.593-.949 9.643-1.264 3.05-3.403 5.656-6.147 7.49-2.745 1.834-5.972 2.813-9.273 2.813-4.425-.003-8.667-1.762-11.795-4.892s-4.885-7.373-4.885-11.798z" fill="#066d76"/><path d="m269.44 107.81c0 3.032.899 5.996 2.584 8.517 1.684 2.521 4.078 4.486 6.879 5.646 2.802 1.16 5.884 1.464 8.858.872 2.973-.591 5.705-2.051 7.849-4.195s3.604-4.876 4.195-7.849c.592-2.974.288-6.056-.872-8.858-1.16-2.8007-3.125-5.195-5.646-6.8795-2.521-1.6844-5.485-2.5835-8.517-2.5835-4.066 0-7.965 1.6151-10.84 4.49-2.875 2.875-4.49 6.774-4.49 10.84zm2.26 0c0-2.587.767-5.116 2.204-7.267 1.438-2.1509 3.48-3.8274 5.871-4.8174 2.39-.99 5.02-1.249 7.557-.7443s4.868 1.7504 6.697 3.5797c1.829 1.829 3.075 4.16 3.58 6.697.504 2.537.245 5.167-.745 7.557-.99 2.391-2.666 4.433-4.817 5.871-2.151 1.437-4.68 2.204-7.267 2.204-3.469 0-6.796-1.378-9.249-3.831s-3.831-5.78-3.831-9.249z" fill="#fef5f6"/><path d="m284.78 112.77c2.739 0 4.96-2.221 4.96-4.96s-2.221-4.96-4.96-4.96-4.96 2.221-4.96 4.96 2.221 4.96 4.96 4.96z" fill="#40295c"/><path d="m292.51 65.22h15.4v-4.96h-15.4z" fill="#066d76"/><path d="m255.81 127.92c2.342 0 4.24-1.898 4.24-4.24s-1.898-4.24-4.24-4.24-4.24 1.898-4.24 4.24 1.898 4.24 4.24 4.24z" fill="#066d76"/><path d="m310.7 30.89s2.08.53 2.93 3.87 3.2 9.23 3.2 9.23h-12.39s1.56-14.99 6.26-13.1z" fill="#5ecccd"/><path d="m297 60.25c.434.2791.761.6967.928 1.1849.167.4883.164 1.0186-.008 1.5051-.56 1.81-2 3.53.7 3.26s5 1.86 5.4-.79 1.08-5.63 1.08-5.63 11.95-2.89 12.13-4-2.23-11.78-2.23-11.78h-5.68l1.57 8.35-10 6.71z" fill="#fb919f"/></g></svg>