<svg fill="none" height="130" viewBox="0 0 350 130" width="350" xmlns="http://www.w3.org/2000/svg" xmlns:xlink="http://www.w3.org/1999/xlink"><clipPath id="a"><path d="m0 0h350v130h-350z"/></clipPath><g clip-path="url(#a)"><path d="m85.24 102.87c5.74-9.46 12.59-18.8 14-29.77 2.08-15.65-9-32-24.35-35.77-8.85-2.2-18.22-.59-27.24-1.93-10.9575-1.6896-20.8218-7.5924-27.49-16.45-4.121-5.581-6.8096-12.08788-7.83-18.95h-12.33v130h76.67c-.82-9.38 3.57-18.9 8.57-27.13z" fill="#c9e3fc"/><path d="m129 120.58c11.6-11.06 27.89-15.83 43.82-17.62 11.55-1.3 25-2.15 31.65-11.64 5-7.12 4.28-16.83 1.71-25.16s-6.75-16.19-8.1-24.8c-2.43-15.36 4.86-30.81 16.39-41.36h-202.14c1.0233 6.86303 3.7154 13.37 7.84 18.95 6.6753 8.8643 16.5515 14.7678 27.52 16.45 9 1.34 18.39-.27 27.24 1.93 15.33 3.8 26.43 20.12 24.35 35.77-1.46 11-8.3001 20.31-14 29.77-5 8.23-9.39 17.75-8.57 27.13h44.91c2.005-3.472 4.489-6.643 7.38-9.42z" fill="#83beff"/><path d="m350 0h-135.53c-11.53 10.55-18.82 26-16.41 41.35 1.35 8.61 5.53 16.48 8.1 24.8s3.31 18-1.71 25.16c-6.69 9.5-20.11 10.34-31.65 11.64-15.93 1.8-32.22 6.56-43.82 17.62-2.894 2.777-5.382 5.948-7.39 9.42h228.41z" fill="#58afff"/><path d="m296.23 34h35.27c.663 0 1.299.2634 1.768.7322.469.4689.732 1.1048.732 1.7678v87.67c0 .663-.263 1.299-.732 1.768s-1.105.732-1.768.732h-35.27z" fill="#624b82"/><path d="m297.08 34h-70.83c-1.198 0-2.17.9715-2.17 2.17v88.33c0 1.198.972 2.17 2.17 2.17h70.83c1.198 0 2.17-.972 2.17-2.17v-88.33c0-1.1985-.972-2.17-2.17-2.17z" fill="#40295c"/><path d="m286.78 38.47h-57.79v81.78h57.79z" fill="#624b82"/><path d="m286.79 41.54h-31.86v66.24h31.86z" fill="#40295c"/><path d="m328.9 49.24h-24.36v6.04h24.36z" fill="#baa8c6"/><path d="m326.85 43.57c1.16 0 2.1-1.1417 2.1-2.55 0-1.4084-.94-2.55-2.1-2.55s-2.1 1.1416-2.1 2.55c0 1.4083.94 2.55 2.1 2.55z" fill="#baa8c6"/><path d="m309.45 40.55h-4.91v1.99h4.91z" fill="#40295c"/><path d="m315.49 40.55h-4.91v1.99h4.91z" fill="#40295c"/><path d="m319.36 42.55c.464 0 .84-.4522.84-1.01s-.376-1.01-.84-1.01-.84.4522-.84 1.01.376 1.01.84 1.01z" fill="#40295c"/><path d="m317.14 76.94h-.84c-.447 0-.81.3626-.81.81v37.16c0 .447.363.81.81.81h.84c.447 0 .81-.363.81-.81v-37.16c0-.4474-.363-.81-.81-.81z" fill="#40295c"/><path d="m328.9 56.79h-24.36v6.04h24.36z" fill="#baa8c6"/><path d="m327.96 49.86h-3.21v1.39h3.21z" fill="#fff"/><path d="m248.72 107.78h-17.46v12.47h17.46z" fill="#baa8c6"/><path d="m264.5 107.78h-15.78v12.47h15.78z" fill="#ede9f0"/><path d="m286.79 41.54h-31.86v58.31h31.86z" fill="#003090"/><path d="m286.78 107.78h-19.01v12.47h19.01z" fill="#40295c"/><path d="m285.27 109.17h-15.61v2.9h15.61z" fill="#baa8c6"/><path d="m285.27 115.21h-15.61v2.9h15.61z" fill="#baa8c6"/><path d="m284.56 54.4h-14.19c-.392 0-.71.3179-.71.71v14.19c0 .3921.318.71.71.71h14.19c.392 0 .71-.3179.71-.71v-14.19c0-.3921-.318-.71-.71-.71z" fill="#0078fa"/><path d="m265.75 54.4h-5.85v24.08h5.85z" fill="#40295c"/><path d="m282.41 56.56h-9.88c-.392 0-.71.3179-.71.71v9.88c0 .3921.318.71.71.71h9.88c.392 0 .71-.3179.71-.71v-9.88c0-.3921-.318-.71-.71-.71z" fill="#baa8c6"/><path d="m265.38 55.28h-5.1v1.26h5.1z" fill="#624b82"/><path d="m265.38 58.3h-5.1v1.26h5.1z" fill="#624b82"/><path d="m265.38 59.81h-5.1v1.26h5.1z" fill="#624b82"/><path d="m265.38 62.83h-5.1v1.26h5.1z" fill="#624b82"/><path d="m265.38 64.34h-5.1v1.26h5.1z" fill="#624b82"/><path d="m265.38 65.86h-5.1v1.26h5.1z" fill="#624b82"/><path d="m265.38 67.37h-5.1v1.26h5.1z" fill="#624b82"/><path d="m265.38 70.39h-5.1v1.26h5.1z" fill="#624b82"/><path d="m265.38 73.41h-5.1v1.26h5.1z" fill="#624b82"/><path d="m265.38 74.92h-5.1v1.26h5.1z" fill="#624b82"/><path d="m274.89 86.06h-41.51v6.49h41.51z" fill="#40295c"/><path d="m286.78 86.06h-11.9v6.49h11.9z" fill="#624b82"/><path d="m269.58 77.03c1 0 1.81-.8103 1.81-1.81 0-.9996-.81-1.81-1.81-1.81s-1.81.8104-1.81 1.81c0 .9997.81 1.81 1.81 1.81z" fill="#baa8c6"/><path d="m262.83 46.02h-4.94v2.08h4.94z" fill="#0078fa"/><path d="m277.94 46.02h-4.94v2.08h4.94z" fill="#0078fa"/><path d="m271.89 46.02h-4.94v2.08h4.94z" fill="#0078fa"/><path d="m256.61 51.25h-3.63v5.54h3.63z" fill="#baa8c6"/><path d="m257.89 58.3h-4.91v4.91h4.91z" fill="#baa8c6"/><path d="m256.03 64.09h-3.05v3.9h3.05z" fill="#baa8c6"/><g fill="#58afff"><path d="m232.9 50.84c.856 0 1.55-.7745 1.55-1.73 0-.9554-.694-1.73-1.55-1.73s-1.55.7746-1.55 1.73c0 .9555.694 1.73 1.55 1.73z"/><path d="m236.96 50.84c.856 0 1.55-.7745 1.55-1.73 0-.9554-.694-1.73-1.55-1.73s-1.55.7746-1.55 1.73c0 .9555.694 1.73 1.55 1.73z"/><path d="m241.02 50.84c.856 0 1.55-.7745 1.55-1.73 0-.9554-.694-1.73-1.55-1.73s-1.55.7746-1.55 1.73c0 .9555.694 1.73 1.55 1.73z"/><path d="m245.07 50.84c.856 0 1.55-.7745 1.55-1.73 0-.9554-.694-1.73-1.55-1.73s-1.55.7746-1.55 1.73c0 .9555.694 1.73 1.55 1.73z"/><path d="m249.13 50.84c.856 0 1.55-.7745 1.55-1.73 0-.9554-.694-1.73-1.55-1.73s-1.55.7746-1.55 1.73c0 .9555.694 1.73 1.55 1.73z"/><path d="m234.93 55.37c.856 0 1.55-.7746 1.55-1.73 0-.9555-.694-1.73-1.55-1.73s-1.55.7745-1.55 1.73c0 .9554.694 1.73 1.55 1.73z"/><path d="m238.99 55.37c.856 0 1.55-.7746 1.55-1.73 0-.9555-.694-1.73-1.55-1.73s-1.55.7745-1.55 1.73c0 .9554.694 1.73 1.55 1.73z"/><path d="m243.04 55.37c.856 0 1.55-.7746 1.55-1.73 0-.9555-.694-1.73-1.55-1.73s-1.55.7745-1.55 1.73c0 .9554.694 1.73 1.55 1.73z"/><path d="m247.1 55.37c.856 0 1.55-.7746 1.55-1.73 0-.9555-.694-1.73-1.55-1.73s-1.55.7745-1.55 1.73c0 .9554.694 1.73 1.55 1.73z"/><path d="m232.9 59.91c.856 0 1.55-.7745 1.55-1.73 0-.9554-.694-1.73-1.55-1.73s-1.55.7746-1.55 1.73c0 .9555.694 1.73 1.55 1.73z"/><path d="m236.96 59.91c.856 0 1.55-.7745 1.55-1.73 0-.9554-.694-1.73-1.55-1.73s-1.55.7746-1.55 1.73c0 .9555.694 1.73 1.55 1.73z"/><path d="m241.02 59.91c.856 0 1.55-.7745 1.55-1.73 0-.9554-.694-1.73-1.55-1.73s-1.55.7746-1.55 1.73c0 .9555.694 1.73 1.55 1.73z"/><path d="m245.07 59.91c.856 0 1.55-.7745 1.55-1.73 0-.9554-.694-1.73-1.55-1.73s-1.55.7746-1.55 1.73c0 .9555.694 1.73 1.55 1.73z"/><path d="m249.13 59.91c.856 0 1.55-.7745 1.55-1.73 0-.9554-.694-1.73-1.55-1.73s-1.55.7746-1.55 1.73c0 .9555.694 1.73 1.55 1.73z"/><path d="m234.93 64.44c.856 0 1.55-.7746 1.55-1.73 0-.9555-.694-1.73-1.55-1.73s-1.55.7745-1.55 1.73c0 .9554.694 1.73 1.55 1.73z"/><path d="m238.99 64.44c.856 0 1.55-.7746 1.55-1.73 0-.9555-.694-1.73-1.55-1.73s-1.55.7745-1.55 1.73c0 .9554.694 1.73 1.55 1.73z"/><path d="m243.04 64.44c.856 0 1.55-.7746 1.55-1.73 0-.9555-.694-1.73-1.55-1.73s-1.55.7745-1.55 1.73c0 .9554.694 1.73 1.55 1.73z"/><path d="m247.1 64.44c.856 0 1.55-.7746 1.55-1.73 0-.9555-.694-1.73-1.55-1.73s-1.55.7745-1.55 1.73c0 .9554.694 1.73 1.55 1.73z"/><path d="m232.9 68.97c.856 0 1.55-.7745 1.55-1.73 0-.9554-.694-1.73-1.55-1.73s-1.55.7746-1.55 1.73c0 .9555.694 1.73 1.55 1.73z"/><path d="m236.96 68.97c.856 0 1.55-.7745 1.55-1.73 0-.9554-.694-1.73-1.55-1.73s-1.55.7746-1.55 1.73c0 .9555.694 1.73 1.55 1.73z"/><path d="m241.02 68.97c.856 0 1.55-.7745 1.55-1.73 0-.9554-.694-1.73-1.55-1.73s-1.55.7746-1.55 1.73c0 .9555.694 1.73 1.55 1.73z"/><path d="m245.07 68.97c.856 0 1.55-.7745 1.55-1.73 0-.9554-.694-1.73-1.55-1.73s-1.55.7746-1.55 1.73c0 .9555.694 1.73 1.55 1.73z"/><path d="m249.13 68.97c.856 0 1.55-.7745 1.55-1.73 0-.9554-.694-1.73-1.55-1.73s-1.55.7746-1.55 1.73c0 .9555.694 1.73 1.55 1.73z"/><path d="m234.93 73.5c.856 0 1.55-.7746 1.55-1.73 0-.9555-.694-1.73-1.55-1.73s-1.55.7745-1.55 1.73c0 .9554.694 1.73 1.55 1.73z"/><path d="m238.99 73.5c.856 0 1.55-.7746 1.55-1.73 0-.9555-.694-1.73-1.55-1.73s-1.55.7745-1.55 1.73c0 .9554.694 1.73 1.55 1.73z"/><path d="m243.04 73.5c.856 0 1.55-.7746 1.55-1.73 0-.9555-.694-1.73-1.55-1.73s-1.55.7745-1.55 1.73c0 .9554.694 1.73 1.55 1.73z"/><path d="m247.1 73.5c.856 0 1.55-.7746 1.55-1.73 0-.9555-.694-1.73-1.55-1.73s-1.55.7745-1.55 1.73c0 .9554.694 1.73 1.55 1.73z"/><path d="m232.9 78.04c.856 0 1.55-.7745 1.55-1.73 0-.9554-.694-1.73-1.55-1.73s-1.55.7746-1.55 1.73c0 .9555.694 1.73 1.55 1.73z"/><path d="m236.96 78.04c.856 0 1.55-.7745 1.55-1.73 0-.9554-.694-1.73-1.55-1.73s-1.55.7746-1.55 1.73c0 .9555.694 1.73 1.55 1.73z"/><path d="m241.02 78.04c.856 0 1.55-.7745 1.55-1.73 0-.9554-.694-1.73-1.55-1.73s-1.55.7746-1.55 1.73c0 .9555.694 1.73 1.55 1.73z"/><path d="m245.07 78.04c.856 0 1.55-.7745 1.55-1.73 0-.9554-.694-1.73-1.55-1.73s-1.55.7746-1.55 1.73c0 .9555.694 1.73 1.55 1.73z"/><path d="m249.13 78.04c.856 0 1.55-.7745 1.55-1.73 0-.9554-.694-1.73-1.55-1.73s-1.55.7746-1.55 1.73c0 .9555.694 1.73 1.55 1.73z"/><path d="m234.93 82.57c.856 0 1.55-.7746 1.55-1.73 0-.9555-.694-1.73-1.55-1.73s-1.55.7745-1.55 1.73c0 .9554.694 1.73 1.55 1.73z"/><path d="m238.99 82.57c.856 0 1.55-.7746 1.55-1.73 0-.9555-.694-1.73-1.55-1.73s-1.55.7745-1.55 1.73c0 .9554.694 1.73 1.55 1.73z"/><path d="m243.04 82.57c.856 0 1.55-.7746 1.55-1.73 0-.9555-.694-1.73-1.55-1.73s-1.55.7745-1.55 1.73c0 .9554.694 1.73 1.55 1.73z"/><path d="m247.1 82.57c.856 0 1.55-.7746 1.55-1.73 0-.9555-.694-1.73-1.55-1.73s-1.55.7745-1.55 1.73c0 .9554.694 1.73 1.55 1.73z"/></g><path d="m286.78 74.57h-11.9v1.73h11.9z" fill="#0078fa"/><path d="m286.79 79.36h-11.32v1.48h11.32z" fill="#0078fa"/></g></svg>