<svg fill="none" height="130" viewBox="0 0 350 130" width="350" xmlns="http://www.w3.org/2000/svg" xmlns:xlink="http://www.w3.org/1999/xlink"><clipPath id="a"><path d="m0 0h350v130h-350z"/></clipPath><g clip-path="url(#a)"><path d="m350 116.41c-4.135.207-8.277.19-12.41-.05-27.934-1.762-54.349-13.328-74.59-32.66-16.67-16-30.65-38.18-53.41-42.32-14.61-2.66-29.61 3.16-41.84 11.59s-22.46 19.4-33.89 28.89c-7.67 6.32-16.14 12.14-25.86 14.14s-20.89-.45-27-8.26c-6.35-8.13-5.82-19.81-2.49-29.58s9-18.59 12.38-28.35 4-21.42-2.3-29.61l-.17-.2h-88.42v79.37c5.33695.6562 10.484 2.394 15.1264 5.1072s8.6826 6.3449 11.8736 10.6728c7.33 10.31 9.25 23.66 16.35 34.13.17.25.36.48.54.73h69.53c14.52-13 27.41-29.83 45.7-36.15 20.06-6.94 42.28.31 60.9 10.49 15.2 8.31 29.48 18.65 45.23 25.65h84.75z" fill="#ffbacc"/><path d="m90.9 29.83c-3.35 9.76-9.06 18.58-12.38 28.35s-3.86 21.45 2.48 29.58c6.11 7.81 17.29 10.3 27 8.26s18.19-7.84 25.82-14.17c11.44-9.48 21.67-20.45 33.89-28.85s27.22-14.25 41.84-11.59c22.76 4.11 36.74 26.26 53.45 42.29 20.255 19.339 46.69 30.903 74.64 32.65 4.133.24 8.275.257 12.41.05v-116.4h-261.63l.18.21c6.28 8.2 5.66 19.86 2.3 29.62z" fill="#ff9eb1"/><path d="m159.12 93.85c-18.29 6.33-31.18 23.11-45.7 36.15h151.83c-15.75-7-30-17.34-45.24-25.66-18.62-10.18-40.84-17.43-60.89-10.49z" fill="#ffbacc"/><path d="m27 95.15c-3.191-4.3279-7.2312-7.9596-11.8736-10.6728s-9.78945-4.451-15.1264-5.1072v50.63h43.89c-.18-.25-.37-.48-.54-.73-7.1-10.46-9.02-23.82-16.35-34.12z" fill="#fce4e4"/><path d="m214.77 75.71c0 .4833.095.9618.28 1.4083s.456.8521.798 1.1939c.342.3417.747.6127 1.194.7977.446.1849.925.2801 1.408.2801h22.82c.487.0066.971-.0837 1.424-.2656.452-.182.864-.452 1.211-.7944s.622-.7503.81-1.2001.285-.9324.285-1.4199v-8.77c0-.976.388-1.912 1.078-2.6022.69-.6901 1.626-1.0778 2.602-1.0778h40.86c.976 0 1.912.3877 2.602 1.0778.69.6902 1.078 1.6262 1.078 2.6022v38.81h34.6v-58.63h-113z" fill="#dbf3f5"/><g fill="#0a968f"><path d="m316.55 33.67h-90.55c-2.978 0-5.835 1.1832-7.941 3.2892s-3.289 4.9624-3.289 7.9408v2.22h113v-2.22c0-2.9766-1.182-5.8315-3.286-7.9373-2.104-2.1057-4.957-3.2901-7.934-3.2927z"/><path d="m219.55 79.39h21.35v2.61c0 1.3261-.527 2.5979-1.464 3.5355-.938.9377-2.21 1.4645-3.536 1.4645h-11c-.7 0-1.393-.1379-2.04-.4057-.646-.2679-1.234-.6605-1.729-1.1554-.495-.495-.887-1.0825-1.155-1.7292s-.406-1.3398-.406-2.0397v-2.28z"/><path d="m295.15 52.5h-55.49c-1.348 0-2.44 1.0924-2.44 2.44v.5c0 1.3476 1.092 2.44 2.44 2.44h55.49c1.348 0 2.44-1.0924 2.44-2.44v-.5c0-1.3476-1.092-2.44-2.44-2.44z"/><path d="m212.27 105.75h117.63c.64 0 1.273.126 1.864.371.591.244 1.127.603 1.58 1.055.452.453.811.989 1.055 1.58.245.591.371 1.224.371 1.864v5.89h-127.36v-5.89c0-1.29.512-2.527 1.423-3.44s2.147-1.427 3.437-1.43z"/></g><path d="m334.77 115.39h-127.36v6.49h127.36z" fill="#dbf3f5"/><path d="m223.48 121.89h-16.07v2.71h16.07z" fill="#0a968f"/><path d="m272.94 121.89h-16.07v2.71h16.07z" fill="#0a968f"/><path d="m334.76 121.89h-16.07v2.71h16.07z" fill="#0a968f"/><path d="m311.99 71.96c3.888 0 7.04-3.1519 7.04-7.04s-3.152-7.04-7.04-7.04-7.04 3.1519-7.04 7.04 3.152 7.04 7.04 7.04z" fill="#0a968f"/><path d="m311.99 69.34c2.441 0 4.42-1.9789 4.42-4.42s-1.979-4.42-4.42-4.42-4.42 1.9789-4.42 4.42 1.979 4.42 4.42 4.42z" fill="#caead9"/><path d="m311.99 89.62c3.888 0 7.04-3.1519 7.04-7.04s-3.152-7.04-7.04-7.04-7.04 3.1519-7.04 7.04 3.152 7.04 7.04 7.04z" fill="#0a968f"/><path d="m311.99 87c2.441 0 4.42-1.9789 4.42-4.42s-1.979-4.42-4.42-4.42-4.42 1.9789-4.42 4.42 1.979 4.42 4.42 4.42z" fill="#caead9"/><path d="m230.22 87.05h-2.94v15.09h2.94z" fill="#0a968f"/><path d="m333.29 49.87h-5.52v25.67h5.52z" fill="#0a968f"/><path d="m310.1 23h-5.15v10.67h5.15z" fill="#0a968f"/><path d="m238.7 28.34h-9.94v5.34h9.94z" fill="#0a968f"/></g></svg>