<svg fill="none" height="130" viewBox="0 0 350 130" width="350" xmlns="http://www.w3.org/2000/svg" xmlns:xlink="http://www.w3.org/1999/xlink"><clipPath id="a"><path d="m0 0h350v130h-350z"/></clipPath><g clip-path="url(#a)"><path d="m201.313 36.165c29.938 4.063 60.353-3.992 90.469-1.591 20.677 1.7694 40.634 8.4414 58.218 19.463v-54.037h-216.7c17.753 19.268 42.017 32.637 68.013 36.165z" fill="#a8efed"/><path d="m118.232 83.184c-15.899-10.593-34.515-16.431-50.832-26.364-21.457-13.058-37.915-33.531-47.242-56.82h-20.158v130h155.81c-7.508-19.044-20.61-35.3659-37.578-46.816z" fill="#5ecccd"/><path d="m291.782 34.573c-30.116-2.4-60.531 5.655-90.469 1.591-26-3.528-50.26-16.9-68.01-36.16500708h-113.145c9.327 23.29000708 25.785 43.76300708 47.242 56.82100708 16.319 9.933 34.936 15.771 50.835 26.364 16.967 11.4505 30.068 27.773 37.575 46.816h73.249c-4.16-8.635-6.135-17.738-2.611-26.416 5.652-13.917 22.712-19.052 37.71-19.884 30.467-1.686 61.114 8.043 85.842 25.851v-55.514c-17.584-11.0219-37.541-17.6943-58.218-19.464z" fill="#71e2dd"/><path d="m264.158 83.7c-15 .83-32.059 5.966-37.71 19.882-3.524 8.678-1.549 17.782 2.611 26.416h120.941v-20.446c-24.729-17.808-55.375-27.537-85.842-25.852z" fill="#5ecccd"/><path d="m315.827 95.423h-18.921v10.583h18.921z" fill="#d83a3a"/><path d="m315.827 106.006.246-71.708h13.227c1.345 0 2.648.4679 3.685 1.3235 1.038.8555 1.745 2.0454 2.001 3.3655l6.252 32.228c.059.3044.089.6139.089.924v52.784l-5.75-.167z" fill="#ff6b6b"/><path d="m315.827 99.235v6.771l14.683 3.459 5.912 11.75-1.862-13.357c-.194-1.391-.811-2.69-1.768-3.719-.956-1.028-2.206-1.738-3.58-2.033z" fill="#ea4747"/><path d="m322.312 109.702 2.777-2.753 5.15 1.376 2.629 3.978 2.038 5.537.667 6.916-1.132 2.25-7.701-1.333z" fill="#094047"/><path d="m311.907 109.482c-.056 0-.111-.018-.167-.018-3.954 0-7.16 6.66-7.16 14.875s3.206 14.875 7.16 14.875h15.334v-29.732z" fill="#0f515d"/><path d="m326.74 139.215c3.954 0 7.16-6.66 7.16-14.875s-3.206-14.875-7.16-14.875-7.16 6.66-7.16 14.875 3.206 14.875 7.16 14.875z" fill="#094047"/><path d="m327.074 136.377c3.2 0 5.794-5.389 5.794-12.037s-2.594-12.037-5.794-12.037-5.794 5.389-5.794 12.037 2.594 12.037 5.794 12.037z" fill="#073235"/><path d="m327.109 134.818c2.649 0 4.797-4.691 4.797-10.478s-2.148-10.478-4.797-10.478-4.797 4.691-4.797 10.478 2.148 10.478 4.797 10.478z" fill="#00baa3"/><path d="m326.026 132.452c2.051 0 3.714-3.632 3.714-8.112s-1.663-8.112-3.714-8.112-3.714 3.632-3.714 8.112 1.663 8.112 3.714 8.112z" fill="#017c6a"/><path d="m306.285 106.006-1.055 2c-2.144 2.271-3.631 5.082-4.3 8.132l-.02.038v.061c-.669 2.65-1.002 5.373-.99 8.106 0 .91.045 1.8.111 2.666h18.459c.065-.871-.083-1.756-.083-2.667 0-2.5.894-4.871.427-7.027l.352-1.89 4.055-7.417 3.5-2z" fill="#094047"/><path d="m318.919 124.34c0-8.854 3.581-16.334 7.82-16.334s7.82 7.48 7.82 16.334c0 .907-.046 1.795-.119 2.666h2.008c.065-.871.111-1.756.111-2.666 0-10.28-4.313-18.334-9.82-18.334s-9.82 8.054-9.82 18.334c0 .91.045 1.8.111 2.666h2.008c-.072-.872-.119-1.759-.119-2.666z" fill="#0f515d"/><path d="m324.883 128.396c1.026 0 1.857-1.816 1.857-4.056s-.831-4.056-1.857-4.056c-1.025 0-1.857 1.816-1.857 4.056s.832 4.056 1.857 4.056z" fill="#0f515d"/><path d="m307.907 102.006h-98.966v18.379h98.966z" fill="#073235"/><path d="m200.261 109.803 2.776-2.752 5.151 1.376 2.628 3.977 2.038 5.537.667 6.916-1.132 2.25-7.701-1.333z" fill="#094047"/><path d="m189.856 109.583c-.056 0-.111-.018-.167-.018-3.954 0-7.16 6.66-7.16 14.875s3.206 14.875 7.16 14.875h15.334v-29.732z" fill="#0f515d"/><path d="m204.688 139.316c3.954 0 7.16-6.66 7.16-14.875s-3.206-14.875-7.16-14.875-7.16 6.66-7.16 14.875 3.206 14.875 7.16 14.875z" fill="#094047"/><path d="m205.023 136.478c3.2 0 5.794-5.389 5.794-12.037s-2.594-12.037-5.794-12.037-5.794 5.389-5.794 12.037 2.594 12.037 5.794 12.037z" fill="#073235"/><path d="m205.058 134.919c2.649 0 4.797-4.691 4.797-10.478s-2.148-10.478-4.797-10.478-4.797 4.691-4.797 10.478 2.148 10.478 4.797 10.478z" fill="#00baa3"/><path d="m203.974 132.553c2.051 0 3.714-3.632 3.714-8.112s-1.663-8.112-3.714-8.112-3.714 3.632-3.714 8.112 1.663 8.112 3.714 8.112z" fill="#017c6a"/><path d="m184.234 106.107-1.055 2c-2.144 2.271-3.631 5.082-4.3 8.132l-.02.038v.061c-.669 2.65-1.002 5.373-.99 8.106 0 .91.045 1.8.111 2.666h18.459c.065-.871-.083-1.756-.083-2.667 0-2.5.894-4.871.427-7.027l.352-1.89 4.055-7.417 3.5-2z" fill="#094047"/><path d="m196.868 124.441c0-8.854 3.581-16.334 7.82-16.334s7.82 7.48 7.82 16.334c0 .907-.046 1.795-.119 2.666h2.011c.065-.871.111-1.756.111-2.666 0-10.28-4.313-18.334-9.82-18.334s-9.82 8.054-9.82 18.334c0 .91.045 1.8.111 2.666h2.008c-.076-.871-.122-1.759-.122-2.666z" fill="#0f515d"/><path d="m202.831 128.497c1.026 0 1.857-1.816 1.857-4.056s-.831-4.056-1.857-4.056c-1.025 0-1.857 1.816-1.857 4.056s.832 4.056 1.857 4.056z" fill="#0f515d"/><path d="m287.312 109.702 2.777-2.753 5.15 1.376 2.629 3.978 2.038 5.537.667 6.916-1.132 2.25-7.701-1.333z" fill="#094047"/><path d="m276.907 109.482c-.056 0-.111-.018-.167-.018-3.954 0-7.16 6.66-7.16 14.875s3.206 14.875 7.16 14.875h15.334v-29.732z" fill="#0f515d"/><path d="m291.74 139.215c3.954 0 7.16-6.66 7.16-14.875s-3.206-14.875-7.16-14.875-7.16 6.66-7.16 14.875 3.206 14.875 7.16 14.875z" fill="#094047"/><path d="m292.074 136.377c3.2 0 5.794-5.389 5.794-12.037s-2.594-12.037-5.794-12.037-5.794 5.389-5.794 12.037 2.594 12.037 5.794 12.037z" fill="#073235"/><path d="m292.109 134.818c2.649 0 4.797-4.691 4.797-10.478s-2.148-10.478-4.797-10.478-4.797 4.691-4.797 10.478 2.148 10.478 4.797 10.478z" fill="#00baa3"/><path d="m291.026 132.452c2.051 0 3.714-3.632 3.714-8.112s-1.663-8.112-3.714-8.112-3.714 3.632-3.714 8.112 1.663 8.112 3.714 8.112z" fill="#017c6a"/><path d="m271.285 106.006-1.055 2c-2.144 2.271-3.631 5.082-4.3 8.132l-.02.038v.061c-.669 2.65-1.002 5.373-.99 8.106 0 .91.045 1.8.111 2.666h18.459c.065-.871-.083-1.756-.083-2.667 0-2.5.894-4.871.427-7.027l.352-1.89 4.055-7.417 3.5-2z" fill="#094047"/><g fill="#0f515d"><path d="m283.919 124.34c0-8.854 3.581-16.334 7.82-16.334s7.82 7.48 7.82 16.334c0 .907-.046 1.795-.119 2.666h2.008c.065-.871.111-1.756.111-2.666 0-10.28-4.313-18.334-9.82-18.334s-9.82 8.054-9.82 18.334c0 .91.045 1.8.111 2.666h2.008c-.072-.872-.119-1.759-.119-2.666z"/><path d="m289.883 128.396c1.026 0 1.857-1.816 1.857-4.056s-.831-4.056-1.857-4.056c-1.025 0-1.857 1.816-1.857 4.056s.832 4.056 1.857 4.056z"/><path d="m277.105 124.34h-86.033c-.736 0-1.333.597-1.333 1.333v.001c0 .736.597 1.333 1.333 1.333h86.033c.736 0 1.333-.597 1.333-1.333v-.001c0-.736-.597-1.333-1.333-1.333z"/></g><path d="m183.806 122.576h23.032v-7.153h-23.032z" fill="#ea4747"/><path d="m183.806 122.576h7.153v-7.153h-7.153z" fill="#ffb942"/><path d="m278.438 106.757h-89.662v8.666h89.662z" fill="#0f515d"/><path d="m278.438 12.215h36.822c.878 0 1.721.349 2.342.9701s.97 1.4635.97 2.3419v85.667c0 .878-.349 1.721-.97 2.342s-1.464.97-2.342.97h-36.822z" fill="#00997f"/><path d="m155.191 111.051 23.302-4.167v-94.542l-23.302-6.04099z" fill="#017c6a"/><path d="m152.024 111.051h3.167v-104.74997h-3.167z" fill="#00baa3"/><path d="m278.438 12.215h-99.945v94.542h99.945z" fill="#00baa3"/><path d="m274.823 15.506h-92.715v84.417h92.715z" fill="#069183"/><path d="m215.586 15.506h-33.478v84.205h33.478z" fill="#017c6a"/><path d="m274.822 36.006h-29.083v45.906h29.083z" fill="#00685b"/><path d="m245.739 43.34h-26.63v38.182h26.63z" fill="#00685b"/><path d="m219.11 36.006h-28.52v63.917h28.52z" fill="#00685b"/><path d="m240.821 75.757h-34.002v24.166h34.002z" fill="#ea911b"/><path d="m212.573 91.09h-44.344l-3.25-24.084h44.344z" fill="#e08d14"/><path d="m212.573 91.09 16.323-10.311-3.25-24.084-16.323 10.311z" fill="#ffb942"/><path d="m216.976 68.062 3.597-2.271-.716-5.307-3.597 2.272z" fill="#ffedd4"/><path d="m225.667 56.695h-44.344l-16.344 10.311h44.344z" fill="#ffd392"/><path d="m172.808 62.069 3.596-2.272 43.453.687-3.597 2.272z" fill="#fff8f0"/><path d="m171.766 117.59-1.027 12.41h28l-1.75-14.577z" fill="#533a71"/><path d="m159.406 87.506s-2.083 4.917 3 6.167c1.39.3978 2.858.4383 4.268.1179 1.409-.3204 2.716-.9914 3.797-1.9509l-1.565-6.833z" fill="#fb919f"/><path d="m169.373 71.416-10.8 13.257s-2 5.5 3.167 7.167 7.61-.854 7.61-.854l2.416-6.229z" fill="#533a71"/><path d="m174.827 67.157v3.516h9.642v-3.283s1.937.215 2.529-.78.888-5.462.538-6.592c-.214-1.2904-.348-2.593-.4-3.9-.141-.673-5.576-.538-5.576-.538l-5.382 7.158z" fill="#fb919f"/><path d="m170.471 59.6 4.355 7.559c1.1.4196 2.282.5791 3.453.466.934.0422 1.868-.0918 2.753-.395l1.758-4.915c-.282-.4231-.437-.9176-.447-1.4258-.011-.5081.123-1.0087.387-1.4432l1.31-.768s.759 1.772 1.082 1.772-.179-1.184.466-1.973c.36-.3725.571-.8643.592-1.382l-12.79-1.237-2.92 3.588z" fill="#09373d"/><path d="m186.182 57.093 3.57-2.062c.304-.1683.545-.4305.688-.7475.142-.317.177-.6716.101-1.0105-.287-1.184-3.274-1.844-5.063-1.944l-1.789-.1z" fill="#ff6b6b"/><path d="m186.81 54.964c.09.4179.063.8525-.078 1.256s-.391.7602-.722 1.031c-1.777 1.456-5.732 4.159-10.611 4.165-5.7.006-5.6-3.659-5.6-3.659s-1.5-8.918 6.888-10.333c7.392-1.245 9.531 4.737 10.123 7.54z" fill="#533a71"/><path d="m171.813 59.407c.733.5253 1.609.8133 2.511.825 1.333.1242 2.677-.0162 3.956-.413 0 0-1.756-2.493-3.92-2.727-3.16-.341-2.547 2.315-2.547 2.315z" fill="#09373d"/><path d="m177.01 69.548c5.875.092 14.875 1.563 16.125 2.375s3.125 6.313 3.125 13.188 1.688 33.25 1.688 33.25c-4.757 3.047-10.363 4.492-16 4.125-8.937-.812-11-3.875-11-3.875s-.76-22.5-1.6-27.625-2.713-14.186-1.838-16.376 1.54-5.187 9.5-5.062z" fill="#ff6b6b"/><path d="m178.156 125.756 5.333 1.417.667 2.827h-3.75s0-1.744-2.25-4.244z" fill="#3e295b"/><path d="m207.885 87.11 2.125 1.563 11.875-3.667c.301-1.1054.787-2.1516 1.438-3.094.75-.74 1.5-2.24 1.938-2.49s1 .313 1 .688c-.247.8159-.56 1.6102-.937 2.375l.051.518 3.259-2.059c.161 1.8159-.23 3.6381-1.122 5.228-1.437 2.125-5.312 3.316-5.312 3.316s-8.187 6.747-12.062 7.372-7.625-2.889-7.625-2.889z" fill="#fb919f"/><path d="m193.609 72.372 15.714 14.885s-.25 4.667-3.833 6.5-4.26 1.833-4.26 1.833l-10.406-8.167s-6.58-5.769-3.962-12.333c1.477-3.7 3.781-3.873 5.147-3.576.602.1344 1.155.4312 1.6.858z" fill="#533a71"/><path d="m274.823 63.12h-34.002v36.803h34.002z" fill="#ffb942"/><path d="m261.509 63.12h-7.375v5.553h7.375z" fill="#ffedd4"/><path d="m261.509 94.158h-7.375v5.553h7.375z" fill="#ffedd4"/><path d="m227.507 94.264h-7.375v5.553h7.375z" fill="#ffedd4"/><path d="m278.438 115.423h-23.032v7.153h23.032z" fill="#ea4747"/><path d="m278.438 115.423h-7.153v7.153h7.153z" fill="#ffb942"/><path d="m248.406 115.423h-37v11.583h37z" fill="#0f515d"/><path d="m241.739 116.173h-25.479v6.403h25.479z" fill="#00baa3"/><path d="m280.073 115.423h-1.635v7.289h1.635z" fill="#ea911b"/><path d="m280.073 106.757h-1.635v8.666h1.635z" fill="#094047"/><path d="m314.073 104.506h-1.667v16.708h1.667z" fill="#0f515d"/><path d="m317.74 109.464h-16.18v3.396h16.18z" fill="#0f515d"/><path d="m317.74 116.464h-16.18v3.396h16.18z" fill="#0f515d"/><path d="m301.739 110.923-23.301-4.166v-94.542l23.301-6.042z" fill="#017c6a"/><path d="m304.906 6.173h-3.167v104.75h3.167z" fill="#00baa3"/><path d="m337.823 108.048h3.208c.575 0 1.126.228 1.532.635.407.406.635.957.635 1.532v14.625c0 .575-.228 1.126-.635 1.532-.406.407-.957.635-1.532.635h-3.208z" fill="#0f515d"/><path d="m340.7 96.935h.625v11.113h-.625c-.398 0-.779-.158-1.061-.439-.281-.282-.439-.663-.439-1.061v-8.113c0-.3978.158-.7794.439-1.0607.282-.2813.663-.4393 1.061-.4393z" fill="#ffedd4"/><path d="m323.323 37.3c-.796 0-1.559.3161-2.121.8787-.563.5626-.879 1.3257-.879 2.1213v25.1c0 .431.085.8577.25 1.2558s.407.7598.712 1.0643.667.5459 1.066.7105c.398.1645.825.2489 1.256.2484.393.0005.785.0232 1.175.068.243.0317.491.0114.726-.0596.235-.0711.452-.1912.637-.3525s.334-.36.437-.5831c.102-.223.156-.4653.158-.7108v-28.16c0-.4198-.167-.8225-.464-1.1193-.297-.2969-.699-.4637-1.119-.4637z" fill="#0f515d"/><path d="m332.362 39.649c-.128-.6623-.482-1.2593-1.003-1.6884-.52-.4291-1.174-.6634-1.848-.6626-.481 0-.942.1911-1.283.5313-.34.3402-.531.8016-.531 1.2827v27.626c.009.7623.207 1.5106.575 2.178.369.6674.897 1.2332 1.537 1.647 1.219.8141 2.265 1.8612 3.078 3.081l2.25 3.376c.175.2614.429.4598.725.5658s.618.114.919.0229.564-.2765.752-.5289c.187-.2524.289-.5584.289-.8728v-8.407z" fill="#0f515d"/><path d="m342.308 68.173h-3.235v-.75h3.235c.686 0 1.265-.858 1.265-1.875v-26c0-1.017-.579-1.875-1.265-1.875h-9.44v-.75h9.44c1.111 0 2.015 1.178 2.015 2.625v26c0 1.452-.904 2.625-2.015 2.625z" fill="#0f515d"/><path d="m345.604 44.298h-4.125c-.535 0-.969.4338-.969.969v13.687c0 .5352.434.969.969.969h4.125c.535 0 .969-.4338.969-.969v-13.687c0-.5352-.434-.969-.969-.969z" fill="#ffedd4"/><path d="m345.6 43.548h-4.125c-.456.0005-.893.1818-1.215.5041-.322.3222-.503.7592-.504 1.2149v13.687c.001.4557.182.8927.504 1.2149.322.3223.759.5036 1.215.5041h4.125c.456-.0005.893-.1818 1.215-.5041.322-.3222.504-.7592.504-1.2149v-13.687c0-.4557-.182-.8927-.504-1.2149-.322-.3223-.759-.5036-1.215-.5041zm.969 15.406c0 .2569-.102.5032-.284.6849s-.428.2838-.685.2841h-4.125c-.257-.0003-.503-.1024-.685-.2841-.181-.1817-.284-.428-.284-.6849v-13.687c0-.2569.103-.5032.284-.6849.182-.1817.428-.2838.685-.2841h4.125c.257.0003.503.1024.685.2841s.284.428.284.6849z" fill="#094047"/><path d="m333.292 38.236c.293 0 .531-.4338.531-.969s-.238-.969-.531-.969-.531.4338-.531.969.238.969.531.969z" fill="#0f515d"/><path d="m339.229 68.767c.293 0 .531-.4338.531-.969s-.238-.969-.531-.969-.531.4338-.531.969.238.969.531.969z" fill="#0f515d"/></g></svg>