<svg fill="none" height="32" viewBox="0 0 32 32" width="32" xmlns="http://www.w3.org/2000/svg"><path clip-rule="evenodd" d="m27.5445 27.0782c2.7595-2.875 4.4555-6.7785 4.4555-11.0782 0-8.83656-7.1634-16-16-16-8.83656 0-16 7.16344-16 16 0 8.8298 7.15242 15.989 15.9796 16h.0389c4.3074-.0049 8.2162-1.7119 11.0898-4.4845.1482-.143.2936-.2888.4362-.4373zm-1.1978-6.4715c.6275-1.4074.9764-2.9663.9764-4.6067 0-6.25356-5.0695-11.32308-11.3231-11.32308-6.25356 0-11.32308 5.06952-11.32308 11.32308 0 3.5957 1.67604 6.8 4.2895 8.8742l2.83458-3.5763c-1.6078-1.2261-2.64267-3.1448-2.64267-5.3014 0-3.7018 3.04927-6.70267 6.81077-6.70267 3.7616 0 6.8109 3.00087 6.8109 6.70267 0 .982-.2146 1.9146-.6001 2.755zm-10.3776-2.5844c1.2494 0 2.1339-.9772 2.1339-2.0258 0-1.0485-.8845-2.0257-2.1339-2.0257-1.2493 0-2.1338.9772-2.1338 2.0257 0 1.0486.8845 2.0258 2.1338 2.0258z" fill="#0078fa" fill-rule="evenodd"/></svg>