<svg fill="none" height="130" viewBox="0 0 350 130" width="350" xmlns="http://www.w3.org/2000/svg" xmlns:xlink="http://www.w3.org/1999/xlink"><clipPath id="a"><path d="m0 0h350v130h-350z"/></clipPath><g clip-path="url(#a)"><path d="m0 0h350v130h-350z" fill="#baa8c6"/><path d="m74.5 105.112c-66.5-3-70-33.4999-94.5-93.4999l-107-74 281-7.5c57.5-1.6667 170.8 14.6 164 93-8.5 97.9999-66 24-132 31s-45 53.9999-111.5 50.9999z" fill="#ede9f0"/><path d="m393.03 34.791c-5.164 34.4925-22.728 16.6705-69.892 37.4032-55.731 13.6996-34.111-16.0075-46.058-19.1363-41.204-13.9097-107.58-104.5578-18.266-115.9496 26.974-37.0629 78.886-45.2413 115.949-18.2669 37.063 26.9743 26.115 63.5315 18.267 115.9496z" fill="#faf9fb"/><path d="m307.617 67.3333c-3.949 1.9749-8.886 5.5954-13.165 13.1657-2.37 2.3698-4.279 3.6205-4.937 3.9496-5.267 3.6864-15.47 0-25.344 2.6332-13.692 5.2662-18.103-.7201-26.99-4.608-5.266-2.304-7.57 5.2662-4.279 7.2411l11.191 5.5954c6.583 2.304 3.866 6.2537 4.279 8.5577 1.843 10.269-4.937 24.247-8.558 29.952-2.962 4.937 5.145 7.899 7.241 4.279 2.897-5.003 7.79-13.934 9.875-17.774l9.874 17.444c2.896 5.267 9.874.532 7.899-2.962-1.426-2.523-4.542-8.097-5.595-10.203-1.317-2.633-.658-4.279 1.975-4.937 5.266.79 11.629-.11 14.153-.659l-2.633 16.787c-.659 4.937 7.241 5.266 8.228 1.316l2.633-15.14 2.633 15.14c.988 5.596 9.216 2.633 8.229-1.316l-2.633-14.812c-1.646-11.849 3.62-16.128 3.95-23.6979.987-2.9622 2.304-4.2788 3.291-5.5954 1.975-2.3039 1.975-2.3039 3.62-2.6331 5.596-.6583 7.728 1.1526 11.191.7197 3.464-.4329 4.521-2.304 5.266-3.3528.659-.926.988-1.3166.988-2.304-.329-2.9623-5.266-5.9245-7.57-7.8994 0-2.2425-3.072-5.5954-5.596-7.5702-2.633-1.9134-8.228-1.5565-9.216-1.3166z" fill="#f5cab3"/><path d="m327.705 80.4802-.008.0802c-1.646 2.6331-1.196 5.4396 0 6.5828l.45.4499c.283-.3296.507-.6527.703-.9359.057-.0815.111-.1597.163-.2337.044-.0612.086-.1201.127-.177.574-.8033.861-1.2049.861-2.127-.138-1.2371-1.079-2.4741-2.296-3.6393z" fill="#42342b"/><path d="m309.645 90.8674-14.914-10.8503c-.092.1589-.184.3195-.276.482-1.189 1.1888-2.262 2.0959-3.119 2.7464l15.533 11.3004c.519-.8888 1.055-1.5658 1.546-2.1856.181-.2286.356-.4495.522-.6704.27-.315.503-.5869.708-.8225z" fill="#ff4a3d"/><path d="m298.387 77.0197c-1.629-3.2115 2.114-7.5197 9.773-9.9557 3.453-.851 6.407.3212 6.841.6423-.326 2.8904-9.122 10.598-11.076 12.5249-1.955 1.9269-3.91 0-5.538-3.2115z" fill="#ddad82"/><path d="m320 78c0-.2626-.052-.5227-.152-.7654-.101-.2426-.248-.4631-.434-.6488s-.406-.333-.649-.4336c-.242-.1005-.502-.1522-.765-.1522s-.523.0517-.765.1522c-.243.1006-.463.2479-.649.4336s-.333.4062-.434.6488c-.1.2427-.152.5028-.152.7654h.792c0-.1586.031-.3157.092-.4622.061-.1466.15-.2797.262-.3919.112-.1121.245-.2011.392-.2618.146-.0607.303-.0919.462-.0919s.316.0312.462.0919c.147.0607.28.1497.392.2618.112.1122.201.2453.262.3919.061.1465.092.3036.092.4622z" fill="#42342b"/><path d="m297 83c-27.032-6.9599-88.078-27.7037-116-55" stroke="#ff4a3d" stroke-width="2"/></g></svg>