<svg fill="none" height="160" viewBox="0 0 413 160" width="413" xmlns="http://www.w3.org/2000/svg" xmlns:xlink="http://www.w3.org/1999/xlink"><clipPath id="a"><path d="m-486 0h922v160h-922z"/></clipPath><g clip-path="url(#a)"><path d="m261.533 58.2028s-.278 4.2039 0 4.6208 15.633 7.504 15.633 7.504z" fill="#ffa200"/><g fill="#c0fffc"><path d="m86.8613 99.7051-1.1584 1.0499.3671.565.4019.535.8048 1.06 1.1145-1.111-.7826-1.034-.3937-.515z"/><path d="m89.6335 103.444-1.0744 1.162c.5702.667 1.1627 1.319 1.7421 1.982l1.0214-1.218c-.5616-.647-1.1318-1.278-1.6886-1.925"/><path d="m92.6844 106.852-.9818 1.269 1.8792 1.813.9239-1.324z"/><path d="m80.2467 87.0817-1.3441.6976c.3449.8504.6634 1.7165 1.0305 2.5569l1.3176-.7643c-.358-.8199-.6677-1.6676-1.0035-2.4908"/><path d="m82.1524 91.484-1.2911.8199c.4024.8199.756 1.6709 1.2202 2.4458l1.2544-.8866c-.4511-.7538-.7961-1.5792-1.185-2.3791"/><path d="m84.3502 95.6858-1.2294.9322.6629 1.1873.7344 1.1306 1.1936-1.0033-.716-1.0956z"/><path d="m76.3866 73.0119-1.4459.3107.5263 2.756 1.4368-.3875z"/><path d="m77.3549 77.8051-1.4237.4435.6942 2.7048 1.4059-.5142z"/><path d="m78.6373 82.4869-1.3885.5703.8578 2.6392 1.362-.637z"/><path d="m74.1538 58.1884c-.0795.9361-.1149 1.8765-.1061 2.817l1.4725.0256c-.0081-.9132.0258-1.8263.1018-2.7354l-1.4682-.1067"/><path d="m75.5288 63.2104-1.4768.0356c.0087.4686-.0135.945.0222 1.4113l.0926 1.4064 1.4725-.1173-.0926-1.3652c-.0357-.4586-.0087-.9166-.0179-1.3702"/><path d="m75.7806 68.101-1.4676.1784c.0222.4686.0883.9322.1505 1.4007l.1766 1.3958 1.4594-.2546-.177-1.3552c-.0669-.452-.1141-.9077-.1414-1.3651"/><path d="m76.6874 43.3026c-.2605.8893-.5172 1.7881-.7382 2.6947l1.4151.4686c.2122-.876.4641-1.742.7164-2.608l-1.3928-.5559"/><path d="m75.4758 48.1674-.5525 2.7559 1.4455.3207.5399-2.6692z"/><path d="m74.6271 53.1189c-.1061.9322-.2697 1.8593-.3319 2.7971l1.4633.1734c.0617-.9122.2209-1.8082.3271-2.7154l-1.459-.2545"/><path d="m82.9085 29.9154c-.4999.7487-.9992 1.5008-1.4546 2.2873l1.2158.9577c.4375-.7537.9166-1.4724 1.3928-2.1906l-1.154-1.0561"/><path d="m80.3923 34.092c-.4111.8149-.827 1.6303-1.1985 2.4758l1.309.7843c.358-.8099.756-1.5942 1.1497-2.3791l-1.2602-.8816"/><path d="m78.3363 38.5667c-.3314.861-.6677 1.7231-.9596 2.603l1.3707.6215c.2832-.8511.606-1.6809.9287-2.5114z"/><path d="m93.2327 20.4653-1.1189.6064c-.3671.219-.7237.4536-1.0874.6826l.7294 1.4775 1.0258-.6421 1.0522-.5753-.6011-1.5486"/><path d="m89.3546 22.941-1.0084.8304c-.3314.278-.6455.5909-.9683.8811l.9374 1.314c.305-.2779.6017-.5703.9167-.8405l.9505-.7782-.8265-1.4057"/><path d="m85.9153 26.1299-.88 1.0006c-.2919.3335-.5573.6976-.84 1.0444l1.0966 1.1362c.2654-.3335.5216-.6776.8004-.9933l.8357-.945-1.0132-1.2379"/><path d="m103.804 18-.053 1.6965 1.154.0811 1.146.1734.229-1.6759c-.411-.0611-.82-.1322-1.233-.1884z"/><path d="m101.833 18.025-1.238.1122-1.2254.1935.2345 1.6759 1.1539-.1829 1.154-.1023z"/><path d="m97.455 18.7842-1.194.3719-1.1758.4536.495 1.5992 1.1053-.4225 1.1275-.3518z"/><path d="m115.977 23.7104-1.021 1.2279.8.9449c.261.3213.491.6776.738 1.0139l1.154-1.0561c-.269-.3669-.517-.7538-.804-1.1001l-.869-1.0344"/><path d="m112.382 20.6437-.716 1.4824.977.6826c.318.2446.619.5148.929.7693l.897-1.3446c-.185-.1528-.367-.3096-.55-.4652-.295.0739-.594.1406-.882.2462l-.26-1.0961-.395-.2741"/><path d="m108.244 18.7437-.376 1.6453 1.105.3719 1.075.4686.557-1.5692-1.163-.5091z"/><path d="m121.477 37.4645-1.472.0461-.027 1.299c-.008.4331-.088.8611-.128 1.2891l1.46.2546c.043-.4786.128-.9578.141-1.4364l.026-1.4519"/><path d="m120.715 32.3756-1.402.5197.301 1.2635c.102.423.141.861.217 1.289l1.454-.2651c-.084-.4736-.124-.9528-.239-1.4163l-.331-1.3897"/><path d="m118.82 27.7246-1.247.9066.575 1.1462c.19.3819.331.7898.5 1.1873l1.344-.7032c-.182-.428-.341-.876-.549-1.2884l-.623-1.2479"/><path d="m114.598 49.2324c-.631.4518-1.299.8307-1.994 1.1312l.508 1.5942c.792-.3385 1.552-.7702 2.268-1.2885l-.783-1.4363"/><path d="m117.582 46.1551c-.23.3413-.491.647-.734.9727-.265.3058-.544.5959-.814.8966l.96 1.2841c.305-.3335.619-.657.916-1.0033.275-.3619.571-.7132.827-1.0951l-1.154-1.0561"/><path d="m119.457 42.1358c-.133.3974-.235.8048-.389 1.1923-.172.3768-.301.7782-.5 1.1461l1.282.8338c.221-.4124.376-.866.571-1.304.172-.4447.296-.9122.447-1.3652l-1.411-.5042"/><path d="m102.695 45.9039-1.296.7999c.398.8636.879 1.6735 1.433 2.4146l1.105-1.1256c-.479-.6422-.895-1.3427-1.242-2.0889"/><path d="m105.206 49.3342-.875 1.3701c.695.5809 1.459 1.0457 2.267 1.3808l.504-1.5948c-.676-.2797-1.315-.669-1.897-1.1561"/><path d="m110.892 50.8721c-.411.0825-.829.1227-1.247.1201-.304 0-.608-.0183-.91-.0484l-.168 1.6859c.359.039.721.0612 1.082.0612.495.0028.99-.045 1.478-.1429z"/><path d="m101.28 31.6468c-.168.438-.323.8866-.482 1.3296-.129.4586-.274.9066-.389 1.3702l1.415.4736c.102-.423.239-.8305.354-1.2479.144-.4075.289-.8149.442-1.2174z"/><path d="m99.9686 36.5833c-.1235.9566-.1768 1.9235-.1592 2.8904l1.4766-.0306c-.016-.8689.03-1.7378.137-2.598l-1.4544-.2596"/><path d="m101.439 41.4838-1.459.2596c.08.4736.133.9528.247 1.4213l.16.7032.198.6876 1.393-.5559-.176-.6114-.142-.6315c-.106-.4124-.15-.8454-.221-1.2734"/><path d="m110.738 21.1172c-.38.1984-.765.3891-1.136.6009-.367.229-.748.433-1.097.6926l.752 1.4569c.318-.2346.668-.418.999-.6315.341-.1984.694-.3618 1.039-.5503l-.558-1.5692"/><path d="m106.856 23.6747c-.323.3058-.655.5959-.969.9122-.305.3257-.623.6315-.911.9783l1.039 1.2023c.265-.3157.557-.5959.836-.9016.292-.2851.592-.5558.893-.8338l-.889-1.3551"/><path d="m103.654 27.2455c-.256.3769-.504.7643-.751 1.1462-.226.4024-.465.7949-.676 1.2073l1.26.876c.193-.3768.416-.7387.624-1.1056.23-.3563.455-.7081.689-1.0561l-1.145-1.0695"/><path d="m121.5 20.2513-.341 1.6503c.744.2057 1.475.4677 2.189.7843l.535-1.5792c-.776-.3488-1.573-.6349-2.383-.856"/><path d="m117.289 19.6676c-.075 0-.151 0-.226 0l.013 1.7015h.235c.687.0043 1.373.0544 2.056.1501l.185-1.6859c-.751-.1042-1.506-.1598-2.263-.1668"/><path d="m115.102 19.8132c-.411.0761-.827.1323-1.238.229-.403.1112-.82.1884-1.216.3335l.129.5442.26 1.0961c.289-.105.587-.1717.882-.2462.076-.0195.152-.0389.227-.0595.376-.0867.756-.1373 1.132-.209l-.177-1.6859"/><path d="m132.245 28.9421-1.215.9527c.439.7326.838 1.4966 1.194 2.2874l1.302-.7899c-.383-.8467-.811-1.665-1.282-2.4502"/><path d="m129.343 25.045-.999 1.2529.831.9121c.261.3208.5.6671.752 1.0034l1.132-1.0901c-.274-.3618-.531-.7337-.814-1.085z"/><path d="m125.713 22.07-.689 1.5008c.674.4086 1.323.8717 1.941 1.3858l.871-1.3702c-.677-.5608-1.386-1.068-2.123-1.518"/><path d="m136.825 43.1853-1.451.3213c.145.9066.301 1.8082.42 2.7203l1.455-.2751c-.124-.9222-.283-1.8443-.424-2.7665z"/><path d="m135.834 38.2543-1.419.4586c.19.8865.411 1.7576.575 2.6592l1.437-.3769c-.164-.9172-.398-1.8238-.593-2.7409"/><path d="m134.384 33.4656-1.351.6726c.172.3974.283.8337.429 1.2534.137.428.289.8405.406 1.2735l1.399-.5453c-.124-.448-.283-.8866-.424-1.3296-.155-.4447-.27-.8966-.456-1.3246"/><path d="m138.849 58.0654-1.45.2958c.133.9271.305 1.8543.477 2.7792l1.442-.3563c-.168-.9016-.341-1.8032-.469-2.7203"/><path d="m138.18 53.1345-1.46.2445c.111.9222.235 1.8494.363 2.7765l1.455-.2651c-.129-.9168-.248-1.8354-.358-2.7559z"/><path d="m137.554 48.188-1.459.2496.349 2.7609 1.459-.2446z"/><path d="m142.453 72.3698-1.362.647c.16.438.305.8761.473 1.3141l.517 1.284 1.336-.7132-.504-1.2534c-.16-.423-.305-.856-.46-1.2785"/><path d="m140.941 67.7191-1.399.5297c.261.8966.549 1.7832.82 2.6742l1.38-.5959c-.265-.871-.549-1.737-.805-2.608"/><path d="m139.756 62.9609-1.433.4124c.221.9122.394 1.8388.646 2.7354l1.415-.4786c-.248-.876-.416-1.7826-.627-2.6681"/><path d="m148.7 85.3958-1.198.9828.712 1.1617.765 1.1156 1.159-1.0444-.739-1.0901z"/><path d="m146.331 81.2491-1.265.8761c.42.8149.885 1.5997 1.322 2.3996l1.229-.9372c-.428-.7782-.88-1.5436-1.286-2.3385"/><path d="m144.259 76.914-1.314.7643c.386.8338.738 1.6909 1.15 2.5114l1.287-.8255c-.403-.7999-.748-1.6353-1.123-2.4502z"/><path d="m157.407 96.3683-.955 1.2941.941.9221c.319.3008.65.5809.978.8711l.897-1.3446c-.313-.2852-.637-.5559-.946-.8455l-.917-.8966"/><path d="m154.245 93.0009-1.047 1.1973c.57.6826 1.189 1.3141 1.781 1.9716l.999-1.2479c-.579-.642-1.18-1.2529-1.733-1.9204"/><path d="m151.354 89.3484-1.128 1.095c.544.7082 1.066 1.4414 1.627 2.1345l1.084-1.1512c-.544-.6726-1.053-1.3857-1.583-2.0783z"/><path d="m168.239 104.402-.623 1.539c.747.402 1.495.81 2.263 1.146l.558-1.574c-.748-.326-1.473-.718-2.198-1.112"/><path d="m164.428 102.115-.743 1.467c.699.504 1.448.906 2.171 1.365l.676-1.508c-.703-.448-1.428-.834-2.105-1.325"/><path d="m160.82 99.4405-.854 1.3855c.686.53 1.357 1.085 2.052 1.594l.791-1.431c-.675-.5-1.326-1.0338-1.989-1.5485z"/><path d="m180.536 108.849-.252 1.676c.82.153 1.627.333 2.449.412l.173-1.686c-.796-.081-1.583-.254-2.37-.402"/><path d="m176.331 107.794-.376 1.646c.787.275 1.601.438 2.406.657l.305-1.661c-.778-.214-1.57-.367-2.335-.642"/><path d="m172.241 106.323-.504 1.599 2.343.912.434-1.625z"/><path d="m195.772 108.91c-.782.194-1.578.27-2.37.393l.168 1.685c.82-.127 1.641-.203 2.454-.402z"/><path d="m191.51 109.501c-.724.046-1.441.125-2.163.125-.078 0-.156-.001-.234-.003l.027 1.702c.076.002.153.002.229 0 .747 0 1.496-.084 2.242-.13l-.101-1.697"/><path d="m184.829 109.486-.115 1.691 2.472.153.04-1.696z"/><path d="m207.927 104.132c-.69.469-1.432.81-2.149 1.217l.615 1.544c.743-.418 1.512-.774 2.224-1.264l-.689-1.497"/><path d="m204.035 106.214c-.747.334-1.477.698-2.246.953l.469 1.615c.796-.27 1.557-.647 2.326-.994z"/><path d="m199.995 107.825-2.326.673.318 1.66 2.406-.698z"/><path d="m218.212 95.2527c-.268.342-.551.6667-.849.9728l-.876.945.995 1.2534.907-.9783c.305-.3213.601-.647.88-1.0033l-1.057-1.1873"/><path d="m215.055 98.6046-.924.881c-.305.2957-.641.5454-.96.8254l.88 1.365c.327-.29.676-.55.991-.856l.954-.912-.941-1.304"/><path d="m211.637 101.575-2.021 1.482.752 1.462 2.095-1.533z"/><path d="m225.605 83.1589c-.155.423-.354.8255-.54 1.2279l-.566 1.2173 1.283.8255.588-1.2585c.206-.4145.394-.8412.561-1.2784z"/><path d="m223.527 87.4819-.637 1.1673c-.221.3891-.465.7487-.694 1.1256l1.198.9883c.239-.3924.491-.7693.721-1.1673l.659-1.2123z"/><path d="m221.066 91.5135c-.508.7082-1.008 1.4263-1.53 2.1195l1.101 1.1306c.54-.7226 1.057-1.4669 1.588-2.1956l-1.158-1.0562"/><path d="m229.146 68.9164c-.124.9166-.252 1.8343-.398 2.7404l1.45.3057c.145-.9322.278-1.8594.407-2.7793l-1.459-.2646"/><path d="m228.381 73.8118-.269 1.3446-.327 1.3246 1.419.4636.34-1.3808.279-1.3907z"/><path d="m227.236 78.5543c-.283.861-.535 1.732-.84 2.5825l1.362.652c.314-.8866.584-1.7932.875-2.6848l-1.399-.5503"/><path d="m232.25 54.1733c-.345.8712-.65 1.756-.917 2.6542l1.4.5503c.248-.8488.534-1.682.857-2.4963l-1.339-.7082"/><path d="m230.763 58.9877c-.212.9116-.398 1.8343-.561 2.7559l1.441.3413c.164-.8966.341-1.7832.544-2.6542l-1.424-.4447"/><path d="m229.847 63.9236c-.142.9221-.27 1.8443-.393 2.7659l1.454.2652c.124-.9222.252-1.8344.389-2.741z"/><path d="m241.239 43.0785-1.07.7282-1.017.8204.862 1.3752.955-.7638 1-.6826z"/><path d="m237.604 46.028c-.318.3007-.605.652-.911.9727l-.446.4942c-.145.1734-.279.3513-.42.5297l1.083 1.1512c.133-.1629.257-.3363.389-.4942l.42-.4586c.29-.3057.549-.6314.849-.9121l-.965-1.2835"/><path d="m234.571 49.7566c-.504.7573-.971 1.5463-1.399 2.3635l1.269.861c.397-.7592.831-1.4922 1.299-2.1956l-1.171-1.0289"/><path d="m251.612 39.6855.04 1.7015h1.154c.386.01.765.0717 1.145.1073l.151-1.6915c-.416-.0355-.827-.1017-1.243-.1111l-1.246-.005"/><path d="m249.644 39.8385c-.821.1266-1.635.3017-2.441.5247l.341 1.6504c.751-.2087 1.511-.372 2.277-.4892l-.176-1.6859"/><path d="m245.324 40.9796-.592.219-.575.2701c-.38.1835-.77.3513-1.145.5503l.615 1.5436c.353-.1884.716-.3413 1.074-.5147l.535-.2546.553-.204-.465-1.6119"/><path d="m264.173 44.2448-.853 1.3813c.627.5246 1.23 1.0857 1.808 1.6809l.978-1.2685c-.617-.6366-1.262-1.2351-1.933-1.7932"/><path d="m260.309 41.7133-.597 1.5564c.706.3605 1.395.7635 2.065 1.2073l.743-1.4619c-.717-.4784-1.455-.912-2.211-1.2991"/><path d="m256.087 40.1441-.297 1.6676c.378.0807.751.1844 1.119.3107.374.1017.743.2292 1.105.3819l.469-1.612c-.389-.1636-.786-.3013-1.189-.4125-.403-.1067-.796-.2701-1.207-.3335"/><path d="m272.23 56.2674-1.384.5858c.128.4175.234.8455.354 1.2685.122.4194.219.8483.289 1.2835l1.437-.3891c-.078-.4701-.184-.9332-.319-1.3858-.128-.4536-.241-.9121-.38-1.3652"/><path d="m270.253 51.672-1.247.9066c.2.3819.407.7537.598 1.1412l.521 1.1917 1.331-.7337-.561-1.2785c-.204-.4124-.429-.8149-.642-1.2279"/><path d="m267.543 47.6377-1.071 1.1673c.272.3177.529.6516.77 1.0005.241.3463.513.6671.729 1.0395l1.177-1.0239c-.23-.3974-.522-.7387-.779-1.1117-.265-.3669-.53-.7337-.826-1.0695"/></g><path d="m106.908 97.6462c2.694 3.8558 4.979 7.9808 6.819 12.3098 2.686 6.58 20.815 34.435 20.815 34.435s6.043 9.21 0 15.79c-6.044 6.58-15.206.023-17.996-3.626-2.789-3.649-6.177-10.339-6.177-10.339z" fill="#aaf7f1"/><path d="m63.6352 208.124c0-4.476 0-34.558-1.2535-41.899-1.2534-7.341-6.4479-21.129-6.1477-24.889.3001-3.761 6.1477-21.129 6.1477-21.129l-20.9496 23.994s5.9088 10.923 6.9832 18.621c1.0745 7.699-2.1489 46.197-.5369 49.42s7.8787 7.699 19.1592 8.415c3.1383.2 8.7725-.53 15.2693-1.687-8.3656.283-18.6717-6.37-18.6717-10.846z" fill="#aaf7f1"/><path d="m109.474 119.849c-.896-10.564.239-19.158-2.566-22.2028-2.805-3.0444-22.5021-9.9654-22.5021-9.9654l-20.4149-5.0688-2.7982 2.3229-2.7498 4.7003s-20.4127 6.2206-23.098 8.9065c-2.6853 2.6863-40.46623 48.3453-20.5916 59.6253 14.2299 8.077 26.681-13.966 26.681-13.966l20.9496-23.994s-5.8492 17.368-6.1477 21.129c-.2985 3.76 4.8943 17.548 6.1477 24.889 1.2535 7.341 1.2535 37.423 1.2535 41.899s10.3061 11.129 18.6711 10.846c12.3445-2.197 27.8054-5.937 35.1974-7.782 2.459-.611 4.582-3.118 3.694-5.492-7.071-18.88-10.958-76.783-11.726-85.847z" fill="#e9fffe"/><path d="m64.7981 78-1.1628 6.6425s7.4534 12.0865 18.7323 14.7051c0 0 3.155-3.7642 3.2895-10.6112.1345-6.8471-13.6974-17.0531-13.6974-17.0531l-6.0432 3.7603z" fill="#c76f80"/><path d="m98.7957 56.8214s6.5663.204 7.9483-12.6012c1.383-12.8053-6.573-13.1365-9.1411-12.8125-2.5686.3241-2.6881 2.4758-9.3695.0979-6.6814-2.378-19.112-7.8648-26.3781 1.3229s-5.7153 20.9001-4.8915 23.1925c.8237 2.2923 7.3106 18.7473 7.5713 20.3632l.2607 1.6158z" fill="#00393f"/><path d="m101.99 47.8277-3.5459 24.8895c-.1937 1.3583-.5728 2.6836-1.1267 3.9388-1.8715 4.2473-6.7041 13.0721-14.2371 12.1416-.63-.0778-1.2527-.1803-1.8682-.3074-9.1444-1.8721-13.8347-9.2161-16.2388-18.2354 0 0-6.0143-3.6431-2.8721-9.3839 3.1423-5.7409 5.5725 2.2973 7.0038 3.1077 1.4313.8105 2.5047-1.3562 2.8149-3.8654.3101-2.5091 4.459-4.5118 5.096-6.2767l.637-1.7648s7.1083 2.9132 12.0065-1.1846c4.8982-4.0977 4.588-5.9281 6.6147-6.4573 2.0266-.5292 5.7159 3.3979 5.7159 3.3979z" fill="#fc919f"/><path d="m89.598 79.0456-9.2772-.846c.1964 1.2283.7862 2.3596 1.6809 3.2238s2.0458 1.4145 3.2801 1.5682c4.3162.5764 4.3162-3.946 4.3162-3.946z" fill="#fff"/><path d="m58.4424 89.6352s4.2979 10.2494 8.9081 14.8148l4.6103 4.566 10.4078-9.6689 10.2733 7.2519-9.5351-2.149-11.146 10.339c-6.9535-6.819-11.6683-15.5919-13.5184-25.1538z" fill="#aaf7f1"/><path d="m69.4326 116.963 4.1167-3.172s3.0511-2.764 4.2701-2.845c1.2189-.082 1.8721.734 1.5008 2.006-.3713 1.273-5.2473 5.507-5.2473 5.507l-2.7848 2.246z" fill="#c76f80"/><path d="m60.6296 130.526s6.9627-4.639 8.996-5.913c2.0333-1.273 4.4468-6.154 4.4468-6.154s-1.8171.259-2.249.044-.8087-1.445-.8087-1.445l-1.537-2.873-2.6014 2.171z" fill="#fc919f"/><path d="m68.4015 103.161 4.8298-2.475 5.8754.236 4.1523 1.986c.1657.079.3142.19.4368.327.1227.137.2171.297.2778.47.0608.173.0867.357.0762.541-.0105.183-.0571.363-.1371.528-.1449.299-.3917.536-.6961.67-.3044.133-.6464.153-.9643.056l-3.2323-.981-3.289.274-1.418 2.143-.5441 5.941-1.8249-2.022-.5837.559-.4013 5.287s-.5269-.517-2.1345-.171c-1.6075.345-1.6453 5.428-2.6925 7.566-1.0473 2.139-3.8871 4.318-3.8871 4.318l.8338-13.724-.6476-5.777 1.5353-3.177z" fill="#c76f80"/><path d="m50.7686 124.715 4.5518-2.732 5.4091-12.836 2.9905-4.105 7.9976-3.214c.4331-.174.9053-.226 1.3661-.152.4607.074.8926.272 1.2492.573l4.0233 3.396 1.926 6.343c.0942.31.0743.644-.0559.941-.1303.297-.3624.538-.6545.679-.1749.084-.3658.13-.5599.134-.1942.005-.387-.032-.5656-.109-.1786-.076-.3387-.19-.4697-.333s-.2298-.313-.2897-.498l-1.3007-4.015-2.18-2.633-8.9343-.313 9.0393 1.096 2.4325 4.944.3251 4.776c.025.367-.0905.73-.3232 1.015s-.565.471-.9297.52c-.1923.026-.3878.012-.5749-.039-.1872-.051-.3622-.139-.5146-.259s-.2791-.27-.3727-.44-.152-.357-.172-.55l-.4146-4.026-1.652-2.917-8.0477-1.287 7.1905 1.89 2.4286 4.574-.074 1.615c-.0159.348-.1678.676-.423.913-.2553.237-.5934.364-.9416.354-.3442-.009-.6712-.152-.9121-.398s-.3768-.576-.3792-.921l-.0066-1.042-2.1195-2.124-3.1256-.083-.697 3.65-.5003 4.803c-.3357 3.215-1.6946 6.236-3.8765 8.621l-3.9438 2.299z" fill="#fc919f"/><path d="m50.7687 124.715s-12.8186 6.808-18.2221 8.664c-5.4034 1.857-25.29137 4.571-21.2575 18.098 4.0338 13.527 18.0486 5.086 21.8567 2.968 3.8082-2.119 23.5411-21.62 23.5411-21.62z" fill="#fc919f"/><path d="m133.087 140.741c-2.828.949-5.847 1.501-8.357 3.113-1.826 1.219-3.328 2.866-4.375 4.796-.068.335-.114.673-.138 1.014-.179 3.312.895 9.221 5.475 11.638 2.13 1.124 4.306 1.635 6.582.707 2.042-.869 3.761-2.355 4.915-4.25 1.653-2.668 2.223-5.897 2.153-9.036-.079-3.558-1.061-6.98-1.495-10.482-1.42 1.118-3.034 1.965-4.76 2.5z" fill="#fc919f"/><path d="m124.73 143.852c2.51-1.612 5.529-2.162 8.357-3.113 1.727-.535 3.34-1.383 4.761-2.501-.049-.399-.097-.797-.13-1.198-.165-2.241-.119-4.493.136-6.726l-12.323 1.501-.717 3.261c-.652 2.968-3.767 9.853-4.459 13.567 1.048-1.929 2.55-3.573 4.375-4.791z" fill="#c76f80"/><path d="m117.917 135.397-1.45-1.159c-.756-.604-1.017-1.784-.577-3.173l1.45 1.159c-.441 1.39-.179 2.571.577 3.173z" fill="#00515e"/><path d="m140.543 100.166 1.45 1.158c-.418-.319-.94-.471-1.464-.428l-1.447-1.1582c.523-.0429 1.043.1096 1.461.4282z" fill="#00515e"/><path d="m126.804 105.177c.176.134.395.198.616.18l1.449 1.158c-.22.019-.44-.045-.616-.18z" fill="#00515e"/><path d="m129.281 103.709c.1-.22.13-.466.086-.704-.043-.239-.158-.458-.329-.63l1.45 1.159c.171.171.286.391.329.629.044.238.013.484-.086.705-.127.42-.369.797-.697 1.088-.329.291-.733.485-1.165.559l-1.45-1.158c.433-.075.836-.268 1.165-.559s.57-.668.697-1.089z" fill="#00515e"/><path d="m129.038 102.379 1.45 1.158c-.176-.134-.395-.198-.616-.18l-1.45-1.158c.221-.019.44.045.616.18z" fill="#00515e"/><path d="m129.872 103.354c.749-.036 1.137.639.859 1.514-.127.42-.368.797-.697 1.088s-.732.485-1.165.559c-.753.038-1.135-.643-.859-1.513.126-.421.367-.798.696-1.09.329-.291.733-.484 1.166-.558z" fill="#65c8d0"/><path d="m128.253 106.335-1.449-1.158c-.171-.172-.286-.391-.329-.629-.044-.239-.014-.484.086-.705.126-.421.367-.798.696-1.09.329-.291.733-.484 1.166-.558l1.45 1.159c-.434.073-.838.267-1.167.558s-.57.668-.696 1.089c-.099.221-.129.467-.086.705.044.238.158.458.329.629z" fill="#00515e"/><path d="m130.31 101.399-1.45-1.159 10.219-.5021 1.45 1.1581z" fill="#00515e"/><path d="m117.34 132.226-1.449-1.158 8.538-26.907 1.45 1.158z" fill="#00515e"/><path d="m140.527 100.896c1.786-.088 2.7 1.524 2.04 3.602l-8.538 26.907c-.66 2.078-2.642 3.832-4.428 3.92l-10.219.5c-1.789.088-2.704-1.523-2.044-3.602l8.539-26.907c.659-2.078 2.642-3.832 4.431-3.92zm-11.66 5.619c.432-.074.836-.268 1.165-.559.328-.291.57-.668.697-1.088.278-.875-.111-1.55-.859-1.514-.433.074-.837.267-1.166.558-.329.292-.57.669-.696 1.09-.278.87.106 1.55.859 1.513z" fill="#036a75"/><path d="m125.879 105.319-1.45-1.158c.66-2.079 2.642-3.832 4.431-3.921l1.45 1.159c-1.79.09-3.772 1.841-4.431 3.92z" fill="#00515e"/><path d="m143.449 119.522c-.077.602-.345 1.163-.766 1.601-.42.439-.97.73-1.568.832l-.99.159c.368.111.707.3.996.553.288.253.52.564.678.914.159.349.241.729.242 1.113 0 .384-.082.763-.24 1.113l-3.655 8.136c-.461 1.029-1.267 1.864-2.279 2.361-1.011.497-2.165.626-3.261.363l-5.412-1.294c-.549-.13-1.033-.452-1.365-.908-.331-.456-.488-1.016-.442-1.578s.292-1.089.694-1.485c.401-.396.932-.634 1.494-.672l1.314-.087-.714-.278c-.479-.185-.877-.533-1.124-.983-.246-.451-.326-.973-.224-1.477.102-.503.378-.954.78-1.273s.904-.486 1.417-.47l1.294.039-.105-.044c-.57-.219-1.041-.638-1.326-1.178-.285-.541-.364-1.166-.224-1.76.141-.595.493-1.118.989-1.473.497-.355 1.106-.518 1.714-.459l6.092.586-4.96-1.58c-.659-.211-1.213-.664-1.55-1.269-.336-.605-.43-1.315-.261-1.986s.587-1.253 1.17-1.627c.582-.373 1.285-.511 1.965-.384l7.367 1.37c.702.139 1.325.539 1.745 1.12.419.58.604 1.298.516 2.008z" fill="#fc919f"/><path d="m259.264 121.555-.992-6.392 13.221 5.697.483 5.976 1.462 8.893 5.559-7.272 12.229 12.553v11.118h-6.333l-11.227 12.318z" fill="#c76f80"/><path d="m396.282 96.4027s-2.849-2.2234-4.898-2.2929-3.578 1.0078-4.968 2.2929c-1.389 1.2852-2.918 1.7371-2.987 2.7793-.07 1.042.972 1.737 1.841 1.772s2.988-.9727 2.988-.9727l8.025-1.5008z" fill="#c76f80"/><path d="m389.565 99.2282 2.594-2.3624 3.66 1.1812 3.057 2.849 1.204 1.621.602 4.493-1.621 8.245-4.234 5.996s-1.093-3.541-2.946-5.903c-1.201-1.485-2.66-2.741-4.308-3.706 0 0 3.242-1.158 3.474-4.308s-1.853-3.752-1.853-3.752z" fill="#c76f80"/><path d="m375.441 147.681s1.942 8.616 2.776 9.727c.834 1.112 1.829 1.251 1.123 1.807s-10.017 16.815-10.017 16.815l-3.895-12.924 2.089-11.951z" fill="#c76f80"/><path d="m353.342 146.708 9.45 26.542s3.409 10.074 11.673 10.144c7.921.067 11.673-2.501 16.953-13.757 5.281-11.257 9.589-21.54 9.589-31.684v-17.093l-10.978.695s1.667 3.381 1.25 6.902-4.724 15.328-10.422 23.043c-5.697 7.714-9.866 12.995-10.7 17.442l-.834 4.447s-1.945-9.45.278-15.703c1.282-3.681 3.265-7.079 5.84-10.006l-3.617-18.204-17.787 17.093z" fill="#fca9b7"/><path d="m349.13 155.296c-3.339 2.451-8.049 5.246-13.066 6.13-9.542 1.68-24.828-6.533-34.555-7.707-9.728-1.174-12.229.707-10.561 2.685 1.667 1.978 24.535 9.037 31.305 14.679 6.771 5.642 15.247 18.982 15.873 33.713.222 4.46-1.091 8.861-3.719 12.471 13.433-3.539 21.854-8.441 21.854-8.441s-13.619-27.098-12.924-39.605c.265-5.171 2.312-10.092 5.793-13.925z" fill="#ec5050"/><path d="m338.126 204.794c-.625-14.73-9.102-28.07-15.873-33.712-6.77-5.642-29.638-12.701-31.305-14.679-1.668-1.978.833-3.859 10.561-2.685 9.727 1.174 25.013 9.387 34.555 7.707 5.017-.884 9.727-3.679 13.066-6.13 1.419-1.619 3.073-3.015 4.907-4.141l21.401-13.479s.602-27.839-14.36-26.079c-14.961 1.76-38.863-8.383-38.863-8.383l-13.085.951c-4.325-.173-8.609.895-12.346 3.078-5.975 3.614-21.956 21.216-21.956 21.216l9.449 12.275c-.006 6.198.553 12.385 1.668 18.482 1.361 7.383 2.105 14.867 2.223 22.373.139 4.864-3.057 32.101-3.057 32.101s9.033 8.893 32.101 6.67c5.805-.567 11.556-1.601 17.195-3.092 2.628-3.611 3.941-8.012 3.719-12.473z" fill="#fc6060"/><path d="m322.215 103.212s-15.148 14.314-3.058 19.177c12.09 4.864 25.619-6.114 25.619-6.114l12.874-13.063-4.169-16.1193-26.472-.6948z" fill="#fca9b7"/><path d="m327.009 101.267s2.154 3.057 7.643 3.266c5.489.208 14.591-7.9213 14.591-7.9213v-6.2534l-21.47 1.3202z" fill="#c76f80"/><path d="m370.898 44.3374c-6.485-4.1689-9.079-2.0383-9.079-2.0383s-2.964-6.6702-12.599-8.245c-9.636-1.5747-45.21 20.3816-45.951 42.245-.742 21.8635 5.861 27.8649 5.861 27.8649l4.7.484 6.784.729s6.557 1.401 7.668-3.046c1.112-4.4464 0-9.1711 0-9.1711l20.126 1.2334c-.599 3.7009-.7 7.4657-.3 11.1937 0 0-3.52 8.973-7.875 12.864-2.593 2.327-5.658 4.066-8.986 5.096 0 0 2.964.926 11.395-2.965 0 0-4.632 6.3-9.079 7.875 0 0 13.525-1.019 27.515-16.861 13.989-15.8414 18.065-34.9256 18.25-42.5225.185-7.5968-1.945-20.5671-8.43-24.7361zm-59.279 56.4406c-2.612-5.6035-3.945-11.7183-3.901-17.9009 0-13.6185 7.782-17.3243 7.782-17.3243s-8.556 9.3667-3.881 35.2252z" fill="#634132"/><path d="m351.628 47.8171-27.422 16.2793s-.185 15.1676 0 20.7262c.185 5.5585 3.706 11.4878 8.153 13.5256s8.338.9266 11.302-.741c2.458-1.5061 4.81-3.1775 7.041-5.0027l5.373-6.2995s8.338-6.4785 9.265-12.0403c.927-5.5619-5.744-.9094-5.744-.9094s-12.971-12.146-7.968-25.5382z" fill="#fca9b7"/><path d="m397.857 97.2365c-1.714-1.5747-7.087-2.0844-8.245-1.6676-1.158.4169-2.825 4.7251-3.381 6.0221-.556 1.296-.602 3.057.509 3.891.114.108.25.191.399.243s.307.071.464.057.309-.062.445-.14c.137-.079.256-.185.348-.313-.062.528-.058 1.061.012 1.588.324 2.409 3.706 7.689 4.401 8.384.694.695 1.667.417 2.192-.834.525-1.25 0-3.474 0-3.474s2.393 1.112 2.393 1.946-1.389 4.169-2.084 6.114c-.695 1.946 0 4.578 0 4.578l5.698-2.771s2.408-5.605 2.779-9.079-4.216-12.9698-5.93-14.5445zm-3.03 2.9875c-2.227-.48-2.853-.069-4.211 1.299.636-1.7368 1.744-2.7935 2.921-2.6534 1.946.2318 5.987 3.2314 5.987 3.2314-1.473-.836-3.053-1.468-4.696-1.877z" fill="#fca9b7"/><path d="m390.029 121.556s-4.123-3.196-4.957-5.744c-.834-2.547-1.668-4.91-1.668-4.91s-1.574-3.937-2.825-4.91c-1.251-.972.834-3.242 2.964-1.852 2.131 1.389 2.363 3.15 2.687 3.937s2.612 2.881 2.612 2.881 3.411 2.909 4.476 5.318c1.065 2.408 2.177 5.28 2.177 5.28z" fill="#fca9b7"/><path d="m391.557 106.165s2.189-1.633 3.579-1.668 3.857.834 3.857.834-1.599-1.216-2.571-1.424c-.499-.127-1.019-.149-1.527-.066-.509.084-.994.272-1.426.552-.694.526-1.335 1.119-1.912 1.772z" fill="#c76f80"/><path d="m266.49 166.302c10.172 2.274 12.229-11.534 10.283-21.261-1.255-6.154-2.857-12.232-4.797-18.205 0 0-5.486.834-9.099-2.223l-3.613-3.057s.278 5.141 0 16.258c-.278 11.118-4.586 25.847 7.226 28.488z" fill="#fca9b7"/><path d="m277.44 120.933 1.45-1.158c.756-.604 1.017-1.785.577-3.173l-1.45 1.158c.441 1.389.179 2.57-.577 3.173z" fill="#00515e"/><path d="m254.814 85.703-1.449 1.1562c.418-.319.94-.4715 1.464-.428l1.449-1.1584c-.524-.043-1.046.1103-1.464.4302z" fill="#00515e"/><path d="m268.553 90.7119c-.176.1343-.395.1984-.616.1801l-1.449 1.1584c.22.0183.44-.0458.616-.1801z" fill="#00515e"/><path d="m266.076 89.2444c-.1-.2208-.13-.4666-.087-.7049.044-.2383.159-.4577.33-.6292l-1.45 1.1584c-.171.1715-.286.3909-.329.6292-.044.2383-.013.4841.086.7049.127.4204.369.7971.697 1.0881.329.291.733.4847 1.165.5594l1.45-1.1584c-.433-.0747-.836-.2684-1.165-.5594s-.57-.6677-.697-1.0881z" fill="#00515e"/><path d="m266.317 87.9115-1.45 1.1584c.176-.1342.395-.1984.616-.1801l1.45-1.1584c-.221-.0183-.44.0459-.616.1801z" fill="#00515e"/><path d="m265.483 88.8892c-.749-.0366-1.137.6387-.859 1.5136.127.4204.368.7972.697 1.0882.329.2909.732.4846 1.165.5594.753.0372 1.135-.6431.859-1.5136-.126-.4209-.367-.7982-.696-1.0894-.329-.2911-.733-.4844-1.166-.5582z" fill="#65c8d0"/><path d="m267.104 91.8702 1.449-1.1584c.171-.1715.286-.391.329-.6292.044-.2382.014-.484-.086-.7048-.126-.4209-.367-.7983-.696-1.0894s-.733-.4845-1.166-.5582l-1.45 1.1584c.433.0737.837.2671 1.166.5582s.571.6685.696 1.0894c.1.2208.13.4666.087.7048-.044.2382-.159.4577-.329.6292z" fill="#00515e"/><path d="m265.047 86.9337 1.45-1.1584-10.219-.5025-1.45 1.1584z" fill="#00515e"/><path d="m278.017 117.76 1.449-1.158-8.538-26.9068-1.45 1.159z" fill="#00515e"/><path d="m265.047 86.9337c1.789.0879 3.771 1.8416 4.431 3.9205l8.539 26.9068c.66 2.078-.255 3.69-2.044 3.602l-10.219-.5c-1.786-.088-3.769-1.842-4.428-3.92l-8.538-26.907c-.66-2.0784.254-3.6898 2.04-3.602zm1.441 5.1139c.753.0373 1.135-.6431.859-1.5136-.126-.4209-.367-.7982-.696-1.0894-.33-.2911-.733-.4844-1.167-.5581-.749-.0367-1.136.6386-.858 1.5136.127.4203.368.7971.697 1.0881s.732.4847 1.165.5594" fill="#036a75"/><path d="m269.478 90.8542 1.45-1.1584c-.66-2.0784-2.642-3.8321-4.431-3.9205l-1.45 1.1584c1.789.0879 3.771 1.8416 4.431 3.9205z" fill="#00515e"/><path d="m251.908 105.057c.077.602.346 1.163.766 1.601.42.439.97.73 1.568.832l.99.159c-.368.111-.707.3-.996.553-.288.253-.52.564-.678.914-.159.349-.241.729-.242 1.113 0 .384.082.763.24 1.113l3.655 8.136c.461 1.029 1.267 1.864 2.279 2.361 1.011.497 2.165.626 3.261.363l5.412-1.294c.549-.13 1.033-.452 1.365-.908.331-.456.488-1.016.442-1.578s-.292-1.089-.694-1.485c-.401-.396-.932-.634-1.494-.672l-1.314-.087.714-.278c.479-.185.877-.533 1.124-.983.246-.451.326-.973.224-1.477-.102-.503-.378-.954-.78-1.273s-.904-.486-1.417-.47l-1.294.039.105-.044c.57-.219 1.041-.638 1.326-1.178.285-.541.364-1.166.224-1.76-.141-.595-.493-1.118-.989-1.473-.497-.355-1.106-.518-1.714-.459l-6.092.586 4.96-1.58c.659-.211 1.213-.664 1.55-1.269.336-.605.43-1.315.261-1.986s-.587-1.253-1.17-1.627c-.582-.373-1.285-.511-1.965-.384l-7.367 1.37c-.702.139-1.325.539-1.745 1.12-.419.58-.604 1.298-.516 2.008z" fill="#fc919f"/><path d="m330.718 85.6964 11.719 1.3279s-1.194 4.6353-4.669 4.5725c-6.457-.1168-7.05-5.9004-7.05-5.9004z" fill="#fff"/><path d="m208.533 44.0829c-.358-.8626-.911-1.6306-1.615-2.2442s-1.541-1.056-2.444-1.2928c-.904-.2368-1.85-.2615-2.764-.0722-.915.1893-1.773.5874-2.508 1.1634-1.15-1.0699-2.662-1.6633-4.232-1.6603-.744.0249-1.475.1963-2.152.5044-.678.3081-1.287.7468-1.795 1.291-1.449-.5542-3.059-.5127-4.478.1156-.68.3296-1.287.7916-1.786 1.359-.499.5673-.88 1.2286-1.12 1.945-2.467.358-5.304 2.7731-5.498 5.2589-1.676.3171-3.167 1.2651-4.165 2.6487-1.004 1.3537-1.442 3.0448-1.223 4.7159-.867.4684-1.603 1.1458-2.143 1.9708-.539.8251-.864 1.7716-.945 2.7539-1.527.4258-2.801 1.796-3.487 3.224-.34.7189-.524 1.5012-.542 2.296-.017.7949.133 1.5845.441 2.3176-.736.3379-1.337.9119-1.708 1.6306s-.492 1.5409-.342 2.336c-1.589.7315-2.78 2.643-3.005 4.3773-.106.871.007 1.7546.327 2.5714.32.8169.838 1.5415 1.507 2.1089-.234.4971-.365 1.036-.387 1.5848-.021.5487.067 1.0963.261 1.6103.179.5022.46.962.825 1.3504.366.3883.808.6969 1.298.9063-.414 1.0552-.553 2.1984-.403 3.3219s.584 2.1903 1.26 3.1001c.676.9097 1.572 1.6324 2.605 2.0999 1.032.4676 2.167.6646 3.297.5725.214.8096.681 1.5296 1.333 2.055.652.525 1.455.829 2.292.865.248 2.58 2.868 4.524 5.392 5.108 2.524.583 5.163.066 7.682-.54 5.584 3.177 11.776 5.182 18.198 4.988 1.726.007 3.439-.292 5.061-.881 1.633-.602 2.975-1.807 3.749-3.367.797.254 1.643.32 2.47.193.828-.127 1.614-.444 2.299-.926.661-.468 1.201-1.087 1.574-1.806.372-.719.567-1.517.568-2.327.975-.383 1.761-1.133 2.188-2.0891.927.0449 1.848-.1657 2.663-.6088s1.492-1.1016 1.958-1.9037c.446-.8058.66-1.7194.619-2.6394-.042-.92-.337-1.8106-.854-2.5728 1.489-.7943 2.512-2.7382 2.688-4.4163.081-.8428-.042-1.6927-.358-2.478s-.817-1.4831-1.459-2.0344c-.066-1.0673-.157-2.1551-.223-3.224.519-.754.834-1.6297.913-2.5415s-.079-1.8286-.46-2.6608c-.381-.8323-.971-1.5516-1.713-2.0877s-1.61-.8707-2.519-.9711c.561-1.8039.452-3.7498-.308-5.4796-.72-1.6491-2.041-2.9624-3.694-3.6731.278-2.6926-1.884-5.5369-4.479-6.3067.897-2.3391-.448-5.3262-2.55-6.6886.028-1.4308-.864-2.7404-1.886-3.7421-1.022-1.0016-2.793-1.1656-4.223-1.1094z" fill="#444"/><path d="m239.461 198.309-1.76-12.784 11.117-9.728v-14.73l-17.232-23.624-10.812-33.647-4.397-1.388-10.916 21.759-1.668 30.23v11.951l12.276 25.013 14.683 12.088z" fill="#226b6c"/><path d="m214.982 200.394s2.637 10.329 6.599 13.572 16.582 1.297 16.582 1.297c.635-.136 1.202-.487 1.607-.994.406-.506.623-1.137.617-1.785.015-2.357-1.589-18.985-1.589-18.985s-11.688-10.754-15.251-17.702-6.759-16.259-9.399-20.427c-1.335-2.214-2.92-4.265-4.725-6.115l-1.112 27.01z" fill="#2dadad"/><path d="m157.636 198.309 1.76-12.784-11.117-9.728v-14.73l17.232-23.624 10.839-34.185 4.678-1.204 10.608 22.113 1.667 30.23v11.951l-12.275 25.013-14.684 12.088z" fill="#226b6c"/><path d="m185.94 100.34-4.91 1.714s8.523 37.613 8.384 54.844c-.139 17.232-4.191 43.496-4.191 43.496h29.76s-4.169-25.709-4.308-44.608 6.197-53.223 6.197-53.223l-4.182-1.32z" fill="#ffc766"/><path d="m190.455 88.8754v8.7547l-4.517 2.7099s3.405 6.462 13.202 6.67c9.797.209 13.549-5.767 13.549-5.767l-3.822-2.6402-.139-12.2288z" fill="#c76f80"/><path d="m199.238 95.1982c9.078-.0712 13.752-13.3867 13.984-15.1471 0 0 3.798.5097 4.493-4.493s-.232-5.7903-1.436-6.0215c-1.204-.2313-1.945.5558-2.547 1.7137-.602 1.1578-1.019 1.2968-1.529.9266s-.232-.8338-.649-2.8721c-.417-2.0384.417-2.0383-1.621-3.5669s-2.27-3.5203-2.455-4.8176c-.186-1.2974.185-3.289-1.529-4.3079s-3.381-1.5748-5.142 0c-1.76 1.5747-.787 3.8448-2.686 4.7709-1.899.926-3.706.7409-5.003 1.8993-1.296 1.1584-.278 3.6131-2.408 5.2807-2.131 1.6675-2.918.8799-4.91 2.6864s-1.158 6.6241-1.76 7.4579c0 0 3.391 16.5834 15.198 16.4906z" fill="#dd8593"/><path d="m160.23 161.206 9.21-7.424c5.082-4.096 9.064-9.393 11.588-15.412l-5.142-10.376 5.142-6.022-5.513-1.853.834-16.86s-17.602 5.28-19.682 8.152c-2.079 2.872-11.909 55.586-13.206 60.681-1.296 5.096-1.204 13.248 1.483 17.899s10.932 4.52 17.046.537c6.115-3.983 17.417-19.918 17.417-19.918l-10.005-15.286-19.085 16.12z" fill="#2dadad"/><path d="m170.742 157.371 10.287-8.992 6.091 7.755-8.969 12.556z" fill="#dd8593"/><path d="m217.679 144.346-3.387-3.942s-2.427-3.325-3.604-3.652c-1.178-.328-1.983.339-1.877 1.66s4.021 6.457 4.021 6.457l2.271 2.765z" fill="#c76f80"/><path d="m223.548 159.413s-5.877-5.955-7.61-7.615-3.105-6.929-3.105-6.929 1.727.622 2.193.501c.467-.122 1.086-1.253 1.086-1.253l2.088-2.501 2.106 2.654z" fill="#fc919f"/><path d="m221.489 131.041-4.224-3.404-5.801-.961-4.469 1.103c-.179.044-.347.122-.494.231-.148.11-.273.247-.368.404-.094.158-.157.332-.184.514s-.018.367.027.545c.081.322.274.604.545.796.27.192.6.282.931.253l3.364-.305 3.165.936.953 2.386-.672 5.927 2.198-1.611.458.667-.68 5.258s.621-.399 2.125.265.51 5.649 1.102 7.955c.592 2.307 2.93 5.017 2.93 5.017l1.965-13.608 1.806-5.527-.858-3.423z" fill="#c76f80"/><path d="m234.383 155.724-3.903-3.599-2.693-13.666-.48-1.061c-1.056-2.33-2.745-4.316-4.876-5.731l-3.919-2.603c-.389-.259-.84-.406-1.307-.427-.466-.021-.929.085-1.339.308l-4.629 2.508-3.174 5.821c-.155.284-.203.615-.136.933.067.317.246.6.503.797.154.118.332.202.521.245.189.044.385.047.576.008.19-.038.37-.117.527-.231.158-.113.289-.26.385-.428l2.088-3.669 2.668-2.137 8.812 1.506-9.074-.76-3.384 4.348-1.288 4.61c-.098.355-.059.733.111 1.06.17.326.458.575.805.697.183.064.377.091.571.079s.383-.063.556-.15c.174-.086.329-.207.455-.355.126-.147.221-.318.28-.503l1.222-3.859 2.21-2.522 8.141.374-7.425.393-3.305 3.986-.256 1.597c-.055.344.027.696.229.98s.507.477.85.538c.339.06.688-.013.974-.205.286-.193.486-.488.558-.825l.218-1.019 2.507-1.65 3.077.556-.056 3.714-.483 4.805c-.323 3.216.395 6.45 2.047 9.227l3.396 3.052z" fill="#fc919f"/><path d="m204.976 118.081h-10.19c-1.842 0-3.335 1.493-3.335 3.335v25.199c0 1.842 1.493 3.335 3.335 3.335h10.19c1.842 0 3.335-1.493 3.335-3.335v-25.199c0-1.842-1.493-3.335-3.335-3.335z" fill="#036a75"/><path d="m184.717 135.903s1.846-3.39 3.169-4.224 3.567-2.501 3.567-2.501v3.508z" fill="#c76f80"/><path d="m205.41 129.051c.243.67.416 1.364.516 2.069.024.672-.023 3.78-.378 4.427.033 1.253-.085 2.506-.351 3.731l-1.175 1.386s-.147 2.523-1.243 3.624-4.566.659-4.566.659l-2.061-10.051.811-3.312z" fill="#c76f80"/><path d="m201.766 132.593c-1.702.903-3.514 1.58-5.391 2.015.383-.107.917-.784 1.231-1.043.457-.377.919-.747 1.385-1.112.92-.716 1.859-1.406 2.818-2.07.849-.588 1.901-1.556 2.883-1.884 1.15-.384-.156 1.574-.422 1.921-.687.879-1.537 1.617-2.504 2.173z" fill="#b26074"/><path d="m198.797 140.594c-.227.087-.48.081-.704-.016-.124-.094-.21-.229-.244-.381s-.013-.311.059-.449c.153-.272.373-.5.639-.663 1.661-1.202 3.714-2.549 5.722-3.069 1.41-.365.167 1.034-.222 1.452-.665.71-1.42 1.329-2.246 1.841-.93.579-1.943 1.012-3.004 1.285z" fill="#b26074"/><path d="m198.261 144.526c-.258.063-.585.089-.732-.131-.176-.261.067-.596.301-.807 1.272-1.14 2.764-2.007 4.385-2.547.228-.076.916-.419.988-.103.046.201-.571.82-.695.964-.518.602-1.121 1.126-1.788 1.557-.755.49-1.586.851-2.459 1.067z" fill="#b26074"/><path d="m187.119 156.134 2.71-2.988s11.912-7.343 12.785-8.581c.246-.381.383-.822.397-1.276.013-.454-.097-.903-.319-1.298l-3.044 1.376v-.56l4.377-2.143s2.431-1.315.515-3.561l-5.253 2.607-.456.303.198-.593 5.754-2.884c.256-.145.465-.359.604-.618s.202-.552.181-.846c-.145-.936-.744-2.045-1.41-2.309-.666-.263-6.651 2.279-6.651 2.279l.273-.75 5.913-3.765 3.78-3.241c.256-.267.41-.615.436-.984s-.078-.735-.295-1.035c-.077-.149-.183-.281-.311-.389-.129-.108-.278-.189-.439-.238-.16-.049-.329-.066-.496-.049s-.329.067-.477.148l-4.312 2.841-11.588 5.841-5.271 2.484c-.904 1.696-1.469 3.552-1.662 5.464-.223 2.932-2.028 7.234-2.028 7.234z" fill="#dd8593"/><path d="m194.832 123.269c.844 0 1.529-.685 1.529-1.529s-.685-1.528-1.529-1.528-1.529.684-1.529 1.528.685 1.529 1.529 1.529z" fill="#aaf7f1"/><path d="m220.774 103.796.807 16.323-5.513 1.852 5.142 6.022.354.294c4.69 3.897 8.05 9.157 9.613 15.05.992 3.74 1.869 7.177 1.869 7.177l16.259 13.98-14.923-8.772-12.173 11.319s10.7 20.567 19.038 24.458 14.174-1.39 16.12-6.253c1.945-4.864-3.474-25.709-5.837-34.88-2.362-9.172-8.356-37.058-11.1-38.956-2.744-1.899-19.656-7.614-19.656-7.614z" fill="#2dadad"/><path d="m213.592 81.8577c.844 0 1.528-.6844 1.528-1.5286s-.684-1.5286-1.528-1.5286-1.529.6844-1.529 1.5286.685 1.5286 1.529 1.5286z" fill="#aaf7f1"/><path d="m273.411 44.7433-4.123 8.3311-11.16 1.5008c-.203.0274-.394.1145-.547.2503-.154.1358-.264.3141-.317.5125-.052.1984-.044.4078.022.6019.067.194.19.3638.353.488l22.419 17.047c.169.1288.375.2024.587.2106.213.0083.423-.0492.602-.1646.179-.1153.318-.283.399-.4802.08-.1972.098-.4144.05-.622l-6.294-27.5704c-.051-.2194-.171-.4165-.344-.5614-.172-.1448-.387-.2296-.612-.2415-.225-.0118-.448.0499-.634.1758-.187.1259-.328.3091-.401.5221z" fill="#ffc766"/><path d="m269.288 53.0743 8.365 13.8803-10.621-13.5762z" fill="#ffa200"/><path d="m194.468 87.4819 9.093-.4002s-1.475 3.5085-4.546 3.6781c-3.07.1695-4.547-3.2779-4.547-3.2779z" fill="#fff"/></g></svg>