<svg xmlns="http://www.w3.org/2000/svg" width="634" height="325" viewBox="0 0 634 325" version="1.1"><path d="M 322.245 18.769 C 315.959 33.633, 310 59.137, 310 71.176 C 310 77.497, 308.648 77.321, 307.144 70.804 C 306.485 67.947, 304.965 63.646, 303.767 61.248 C 302.047 57.804, 301.159 56.986, 299.544 57.359 C 298.420 57.619, 287.938 59.978, 276.250 62.601 C 264.563 65.225, 255 67.657, 255 68.006 C 255 68.355, 259.691 77.098, 265.424 87.435 C 271.158 97.772, 278.470 111.465, 281.674 117.865 C 288.536 131.570, 287.904 130.435, 288.395 129.917 C 288.915 129.367, 276.191 94.550, 271.590 83.933 C 269.246 78.523, 268.362 75.394, 269.057 74.965 C 271.048 73.734, 298.981 67.870, 299.962 68.477 C 301.556 69.462, 305.913 84.481, 307.542 94.603 C 308.375 99.782, 309.404 109.527, 309.828 116.259 L 310.600 128.500 311.405 118.931 C 311.848 113.669, 311.804 104.444, 311.307 98.431 C 310.261 85.775, 311.376 76.108, 315.971 58 C 320.772 39.075, 329.653 18.269, 332.467 19.349 C 333.213 19.635, 340.500 21.047, 348.662 22.486 C 356.823 23.925, 364.503 25.311, 365.730 25.565 L 367.960 26.028 365.839 31.264 C 364.672 34.144, 362.600 40.325, 361.235 45 C 359.870 49.675, 358.637 53.635, 358.494 53.799 C 358.275 54.052, 353.827 53.145, 342.380 50.515 C 340.595 50.104, 339.838 50.969, 337.582 55.998 C 332.297 67.772, 329.143 92.929, 330.586 111.796 L 331.404 122.500 332.155 109.876 C 332.568 102.933, 333.596 92.963, 334.439 87.720 C 336.218 76.664, 340.583 62.097, 342.315 61.433 C 344.074 60.758, 373.501 67.505, 373.494 68.582 C 373.491 69.087, 370.706 76.475, 367.304 85 C 359.739 103.959, 352.986 123.016, 353.856 122.954 C 354.210 122.929, 356.627 118.542, 359.227 113.204 C 361.826 107.867, 369.139 94.068, 375.477 82.539 C 381.815 71.011, 387 61.309, 387 60.981 C 387 60.652, 381.262 59.115, 374.250 57.566 C 367.238 56.016, 361.183 54.566, 360.795 54.343 C 359.886 53.820, 364.220 46.463, 374.104 31.750 C 378.446 25.287, 381.873 20, 381.719 20 C 381.566 20, 369.623 17.525, 355.180 14.500 C 340.738 11.475, 328.348 9, 327.649 9 C 326.949 9, 324.517 13.396, 322.245 18.769 M 207 119.500 C 208.866 121.425, 210.617 123, 210.892 123 C 211.167 123, 209.866 121.425, 208 119.500 C 206.134 117.575, 204.383 116, 204.108 116 C 203.833 116, 205.134 117.575, 207 119.500 M 259.500 125 C 263.866 129.471, 263.898 129.492, 263.633 127.750 C 263.315 125.650, 261.911 123.937, 260.981 124.512 C 260.497 124.811, 259.612 124.143, 259.015 123.028 C 258.418 121.913, 257.404 121, 256.762 121 C 256.120 121, 257.352 122.800, 259.500 125 M 380 127.500 C 375.325 129.920, 371.847 131.922, 372.272 131.950 C 373.335 132.019, 389 124.096, 389 123.489 C 389 122.811, 389.424 122.622, 380 127.500 M 265.612 128.146 C 266.083 128.891, 266.476 129.892, 266.485 130.372 C 266.493 130.851, 268.075 132.372, 270 133.751 L 273.500 136.258 270 133.038 C 268.075 131.267, 267.288 130.070, 268.250 130.378 C 270.732 131.171, 270.420 130.505, 267.377 128.511 C 265.673 127.395, 265.054 127.267, 265.612 128.146 M 255.310 130.693 C 256.151 132.053, 264 138.386, 264 137.704 C 264 137.450, 261.883 135.507, 259.297 133.387 C 256.710 131.267, 254.916 130.055, 255.310 130.693 M 222.310 132.693 C 223.151 134.053, 231 140.386, 231 139.704 C 231 139.450, 228.883 137.507, 226.297 135.387 C 223.710 133.267, 221.916 132.055, 222.310 132.693 M 234.235 142.226 C 237.204 144.750, 243 148.368, 243 147.698 C 243 147.470, 240.412 145.622, 237.250 143.592 C 234.088 141.562, 232.731 140.947, 234.235 142.226 M 282 141.494 C 282 142.167, 292.122 147.211, 292.571 146.762 C 292.776 146.557, 290.482 145.182, 287.472 143.705 C 284.462 142.229, 282 141.234, 282 141.494 M 315.768 144.725 C 317.565 144.947, 320.265 144.943, 321.768 144.715 C 323.271 144.486, 321.800 144.304, 318.500 144.310 C 315.200 144.315, 313.971 144.502, 315.768 144.725 M 374.203 154.887 C 370.190 156.914, 367.265 158.950, 367.703 159.410 C 368.141 159.871, 367.375 159.946, 366 159.576 C 363.930 159.020, 363.799 159.092, 365.237 159.995 C 367.139 161.188, 371 159.789, 371 157.906 C 371 157.343, 371.450 157.160, 372 157.500 C 372.550 157.840, 373 157.615, 373 157 C 373 156.385, 373.450 156.160, 374 156.500 C 374.550 156.840, 375 156.615, 375 156 C 375 155.385, 375.450 155.160, 376 155.500 C 376.550 155.840, 377 155.615, 377 155 C 377 154.385, 377.342 154.094, 377.761 154.352 C 378.612 154.878, 382.598 152.255, 381.927 151.611 C 381.692 151.386, 378.216 152.860, 374.203 154.887 M 333.776 155.733 C 336.128 155.945, 339.728 155.942, 341.776 155.727 C 343.824 155.512, 341.900 155.339, 337.500 155.343 C 333.100 155.346, 331.424 155.522, 333.776 155.733 M 361.500 161 C 362.681 161.508, 362.920 161.888, 362.083 161.930 C 361.304 161.968, 360.902 162.236, 361.190 162.524 C 361.478 162.811, 362.491 162.749, 363.441 162.384 C 364.810 161.859, 364.891 161.546, 363.834 160.876 C 363.100 160.411, 361.825 160.055, 361 160.086 C 360.011 160.122, 360.181 160.433, 361.500 161 M 332.750 164.723 C 334.538 164.945, 337.462 164.945, 339.250 164.723 C 341.038 164.502, 339.575 164.320, 336 164.320 C 332.425 164.320, 330.962 164.502, 332.750 164.723 M 303.762 170.707 C 305.006 170.946, 306.806 170.937, 307.762 170.687 C 308.718 170.437, 307.700 170.241, 305.500 170.252 C 303.300 170.263, 302.518 170.468, 303.762 170.707 M 326.762 170.707 C 328.006 170.946, 329.806 170.937, 330.762 170.687 C 331.718 170.437, 330.700 170.241, 328.500 170.252 C 326.300 170.263, 325.518 170.468, 326.762 170.707 M 386.500 208 C 383.732 208.704, 383.694 208.771, 386 208.866 C 387.375 208.923, 389.175 208.533, 390 208 C 391.702 206.900, 390.822 206.900, 386.500 208 M 569.500 208 L 566.500 208.763 569.691 208.882 C 571.446 208.947, 573.160 208.550, 573.500 208 C 574.184 206.893, 573.849 206.893, 569.500 208 M 23.508 209.013 C 23.844 209.556, 24.766 210, 25.559 210 C 26.763 210, 27 213.108, 27 228.878 C 27 245.681, 26.807 247.907, 25.247 249.128 C 23.658 250.372, 23.681 250.395, 25.497 249.378 C 27.393 248.316, 27.500 247.226, 27.500 228.993 C 27.500 209.803, 27.491 209.726, 25.199 208.878 C 23.732 208.335, 23.119 208.384, 23.508 209.013 M 55.738 220.896 C 52.899 228.570, 51.232 234.525, 51.611 235.636 C 52.157 237.237, 52.027 237.208, 50.692 235.430 C 49.838 234.291, 47.477 229.209, 45.447 224.136 C 43.416 219.063, 41.588 215.079, 41.383 215.283 C 40.836 215.831, 49.222 236.393, 50.290 237.121 C 51.278 237.795, 47.214 250, 46.002 250 C 45.600 250, 44.488 247.948, 43.530 245.439 C 42.572 242.931, 41.600 241.067, 41.369 241.298 C 40.476 242.190, 45.059 251.147, 46.212 250.763 C 46.878 250.541, 50.024 243.641, 53.203 235.429 C 58.859 220.819, 60.031 216.984, 57.919 220 C 57.117 221.145, 57.031 220.909, 57.555 219 C 59.267 212.765, 59.692 214.962, 59.903 231.144 C 60.028 240.669, 60.349 248.683, 60.619 248.952 C 60.888 249.221, 61.022 240.117, 60.918 228.721 C 60.813 217.324, 60.676 208.004, 60.614 208.010 C 60.551 208.015, 58.357 213.814, 55.738 220.896 M 73 209.293 L 70.500 210.557 70.227 228.898 C 69.946 247.793, 70.214 249.300, 74.033 250.298 C 76.839 251.032, 76.468 250.128, 73.500 249 L 71 248.050 71 229.500 L 71 210.950 73.500 210 C 74.875 209.477, 76 208.813, 76 208.525 C 76 207.811, 75.861 207.847, 73 209.293 M 110.500 209.164 C 117.716 213.145, 121.195 219.572, 121.238 229 C 121.274 236.950, 119.261 242.075, 114.243 246.807 C 112.184 248.749, 111.464 249.822, 112.642 249.191 C 118.886 245.850, 123.762 234.574, 122.607 226.146 C 121.705 219.568, 118.326 213.294, 114.161 210.463 C 112.167 209.109, 110.078 208.014, 109.518 208.030 C 108.958 208.047, 109.400 208.557, 110.500 209.164 M 138.198 209.750 C 139.027 210.713, 144.159 217.125, 149.603 224 L 159.500 236.500 159.782 224.082 C 159.937 217.252, 159.712 211.311, 159.282 210.878 C 158.852 210.446, 158.639 215.584, 158.808 222.296 C 158.997 229.740, 158.759 234.110, 158.200 233.500 C 157.695 232.950, 152.936 226.988, 147.624 220.250 C 142.312 213.512, 137.679 208, 137.328 208 C 136.977 208, 137.368 208.787, 138.198 209.750 M 164.337 209.182 C 163.147 209.757, 161.916 211.189, 161.600 212.364 C 161.285 213.539, 161.073 222.825, 161.130 233 C 161.257 255.972, 161.811 254.538, 162.217 230.185 C 162.520 212.010, 162.541 211.855, 165.011 209.957 C 167.774 207.834, 167.581 207.612, 164.337 209.182 M 183.507 209.011 C 183.843 209.555, 184.714 210, 185.442 210 C 187.527 210, 187.973 213.434, 187.973 229.500 C 187.973 245.566, 187.527 249, 185.442 249 C 184.714 249, 183.843 249.445, 183.507 249.989 C 182.542 251.549, 186.338 249.922, 187.750 248.169 C 188.641 247.063, 189 241.700, 189 229.500 C 189 217.300, 188.641 211.937, 187.750 210.831 C 186.338 209.078, 182.542 207.451, 183.507 209.011 M 263.663 210.514 C 274.728 217.147, 275.851 236.742, 265.719 246.382 C 263.475 248.517, 262.584 249.758, 263.741 249.139 C 273 244.184, 276.668 228.110, 271.052 217.102 C 269.153 213.380, 262.905 207.987, 260.518 208.009 C 259.958 208.015, 261.373 209.142, 263.663 210.514 M 277.558 209.093 C 277.866 209.592, 278.766 210, 279.559 210 C 280.763 210, 281 213.108, 281 228.878 C 281 247.324, 280.948 247.792, 278.750 249.326 C 277.512 250.189, 276.882 250.919, 277.349 250.948 C 277.816 250.976, 279.503 249.602, 281.099 247.894 C 283.045 245.811, 284 245.298, 284 246.335 C 284 247.186, 284.337 248.091, 284.750 248.348 C 285.163 248.604, 285.364 242.007, 285.198 233.688 C 285.031 225.368, 285.126 218.793, 285.408 219.075 C 285.690 219.357, 288.816 226.543, 292.354 235.044 C 295.966 243.722, 299.420 250.628, 300.229 250.792 C 301.250 250.998, 303.364 246.624, 307.479 235.792 C 310.674 227.381, 313.448 220.312, 313.644 220.083 C 313.840 219.854, 314 226.267, 314 234.333 C 314 246.437, 313.748 249, 312.559 249 C 311.766 249, 310.843 249.445, 310.507 249.989 C 309.542 251.549, 313.338 249.922, 314.750 248.169 C 316.419 246.097, 316.544 215, 314.883 215 C 313.790 215, 313.986 213.422, 315.556 209.586 C 316.055 208.369, 315.970 207.900, 315.325 208.299 C 314.766 208.644, 312.132 214.846, 309.470 222.081 L 304.631 235.236 302.492 230.368 C 301.316 227.691, 298.811 221.564, 296.927 216.754 C 295.042 211.943, 293.201 208.006, 292.836 208.004 C 292.145 208, 302.254 233.829, 304.108 236.805 C 304.898 238.073, 304.612 239.971, 302.975 244.343 C 301.771 247.557, 300.426 249.807, 299.986 249.343 C 299.545 248.879, 296.009 240.886, 292.127 231.581 C 288.245 222.275, 284.671 214.400, 284.185 214.081 C 283.698 213.761, 282.796 212.544, 282.181 211.375 C 281.566 210.206, 280.148 209.011, 279.030 208.718 C 277.912 208.426, 277.249 208.595, 277.558 209.093 M 328 208.694 C 324.409 209.977, 324 212.104, 324 229.500 C 324 241.700, 324.359 247.063, 325.250 248.169 C 326.662 249.922, 330.458 251.549, 329.493 249.989 C 329.157 249.445, 328.234 249, 327.441 249 C 326.236 249, 326 245.812, 326 229.500 C 326 213.188, 326.236 210, 327.441 210 C 328.234 210, 329.160 209.550, 329.500 209 C 330.173 207.911, 330.184 207.913, 328 208.694 M 334.250 209.572 L 337 211.064 337 229.500 L 337 247.936 334.250 249.428 C 330.979 251.202, 331.826 251.492, 335.453 249.839 L 338 248.679 338 229.500 L 338 210.321 335.453 209.161 C 331.826 207.508, 330.979 207.798, 334.250 209.572 M 349.223 209.557 C 347.063 211.069, 347 211.633, 347 229.500 C 347 247.367, 347.063 247.931, 349.223 249.443 C 350.445 250.299, 351.907 250.982, 352.473 250.960 C 353.038 250.938, 352.262 250.249, 350.750 249.428 L 348 247.936 348 229.500 L 348 211.064 350.750 209.572 C 352.262 208.751, 353.038 208.062, 352.473 208.040 C 351.907 208.018, 350.445 208.701, 349.223 209.557 M 395 209.102 C 393.790 209.967, 393.926 210.080, 395.707 209.692 C 397.784 209.238, 397.934 209.599, 398.261 215.855 L 398.608 222.500 398.804 215.250 C 399.006 207.782, 398.345 206.713, 395 209.102 M 436.667 208.667 C 436.300 209.033, 435.966 211.621, 435.924 214.417 C 435.848 219.495, 435.847 219.497, 434.674 216.282 C 434.028 214.512, 432.625 212.262, 431.555 211.282 C 429.855 209.725, 429.773 209.717, 430.901 211.218 C 431.611 212.163, 432.754 214.840, 433.441 217.167 C 435.331 223.566, 436.652 222.917, 437.269 215.287 C 437.839 208.233, 437.778 207.556, 436.667 208.667 M 442.558 209.093 C 442.866 209.592, 443.766 210, 444.559 210 C 445.764 210, 446 213.188, 446 229.500 C 446 245.812, 445.764 249, 444.559 249 C 443.766 249, 442.866 249.408, 442.558 249.907 C 442.249 250.405, 442.932 250.569, 444.075 250.270 C 447.346 249.415, 448 245.952, 448 229.500 C 448 213.048, 447.346 209.585, 444.075 208.730 C 442.932 208.431, 442.249 208.595, 442.558 209.093 M 481 208.671 C 481 209.284, 481.576 210.007, 482.280 210.277 C 482.983 210.547, 487.146 219.817, 491.530 230.877 C 495.913 241.937, 499.800 250.989, 500.167 250.993 C 501.368 251.006, 485.032 211.587, 482.990 209.546 C 481.896 208.451, 481 208.057, 481 208.671 M 497.250 209.031 C 496.012 209.529, 495 210.366, 495 210.891 C 495 212.738, 506.131 240.504, 506.994 240.811 C 507.475 240.983, 507.223 242.952, 506.434 245.187 C 503.731 252.849, 505.112 251.505, 508.095 243.571 C 509.735 239.210, 510.840 235.024, 510.550 234.269 C 510.260 233.514, 510.430 233.148, 510.929 233.456 C 512.124 234.195, 515.357 224.386, 514.418 222.868 C 513.983 222.163, 514.121 221.957, 514.763 222.353 C 515.408 222.752, 516.477 221.081, 517.450 218.151 C 519.579 211.741, 523.019 208.404, 525.906 209.950 C 527.915 211.025, 528 211.817, 528 229.503 L 528 247.936 525.250 249.428 C 521.979 251.202, 522.826 251.492, 526.453 249.839 L 529 248.679 529 229.461 L 529 210.243 525.980 208.992 C 523.235 207.855, 522.768 207.958, 520.854 210.120 C 519.696 211.429, 518.148 213.850, 517.414 215.500 L 516.078 218.500 516.039 214.872 C 516 211.246, 515.039 209.859, 511.750 208.687 C 508.925 207.679, 509.746 208.953, 512.628 210.049 C 514.984 210.944, 515.203 211.447, 514.743 214.883 C 514.460 216.992, 512.533 223.333, 510.460 228.975 L 506.693 239.232 501.346 225.517 C 498.406 217.974, 496 211.397, 496 210.901 C 496 210.406, 496.648 210, 497.441 210 C 498.234 210, 499.160 209.550, 499.500 209 C 500.217 207.841, 500.212 207.841, 497.250 209.031 M 555.283 210.910 C 544.504 218.718, 543.624 238.204, 553.653 246.996 L 556.500 249.493 553.803 246.496 C 544.600 236.271, 546.491 217.016, 557.337 210.514 C 559.627 209.142, 561.005 208.015, 560.400 208.009 C 559.795 208.004, 557.492 209.310, 555.283 210.910 M 574.746 208.588 C 574.406 208.928, 575.269 210.187, 576.664 211.387 C 578.122 212.642, 579.766 215.678, 580.532 218.534 C 581.265 221.265, 581.895 222.473, 581.933 221.218 C 581.970 219.963, 581.348 217.375, 580.551 215.468 C 579.286 212.440, 579.286 212, 580.551 212 C 581.348 212, 582.079 211.438, 582.177 210.750 C 582.274 210.063, 582.644 212.650, 583 216.500 L 583.647 223.500 583.823 215.750 C 583.967 209.449, 583.719 208, 582.500 208 C 581.675 208, 581 208.675, 581 209.500 C 581 211.308, 579.833 211.433, 578.200 209.800 C 577.540 209.140, 576.993 209.028, 576.985 209.550 C 576.976 210.072, 576.608 209.931, 576.166 209.235 C 575.725 208.539, 575.085 208.248, 574.746 208.588 M 85.190 213.409 C 80.271 218.746, 78.599 224.255, 79.283 232.869 C 79.828 239.737, 83.075 245.721, 87.978 248.896 C 89.374 249.799, 88.637 248.671, 86.293 246.315 C 81.795 241.793, 80.011 237.160, 80.011 230 C 80.011 222.683, 81.874 217.863, 86.484 213.253 C 88.823 210.914, 90.403 209, 89.996 209 C 89.588 209, 87.426 210.984, 85.190 213.409 M 94.693 210.787 C 85.914 220.487, 88.307 246.922, 98.281 250.430 C 105.745 253.055, 111.161 245.683, 111.811 232.018 C 112.303 221.682, 110.904 215.972, 106.837 211.711 L 103.773 208.500 106.360 211.795 C 110.015 216.450, 111.279 222.188, 110.812 232.001 C 110.346 241.799, 107.396 248.612, 103.158 249.675 C 95.911 251.494, 90.784 243.935, 90.607 231.173 C 90.473 221.564, 91.392 217.175, 94.496 212.601 C 97.157 208.680, 97.233 207.980, 94.693 210.787 M 128.975 209.658 C 129.621 209.979, 130 217.123, 130 228.961 C 130 245.685, 129.807 247.907, 128.247 249.128 C 126.658 250.372, 126.681 250.395, 128.497 249.378 C 130.393 248.316, 130.500 247.226, 130.500 228.961 C 130.500 214.126, 130.205 209.607, 129.225 209.408 C 128.524 209.266, 128.411 209.379, 128.975 209.658 M 197.975 211.565 C 197.439 212.976, 197 221.047, 197 229.500 C 197 248.198, 197.525 250.063, 202.725 249.832 L 206.500 249.664 202.750 249.272 L 199 248.879 199 229.500 L 199 210.121 202.750 209.728 L 206.500 209.336 202.725 209.168 C 199.519 209.025, 198.804 209.386, 197.975 211.565 M 245.693 210.787 C 240.471 216.557, 238.723 232.895, 242.329 242.239 C 245.700 250.978, 252.578 253.576, 257.996 248.158 C 261.858 244.296, 263.249 238.354, 262.819 227.559 C 262.428 217.736, 260.366 211.801, 256.654 209.815 C 254.892 208.872, 254.986 209.195, 257.258 211.895 C 260.999 216.341, 262.289 222.066, 261.787 232 C 261.336 240.945, 258.722 248.125, 255.461 249.377 C 250.219 251.388, 245.097 247.610, 243.044 240.219 C 240.516 231.116, 242.449 215.476, 246.681 210.800 C 247.577 209.810, 248.085 209, 247.810 209 C 247.535 209, 246.582 209.804, 245.693 210.787 M 373.073 211.635 C 370.268 215.200, 370.288 221.825, 373.114 225.418 C 374.277 226.896, 377.764 229.945, 380.864 232.193 C 383.964 234.442, 387.277 237.230, 388.228 238.391 C 390.394 241.036, 390.501 246.357, 388.429 248.429 C 386.666 250.191, 381.807 250.502, 379.055 249.029 C 376.968 247.912, 374 241.131, 374 237.480 C 374 235.670, 373.462 235, 372.008 235 C 370.178 235, 370.024 235.649, 370.102 243 C 370.178 250.081, 370.400 251, 372.035 251 C 373.051 251, 374.207 250.474, 374.605 249.830 C 375.091 249.043, 374.783 248.869, 373.664 249.299 C 372.210 249.857, 372.009 249.089, 372.067 243.219 L 372.135 236.500 373.468 241.466 C 374.234 244.322, 375.878 247.358, 377.336 248.613 C 378.731 249.813, 379.620 251.046, 379.312 251.354 C 378.177 252.490, 386.576 250.712, 388.750 249.357 C 390.435 248.306, 391 247.011, 391 244.199 C 391 239.318, 389.192 236.884, 381.878 231.917 C 378.575 229.674, 375.003 226.413, 373.940 224.670 C 371.393 220.493, 371.450 214.969, 374.073 211.635 C 375.212 210.186, 375.920 209, 375.645 209 C 375.370 209, 374.212 210.186, 373.073 211.635 M 381.200 210.200 C 379.427 211.973, 379.743 217.484, 381.750 219.788 C 382.712 220.893, 386.385 223.855, 389.912 226.371 C 397.565 231.830, 399.985 235.185, 399.993 240.350 C 399.999 243.400, 399.293 244.907, 396.600 247.600 C 394.730 249.470, 393.558 251, 393.996 251 C 394.434 251, 396.189 249.409, 397.896 247.465 C 403.554 241.022, 401.717 233.830, 392.780 227.437 C 383.776 220.995, 381 217.948, 381 214.504 C 381 212.797, 381.540 210.860, 382.200 210.200 C 382.860 209.540, 383.175 209, 382.900 209 C 382.625 209, 381.860 209.540, 381.200 210.200 M 391.556 211.044 C 392.625 212.216, 394.253 215.273, 395.172 217.837 C 396.092 220.402, 396.880 221.630, 396.922 220.566 C 397.035 217.766, 393.192 210.288, 391.260 209.546 C 389.927 209.035, 389.983 209.321, 391.556 211.044 M 407 209.977 C 408.206 210.738, 408.563 214.011, 408.823 226.664 C 409.177 243.894, 408.649 249, 406.514 249 C 405.746 249, 404.843 249.445, 404.507 249.989 C 403.809 251.119, 406.811 250.223, 408.750 248.722 C 409.669 248.011, 410 242.937, 410 229.578 C 410 211.644, 409.552 208.972, 406.550 209.015 C 405.973 209.024, 406.175 209.456, 407 209.977 M 419.427 210.329 C 419.147 211.060, 419.068 215.673, 419.253 220.579 L 419.589 229.500 419.794 219.805 L 420 210.110 424.750 209.735 L 429.500 209.360 424.719 209.180 C 421.528 209.060, 419.768 209.442, 419.427 210.329 M 457.035 210.934 C 456.466 211.998, 456.088 216.836, 456.196 221.684 C 456.382 230.047, 456.407 230.141, 456.690 223.500 C 457.203 211.493, 457.671 210, 460.923 210 C 462.481 210, 464.328 210.690, 465.028 211.533 C 467.112 214.045, 467.454 222.367, 465.629 226.159 L 464.021 229.500 466.011 227.139 C 468.815 223.811, 468.769 215.248, 465.927 211.635 C 463.384 208.402, 458.592 208.024, 457.035 210.934 M 539.200 210.200 C 538.355 211.045, 538 216.756, 538 229.500 C 538 247.356, 538.455 250.056, 541.450 249.970 C 542.028 249.953, 541.712 249.481, 540.750 248.920 C 539.184 248.008, 539 245.969, 539 229.500 C 539 213.031, 539.184 210.992, 540.750 210.080 C 541.712 209.519, 542.028 209.047, 541.450 209.030 C 540.872 209.014, 539.860 209.540, 539.200 210.200 M 591.250 210.080 C 592.816 210.992, 593 213.031, 593 229.500 C 593 245.969, 592.816 248.008, 591.250 248.920 C 590.288 249.481, 589.972 249.953, 590.550 249.970 C 593.545 250.056, 594 247.356, 594 229.500 C 594 211.644, 593.545 208.944, 590.550 209.030 C 589.972 209.047, 590.288 209.519, 591.250 210.080 M 603.427 210.329 C 603.147 211.060, 603.068 215.673, 603.253 220.579 L 603.589 229.500 603.794 219.805 L 604 210.110 608.750 209.735 L 613.500 209.360 608.719 209.180 C 605.528 209.060, 603.768 209.442, 603.427 210.329 M 210.182 212.620 C 213.805 216.512, 215.402 223.499, 214.722 232.487 C 214.143 240.148, 213.165 242.912, 209.625 246.886 L 207.500 249.271 209.620 248.170 C 213.799 245.999, 215.502 240.427, 215.478 229 C 215.454 217.593, 214.037 213.124, 209.740 210.900 C 207.720 209.855, 207.763 210.023, 210.182 212.620 M 217.690 212.077 C 222.136 214.925, 225 221.300, 225 228.348 C 225 235.152, 223.056 240.265, 218.699 244.916 L 215.500 248.331 218.664 246.159 C 228.529 239.385, 228.801 218.979, 219.118 212.084 C 217.508 210.938, 215.811 210.008, 215.346 210.017 C 214.881 210.026, 215.935 210.953, 217.690 212.077 M 236.239 213.254 C 230.654 219.016, 228.409 229.950, 231.138 238.101 C 232.606 242.486, 236.477 247.681, 239.291 249.042 C 240.873 249.807, 240.709 249.496, 238.715 247.946 C 233.823 244.145, 231.547 238.449, 231.543 230 C 231.539 221.931, 233.014 217.867, 237.801 212.750 C 241.431 208.870, 240.058 209.313, 236.239 213.254 M 474.750 212.064 C 478.095 215.877, 477.864 222.469, 474.250 226.325 C 471.839 228.898, 471.774 229.117, 473.727 228.107 C 476.803 226.515, 478 223.891, 478 218.740 C 478 215.204, 477.464 213.877, 475.250 211.924 L 472.500 209.500 474.750 212.064 M 560.974 214.260 C 559.128 217.544, 558.501 220.411, 558.188 226.999 C 557.697 237.317, 559.098 243.030, 563.163 247.289 L 566.227 250.500 563.640 247.205 C 559.978 242.541, 558.721 236.809, 559.192 226.922 C 559.504 220.346, 560.123 217.457, 561.840 214.546 C 563.073 212.457, 563.918 210.585, 563.718 210.385 C 563.519 210.186, 562.284 211.929, 560.974 214.260 M 615.687 212.241 C 616.835 213.749, 618.076 216.590, 618.444 218.556 C 619.193 222.544, 621.380 222.790, 621.702 218.922 L 621.903 216.500 621.107 219 C 620.352 221.372, 620.253 221.290, 619.160 217.409 C 618.527 215.159, 617.017 212.459, 615.804 211.409 L 613.600 209.500 615.687 212.241 M 29 229.645 C 29 247.884, 29.163 248.502, 34.470 250.401 C 36.921 251.278, 35.816 250.091, 32.768 248.573 C 30.570 247.479, 30.494 246.964, 30.312 231.972 L 30.123 216.500 32.985 222.500 C 34.559 225.800, 35.881 228.192, 35.923 227.816 C 36.031 226.856, 30.842 214.704, 29.831 213.550 C 29.374 213.028, 29 220.270, 29 229.645 M 132 231.718 C 132 246.404, 132.742 249.176, 136.971 250.282 C 138.088 250.574, 138.751 250.405, 138.442 249.907 C 138.134 249.408, 137.222 249, 136.416 249 C 133.918 249, 133 244.341, 133.005 231.685 L 133.010 219.500 135.484 222.500 C 136.844 224.150, 142.355 231.195, 147.729 238.156 C 153.103 245.116, 157.659 250.657, 157.854 250.468 C 158.275 250.060, 134.405 219.369, 132.983 218.489 C 132.357 218.103, 132 222.912, 132 231.718 M 426.405 223.523 C 426.056 224.911, 424.810 226.758, 423.636 227.627 C 422.461 228.496, 422.175 229.014, 423 228.777 C 423.825 228.540, 425.512 226.851, 426.750 225.025 L 429 221.704 428.937 229.602 C 428.888 235.712, 428.655 236.955, 427.910 235.091 C 426.677 232.007, 424.116 230.072, 421.214 230.032 C 418.967 230.001, 418.933 230.168, 419.214 239.750 L 419.500 249.500 424 249.582 L 428.500 249.663 424.250 249.277 L 420 248.890 420 239.876 C 420 231.099, 420.059 230.869, 422.250 231.180 C 423.636 231.377, 425.076 232.739, 426 234.728 C 428.695 240.528, 430 238.822, 430 229.500 C 430 222.660, 429.711 221, 428.519 221 C 427.705 221, 426.753 222.135, 426.405 223.523 M 611 222.545 C 611 223.395, 609.895 225.195, 608.545 226.545 C 607.195 227.895, 606.408 228.993, 606.795 228.985 C 608.212 228.954, 609.746 227.432, 611.315 224.500 C 612.913 221.513, 612.920 221.533, 612.930 229 C 612.937 234.978, 612.717 236.094, 611.845 234.500 C 610.249 231.582, 607.938 230, 605.273 230 C 602.953 230, 602.931 230.107, 603.214 239.750 L 603.500 249.500 608.337 249.808 C 614.714 250.215, 617.454 248.315, 619.707 241.923 L 621.500 236.837 622.094 244.168 L 622.688 251.500 622.594 244 C 622.488 235.515, 621.398 234.917, 618.756 241.894 C 616.544 247.738, 614.778 249, 608.809 249 L 604 249 604 240 C 604 232.089, 604.212 231.002, 605.750 231.015 C 608.328 231.038, 609.749 232.209, 610.913 235.270 C 612.855 240.379, 614 238.239, 614 229.500 C 614 222.611, 613.716 221, 612.500 221 C 611.675 221, 611 221.695, 611 222.545 M 36.375 230 C 37.253 233.247, 40.273 240.060, 40.662 239.671 C 40.889 239.444, 39.926 236.838, 38.522 233.879 C 37.118 230.921, 36.152 229.175, 36.375 230 M 456 238.809 C 456 243.562, 456.489 247.225, 457.250 248.169 C 458.662 249.922, 462.458 251.549, 461.493 249.989 C 461.157 249.445, 460.282 249, 459.548 249 C 457.591 249, 457 246.662, 457 238.918 L 457 232 459.941 232 C 463.568 232, 463.627 232.097, 465.528 241.139 C 466.379 245.188, 467.786 249.175, 468.655 250 C 470.081 251.355, 470.122 251.283, 469.084 249.254 C 468.451 248.018, 467.464 244.418, 466.890 241.254 C 465.446 233.292, 463.789 231, 459.477 231 L 456 231 456 238.809 M 472.634 233.869 C 473.807 234.964, 475.327 238.255, 476.012 241.180 C 476.697 244.106, 477.683 247.175, 478.204 248 C 478.995 249.252, 479.066 249.223, 478.634 247.821 C 478.350 246.898, 477.806 244.423, 477.425 242.321 C 476.505 237.244, 474.481 233.398, 472.287 232.559 C 470.842 232.007, 470.909 232.258, 472.634 233.869 M 580.599 240.106 C 580.187 242.684, 578.868 245.285, 577.055 247.099 C 573.936 250.218, 574.583 251.829, 578.182 249.903 C 579.834 249.018, 580.502 249.007, 580.786 249.857 C 580.995 250.485, 581.804 251, 582.583 251 C 583.699 251, 583.962 249.354, 583.820 243.250 L 583.640 235.500 583 243 C 582.648 247.125, 582.279 249.889, 582.180 249.142 C 582.052 248.175, 581.207 247.982, 579.250 248.473 L 576.500 249.163 578.832 246.680 C 580.145 245.281, 581.404 242.407, 581.714 240.098 C 582.430 234.754, 581.454 234.760, 580.599 240.106 M 435.667 237.667 C 435.300 238.033, 435 239.096, 435 240.027 C 435 240.959, 433.879 243.372, 432.510 245.390 C 430.298 248.650, 430.242 248.941, 432.010 247.995 C 433.104 247.409, 434.007 246.833, 434.015 246.715 C 434.023 246.597, 434.679 244.700, 435.471 242.500 L 436.912 238.500 437.056 242.500 C 437.343 250.504, 438.795 251.882, 438.900 244.250 C 438.975 238.825, 438.664 237, 437.667 237 C 436.933 237, 436.033 237.300, 435.667 237.667 M 567.083 250.356 C 568.191 251.304, 574.043 251.878, 573.491 250.985 C 573.156 250.443, 571.484 250, 569.774 250 C 568.065 250, 566.854 250.160, 567.083 250.356" stroke="none" fill="#1dbca3" fill-rule="evenodd"/><path d="M 399.958 116.747 C 382.095 128.816, 358.571 138.812, 339 142.649 C 326.506 145.099, 307.890 144.863, 296.500 142.111 C 285.924 139.555, 271.535 132.837, 263.910 126.895 C 260.353 124.123, 259.356 123.620, 261 125.426 C 267.322 132.372, 285.228 143.552, 297 147.904 C 310.970 153.068, 319.610 154.449, 338 154.459 C 357.456 154.469, 364.580 153.352, 383.191 147.373 C 400.036 141.961, 421.233 131.958, 433.725 123.526 L 436.951 121.349 423.183 115.853 L 409.416 110.357 399.958 116.747 M 217.653 113.860 L 204.806 116.510 210.653 122.034 C 252.807 161.854, 302.017 178.419, 345.465 167.415 C 351.577 165.867, 368.280 159.920, 367.775 159.472 C 367.624 159.338, 363.225 160.363, 358 161.749 C 343.926 165.483, 326.536 165.389, 312 161.499 C 287.228 154.871, 266.740 142.600, 244.912 121.321 C 238.485 115.056, 233.573 111.041, 232.412 111.105 C 231.361 111.163, 224.719 112.403, 217.653 113.860 M 93.500 208.503 C 88.229 210.367, 82.439 216.662, 80.957 222.137 C 79.069 229.118, 80.260 238.490, 83.644 243.280 C 92.546 255.879, 112.332 254.274, 119.045 240.408 C 121.757 234.804, 122.049 224.448, 119.651 218.895 C 115.544 209.384, 103.989 204.792, 93.500 208.503 M 244.655 208.399 C 235.979 211.627, 231.546 218.931, 231.546 230 C 231.546 242.035, 236.062 248.476, 246.308 251.056 C 260.753 254.693, 272.396 244.872, 272.456 229 C 272.489 220.215, 269.444 213.930, 263.451 210.418 C 258.068 207.264, 250.028 206.400, 244.655 208.399 M 378.378 208.437 C 374.271 210.224, 371.999 213.623, 372.004 217.973 C 372.009 223.024, 374.998 227.245, 381.878 231.917 C 389.159 236.862, 391 239.320, 391 244.100 C 391 248.370, 389.358 250.047, 384.198 251.051 L 380.500 251.770 384 251.879 C 393.126 252.165, 400.006 247.129, 399.993 240.173 C 399.984 235.029, 397.460 231.738, 388.649 225.384 C 381.020 219.883, 379.487 217.623, 380.167 212.885 C 380.602 209.857, 384.844 207.493, 388.292 208.358 C 391.966 209.281, 394.821 212.640, 396.466 217.977 L 397.861 222.500 397.930 215.781 C 397.984 210.652, 397.692 209.181, 396.697 209.563 C 395.981 209.838, 393.745 209.374, 391.729 208.531 C 387.257 206.663, 382.532 206.629, 378.378 208.437 M 562.764 207.996 C 553.374 210.823, 547.985 218.848, 548.022 229.946 C 548.068 243.651, 556.282 252.244, 569 251.892 L 572.500 251.795 569.014 250.976 C 564.597 249.937, 560.431 245.310, 558.941 239.789 C 558.301 237.417, 557.964 231.701, 558.188 226.999 C 558.780 214.545, 561.962 209.551, 570.500 207.672 C 571.600 207.430, 570.925 207.218, 569 207.202 C 567.075 207.185, 564.269 207.543, 562.764 207.996 M 25.750 209.031 C 27.973 209.925, 28 210.167, 28 228.911 C 28 247.386, 27.941 247.928, 25.777 249.443 C 23.663 250.924, 23.846 250.996, 29.527 250.921 C 32.812 250.878, 34.825 250.594, 34 250.291 C 29.226 248.535, 29 247.602, 29 229.645 C 29 220.045, 29.376 213.015, 29.861 213.550 C 30.335 214.072, 34.025 222.488, 38.061 232.250 C 42.098 242.012, 45.700 250, 46.066 250 C 46.620 250, 50.023 241.588, 51.730 236 C 52.131 234.689, 52.057 234.686, 51.149 235.971 C 49.834 237.831, 49.858 237.865, 46.576 229.500 C 45.065 225.650, 42.475 219.238, 40.821 215.250 L 37.813 208 30.657 208.063 C 25.351 208.110, 24.082 208.361, 25.750 209.031 M 59.606 213.250 C 56.889 220.905, 56.707 222.007, 58.903 217.500 L 60.852 213.500 60.926 231.167 L 61 248.833 58.250 249.838 C 56.076 250.632, 57.593 250.856, 65.500 250.906 C 74.188 250.962, 75.172 250.805, 73 249.706 L 70.500 248.441 70.500 229.500 L 70.500 210.559 73 209.294 C 75.249 208.156, 74.797 208.028, 68.485 208.015 L 61.469 208 59.606 213.250 M 95.751 209.981 C 85.919 217.715, 87.733 246.720, 98.281 250.430 C 105.745 253.055, 111.161 245.683, 111.811 232.018 C 112.316 221.404, 110.841 215.641, 106.510 211.310 C 102.696 207.496, 99.424 207.092, 95.751 209.981 M 128.750 209.031 C 130.973 209.925, 131 210.167, 131 228.911 C 131 247.386, 130.941 247.928, 128.777 249.443 C 126.663 250.925, 126.844 250.997, 132.527 250.937 C 136.999 250.889, 137.951 250.652, 136.315 249.993 C 132.638 248.511, 132 245.765, 132 231.411 C 132 215.014, 130.691 214.623, 147 235.895 C 153.325 244.146, 159.063 250.919, 159.750 250.948 C 160.706 250.988, 161.003 246.704, 161.014 232.750 C 161.021 222.713, 161.285 213.539, 161.600 212.364 C 161.916 211.189, 163.147 209.757, 164.337 209.182 C 166.104 208.327, 165.401 208.130, 160.500 208.108 C 154.625 208.081, 154.557 208.111, 157.250 209.572 L 160 211.064 160 223.532 C 160 230.389, 159.777 236, 159.506 236 C 159.234 236, 154.024 229.700, 147.930 222 L 136.848 208 131.674 208.063 C 127.559 208.114, 126.961 208.312, 128.750 209.031 M 185 208.639 C 188.607 210.060, 189 212.111, 189 229.500 C 189 246.896, 188.591 249.023, 185 250.306 C 181.248 251.647, 205.993 250.894, 210.596 249.527 C 219.601 246.853, 225 238.855, 225 228.189 C 225 219.893, 221.920 214.350, 215.462 211.025 C 211.020 208.737, 209.289 208.479, 197.030 208.274 C 189.588 208.150, 184.175 208.314, 185 208.639 M 246.713 210.011 C 238.368 216.575, 238.368 242.425, 246.713 248.989 C 252.406 253.467, 259.669 249.657, 262.009 240.967 C 263.717 234.624, 262.896 219.391, 260.594 214.706 C 257.500 208.408, 251.382 206.339, 246.713 210.011 M 279.750 209.005 C 280.988 209.517, 282 210.368, 282 210.896 C 282 211.425, 282.734 212.591, 283.630 213.488 C 284.527 214.384, 288.394 222.629, 292.223 231.809 C 296.052 240.989, 299.545 248.879, 299.986 249.343 C 300.426 249.807, 301.760 247.585, 302.950 244.405 C 304.974 238.994, 305.011 238.428, 303.524 235.562 C 302.651 233.878, 299.785 227.100, 297.155 220.500 L 292.374 208.500 284.937 208.287 C 279.566 208.134, 278.125 208.333, 279.750 209.005 M 314.924 211.184 C 313.916 213.618, 313.887 214.462, 314.802 214.767 C 315.665 215.055, 316 219.568, 316 230.892 C 316 246.844, 315.548 249.038, 312 250.306 C 311.175 250.601, 314.775 250.842, 320 250.842 C 325.225 250.842, 328.825 250.601, 328 250.306 C 324.409 249.023, 324 246.896, 324 229.500 C 324 212.104, 324.409 209.977, 328 208.694 C 328.825 208.399, 326.517 208.122, 322.871 208.079 C 316.336 208.001, 316.224 208.045, 314.924 211.184 M 335.750 209.220 C 337.967 210.290, 338 210.583, 338 229.500 C 338 248.417, 337.967 248.710, 335.750 249.780 C 333.945 250.650, 335.273 250.878, 342.473 250.932 C 350.869 250.996, 351.302 250.900, 349.223 249.443 C 347.063 247.931, 347 247.367, 347 229.500 C 347 211.633, 347.063 211.069, 349.223 209.557 C 351.302 208.100, 350.869 208.004, 342.473 208.068 C 335.273 208.122, 333.945 208.350, 335.750 209.220 M 407 209.294 L 409.500 210.559 409.500 229.500 L 409.500 248.441 407 249.706 C 404.887 250.775, 407.112 250.973, 421.375 250.985 L 438.250 251 437.625 247.875 C 437.281 246.156, 436.980 243.344, 436.956 241.625 C 436.912 238.509, 436.908 238.512, 435.471 242.500 C 434.679 244.700, 434.023 246.601, 434.015 246.724 C 433.930 247.986, 427.027 250.047, 423.694 249.805 L 419.500 249.500 419.214 239.750 C 418.933 230.168, 418.967 230.001, 421.214 230.032 C 424.116 230.072, 426.677 232.007, 427.910 235.091 C 428.655 236.955, 428.888 235.712, 428.937 229.602 L 429 221.704 426.718 225.102 C 425.218 227.335, 423.491 228.610, 421.681 228.820 L 418.926 229.140 419.213 219.320 L 419.500 209.500 424.080 209.202 C 429.534 208.847, 432.804 211.005, 434.570 216.123 L 435.735 219.500 436.117 213.749 L 436.500 207.997 420.500 208.013 C 406.942 208.027, 404.882 208.223, 407 209.294 M 444.307 208.700 C 447.302 209.477, 448 213.407, 448 229.500 C 448 245.593, 447.302 249.523, 444.307 250.300 C 443.313 250.557, 446.775 250.785, 452 250.805 C 457.225 250.825, 460.825 250.601, 460 250.306 C 456.904 249.200, 456 246.601, 456 238.809 L 456 231 459.477 231 C 463.789 231, 465.446 233.292, 466.890 241.254 C 468.628 250.837, 470.702 252.841, 477.552 251.556 C 481.359 250.842, 483.193 249, 480.098 249 C 478.559 249, 477.816 247.986, 476.982 244.750 C 474.264 234.199, 473.961 233.774, 467.500 231.467 C 465.706 230.827, 465.798 230.668, 468.396 229.924 C 469.988 229.468, 472.576 227.864, 474.146 226.360 C 476.482 224.123, 477 222.783, 477 218.987 C 477 213.445, 474.312 210.325, 468.347 208.940 C 464.506 208.049, 440.884 207.813, 444.307 208.700 M 483.377 209.864 C 484.304 210.889, 488.562 220.451, 492.837 231.114 C 498.999 246.481, 501.023 250.561, 502.601 250.793 C 504.198 251.028, 504.907 250.098, 506.188 246.090 C 507.067 243.343, 507.411 240.961, 506.953 240.798 C 506.118 240.499, 495 212.683, 495 210.891 C 495 210.366, 496.012 209.529, 497.250 209.031 C 498.855 208.386, 496.947 208.109, 490.595 208.063 C 481.969 208.002, 481.743 208.058, 483.377 209.864 M 513 209.288 C 514.900 210.244, 515.576 211.468, 515.817 214.390 L 516.135 218.235 518.172 214.117 C 519.292 211.853, 520.612 210, 521.105 210 C 521.597 210, 522 209.550, 522 209 C 522 208.448, 519.426 208.007, 516.250 208.015 C 510.968 208.028, 510.703 208.132, 513 209.288 M 526.750 209.220 C 528.967 210.290, 529 210.583, 529 229.500 C 529 248.417, 528.967 248.710, 526.750 249.780 C 524.957 250.644, 526.428 250.875, 534 250.918 C 542.290 250.964, 543.182 250.809, 541 249.706 L 538.500 248.441 538.500 229.500 L 538.500 210.559 541 209.294 C 543.182 208.191, 542.290 208.036, 534 208.082 C 526.428 208.125, 524.957 208.356, 526.750 209.220 M 591 209.294 L 593.500 210.559 593.500 229.500 L 593.500 248.441 591 249.706 C 588.886 250.775, 591.088 250.973, 605.250 250.985 L 622 251 621.948 243.750 L 621.896 236.500 619.867 241.780 C 617.330 248.381, 614.698 250.214, 608.337 249.808 L 603.500 249.500 603.214 239.750 C 602.931 230.107, 602.953 230, 605.273 230 C 607.938 230, 610.249 231.582, 611.845 234.500 C 612.717 236.094, 612.937 234.978, 612.930 229 C 612.920 221.533, 612.913 221.513, 611.315 224.500 C 609.382 228.112, 608.222 228.965, 605.214 228.985 C 602.968 229, 602.933 228.827, 603.214 219.250 L 603.500 209.500 608.056 209.203 C 613.800 208.829, 617.517 211.491, 619.014 217.054 C 619.599 219.224, 620.285 221, 620.539 221 C 620.792 221, 621 218.075, 621 214.500 L 621 208 604.750 208.015 C 590.991 208.027, 588.883 208.223, 591 209.294 M 197.975 211.565 C 197.439 212.976, 197 221.047, 197 229.500 C 197 247.439, 197.626 250, 202.007 250 C 207.254 250, 211.494 247.572, 213.578 243.373 C 216.262 237.965, 216.315 220.094, 213.661 215.171 C 211.703 211.537, 206.911 209, 202.007 209 C 199.646 209, 198.729 209.584, 197.975 211.565 M 457.035 210.934 C 456.466 211.998, 456 216.723, 456 221.434 L 456 230 459.545 230 C 465.095 230, 468 226.454, 468 219.680 C 468 215.721, 467.444 213.563, 465.927 211.635 C 463.384 208.402, 458.592 208.024, 457.035 210.934 M 577.897 211.228 C 579.216 212.721, 580.873 216.093, 581.580 218.721 L 582.865 223.500 582.854 216.500 C 582.847 212.650, 582.615 210.063, 582.338 210.750 C 581.640 212.479, 580.031 212.313, 577.579 210.257 C 576.028 208.957, 576.109 209.204, 577.897 211.228 M 581.712 240.112 C 581.361 242.725, 580.129 245.306, 578.330 247.194 L 575.500 250.165 578.322 248.890 C 580.682 247.822, 581.292 247.850, 582.056 249.057 C 582.656 250.005, 582.975 248.015, 582.985 243.250 C 582.993 239.262, 582.834 236, 582.632 236 C 582.429 236, 582.015 237.850, 581.712 240.112 M 372.067 243.036 C 372.010 248.577, 372.266 249.589, 373.750 249.689 C 374.712 249.753, 376.625 250.154, 378 250.579 C 380.473 251.344, 380.470 251.326, 377.650 248.892 C 375.879 247.363, 374.296 244.552, 373.468 241.466 L 372.135 236.500 372.067 243.036 M 280.865 248.107 L 278.230 251 283.865 250.965 C 289.153 250.931, 289.349 250.846, 287.051 249.573 C 285.704 248.827, 284.354 247.541, 284.051 246.716 C 283.619 245.540, 282.929 245.842, 280.865 248.107" stroke="none" fill="#09406f" fill-rule="evenodd"/></svg>