<svg fill="none" height="130" viewBox="0 0 350 130" width="350" xmlns="http://www.w3.org/2000/svg" xmlns:xlink="http://www.w3.org/1999/xlink"><clipPath id="a"><path d="m0 0h350v130h-350z"/></clipPath><g clip-path="url(#a)"><path d="m49.4 109c7.32-5.74 17.16-7.1 26.46-7s18.63 1.58 27.87.56c13.072-1.502 25.124-7.7937 33.83-17.66 5.91-6.76 9.81-17.61 3.79-24.28-5.41-6-14.87-4.56-22.94-4.77-20.41-.54-39.41-16.5-43.41-36.52-1.2408-6.4082-1.0324-13.0128.61-19.33h-75.61v130h41.88c-2.24-7.31 1.28-16.16 7.52-21z" fill="#ece9f0"/><path d="m231.39 43.08c32.79-26.3 77.36-37.18 118.61-29.31v-13.77h-274.3901c-1.6424 6.3172-1.8508 12.9218-.61 19.33 4 20 23 36 43.4001 36.52 8.06.21 17.53-1.22 22.94 4.77 6 6.66 2.12 17.52-3.79 24.28-8.706 9.8663-20.758 16.158-33.83 17.66-9.2501 1-18.5701-.41-27.8701-.56s-19.14 1.21-26.46 7c-6.23 4.89-9.76 13.73-7.51 21h82.5801c18.414-7.292 35.446-17.679 50.36-30.71 20-17.55 35.82-39.57 56.57-56.21z" fill="#bba8c6"/><path d="m350 13.77c-41.25-7.87-85.82 3-118.61 29.31-20.75 16.64-36.57 38.66-56.56 56.2-14.916 13.036-31.952 23.426-50.37 30.72h225.54z" fill="#74599c"/><path d="m348.74 114.56c2.717-4.29 5.842-8.309 9.33-12-3.47.75-6.42 3.89-8.06 6h.23c1.33.03.22 2.81-1.5 6z" fill="#3c6448"/><path d="m345.65 111.79c.43-1.79 1-3.14 1.59-3.38.4-.15.7.32.93 1.17l.2-.15c-.42-1.56-1.49-4.13-4-4.13-.143-.013-.287-.013-.43 0 .18 2.29.27 5.13.3 7.85.507-.46.977-.913 1.41-1.36z" fill="#3c6448"/><path d="m319.71 116.84c0 1.14-.08 2.09-.11 2.75l.06-.08c.1-.82.25-2 .46-3.49z" fill="#3c6448"/><path d="m327.54 115.94c.86-2.53 1.95-4.88 3.27-6.13l.13-.11c-1.105-.585-2.322-.926-3.57-1 .16 2.3.19 4.9.17 7.24z" fill="#3c6448"/><path d="m332.49 110.61-.23-.15c0 .16 0 .33.07.52z" fill="#3c6448"/><path d="m336.57 122.07c1.39-3.13 3.21-6.94 4.38-8.15.07-2.42.17-4.86.34-7-.35.33-.69.69-1 1.07-1.81 7.09-4.59 15.15-4.59 15.15z" fill="#3c6448"/><path d="m308.22 117h-.13l-.08.34z" fill="#3c6448"/><g fill="#49a56e"><path d="m320.13 116c-.21 1.44-.37 2.68-.46 3.49 1.45-1.71 2.84-3.07 3.62-3.14 2.14-.2-4 10.21-4 10.21s4.43-4.21 6-4c.094.008.185.035.267.08.083.044.155.106.213.18.47-2.331 1.078-4.631 1.82-6.89 0-2.34 0-4.93-.17-7.24-.28-4-.95-7.22-2.39-6.81-1.11.31-2 2.13-2.81 4.53.156-.078.32-.138.49-.18 2.1-.49.03 4.59-2.58 9.77z"/><path d="m330.35 126.58s5.77-21.72 7.92-22.32-3.62 22.32-3.62 22.32.82-2 1.91-4.51l-.88 1.11s2.78-8.06 4.59-15.15c1.48-5.81 2.31-11 .43-10.51-2.08.51-5.4 6.85-8.21 13.09l-.17.37c.38 4.26-1.97 15.6-1.97 15.6z"/><path d="m348.74 114.56c1.72-3.19 2.83-6 1.5-6h-.23c-.597.162-1.156.444-1.64.83l-.2.15c.348 1.652.539 3.332.57 5.02z"/><path d="m344.18 122.77c.247-3.695.738-7.37 1.47-11-.46.447-.927.917-1.4 1.41.06 5.01-.07 9.59-.07 9.59z"/><path d="m348.75 124.77s5.26-18.93 7.71-19.72c1.49-.48.13 6.94-1.16 12.82 3.176-4.408 6.024-9.044 8.52-13.87 1.5-3.21 1.81-5.34-.34-5-1.59.28-3.46 1.62-5.41 3.54-3.488 3.691-6.613 7.71-9.33 12 .26 4.68.01 10.23.01 10.23z"/><path d="m314.36 126.58s2.71-4 5.25-7c0-.65.07-1.61.11-2.75-2.53 4.95-5.36 9.75-5.36 9.75z"/><path d="m282.77 126.58s.19-.68.52-1.81h-.14c-.23 1.11-.38 1.81-.38 1.81z"/><path d="m287.07 126.58s.3-.72.78-1.81h-.3c-.29 1.13-.48 1.81-.48 1.81z"/><path d="m271.7 126.58s.94-.87 2.1-1.81h-1c-.66 1.07-1.1 1.81-1.1 1.81z"/><path d="m239.49 126.58s.31-.72.81-1.81h-.3c-.31 1.13-.51 1.81-.51 1.81z"/><path d="m266.78 126.58s.51-.74 1.3-1.81h-.22c-.67 1.12-1.08 1.81-1.08 1.81z"/><path d="m306.12 124.77s6.83-11.22 8.67-11.21c.79 0 .09 2.2-1 4.69 1.682-3.423 3.691-6.675 6-9.71-.13-5.57-.72-10.84-2.51-10.22s-2.69 2.5-3.09 10.71c-1.58 1.24-3.88 4.57-6 7.92l-.21.34c-.91 4.02-1.86 7.48-1.86 7.48z"/></g><path d="m468.68 100.71c-.61-.27-1.06 1.29-1.37 3.69-.12.93-.23 2-.31 3.11-.22 2.84-.34 6.1-.41 8.89v1.64 3.64 1.08s0-.25-.1-.69c-.465-3.176-1.103-6.324-1.91-9.43-.296-1.406-.863-2.741-1.67-3.93-.114-.135-.258-.241-.42-.31-.5-.18-.79.57-.94 1.84-.186 2.791-.156 5.593.09 8.38.22 3.31.54 6.13.54 6.13s-.6-1.72-1.52-4.15c-.3-.81-.64-1.69-1-2.61-1.363-3.669-2.959-7.246-4.78-10.71-.16-.28-.32-.54-.47-.77-.53-.82-1-1.35-1.38-1.47-.68-.21-.68 1.13-.32 3.21.12.72.29 1.52.49 2.37 1.34 5.84 4.07 14.14 4.07 14.14-1.666-3.367-3.567-6.611-5.69-9.71-.71-.92-1.34-1.52-1.76-1.51-.79 0-1.8 2.21-.61 4.71-1.17-2.198-2.173-4.481-3-6.83-.93-2.44-1.76-4.5-2.81-5.39-.226-.201-.497-.345-.79-.42-1.16-.26-1.24 1.1-.73 3.24v.17c.376 1.434.83 2.846 1.36 4.23.46 1.24 1 2.53 1.51 3.81s1.18 2.74 1.73 4c1.42 3.15 2.6 5.53 2.6 5.53s-1.4-2.64-3.07-5.3c-.64-1-1.32-2.05-2-2.94-1.06-1.44-2.07-2.5-2.73-2.56-1.29-.12-.45 3.39.43 6.23.16.53.33 1 .48 1.49.4 1.19.72 2 .72 2s-.74-.68-1.68-1.38l-.65-.46-.36-.24c-.571-.467-1.266-.755-2-.83h-.06c-.17.025-.324.115-.43.25-.218-1.53-.259-3.081-.12-4.62 0-.89.1-1.78.12-2.63 0-2.12-.17-4-1.35-5.17s-3 5.15-3 7.63c-1.75 3.77-3.49 8.55-3.49 8.55s2.25-10.45 3.05-17.05c.39-3.17.44-5.46-.25-5.27s-1.39 1.93-2.24 4.4c-2.25 6.51-4.87 17.91-4.87 17.91s1.87-11 1.43-15.38c-.16-1.6-.62-2.34-1.59-1.39-.936 1.038-1.663 2.246-2.14 3.56-.385.982-.719 1.983-1 3-.602 2.128-1.086 4.288-1.45 6.47-.06-.074-.134-.135-.219-.18-.084-.044-.176-.072-.271-.08-1.54-.2-5.81 4-5.81 4s2.08-3.75 3.28-6.7c.428-.917.708-1.896.83-2.9 0-.41-.14-.64-.47-.61-2.13.2-8.55 10.21-8.55 10.21s11.83-21.33 7.56-20.34c-1 .24-2.21 1.45-3.43 3.15-.866 1.236-1.663 2.518-2.39 3.84-.92 1.64-1.8 3.39-2.59 5 1-2.49 1.59-4.68.8-4.69-.29 0-.7.28-1.17.75-2.54 2.51-7.09 10.46-7.09 10.46s4.88-20.51 2.44-19.72c-.32.153-.587.396-.77.7-.974 1.597-1.759 3.302-2.34 5.08l-.11.3c-2.1 5.8-4.14 13.64-4.14 13.64s.3-15.48-1.5-16.34c-.047-.021-.098-.032-.15-.032s-.103.011-.15.032c-.44.16-.81.86-1.13 1.87l-.11.38c-1.16 4.06-1.55 12.1-1.55 12.1s0-4.73-.11-9.82c0-1.54-.11-3.11-.2-4.59-.059-2.29-.347-4.568-.86-6.8-.21-.66-.46-1-.76-.85-.93.43-1.3 5.35-1.42 10.79v2.42c-.379.418-.714.874-1 1.36-1.934 3.657-3.638 7.431-5.1 11.3 0 0 5.35-22.91 3.21-22.32-.22.06-.47.34-.74.79-.817 1.571-1.487 3.215-2 4.91-2.26 6.62-4.74 16.62-4.74 16.62s.61-3.25 1.11-6.92c.375-2.473.589-4.969.64-7.47 0-2.25-.44-3.52-1.6-2.39-2.52 2.44-4.1 9-4.85 13-.058-.074-.131-.135-.213-.179-.083-.045-.174-.073-.267-.081-1.53-.2-5.89 4-5.89 4s6-10.41 3.82-10.21c-.162.024-.318.078-.46.16-1 .53-2.6 2.32-4.11 4.25-2.16 2.76-4.17 5.8-4.17 5.8s1.28-2.23 2.86-5.21c1.32-2.48 2.85-5.49 4-8.16 1.79-4.06 2.79-7.37 1-7-1 .24-2.29 1.5-3.57 3.27-.6.83-1.21 1.77-1.81 2.77-1.14 1.9-2.26 4-3.24 6 1-2.49 1.68-4.68.89-4.69h-.16c-.506.226-.952.568-1.3 1-2.63 2.76-7 10.19-7 10.19s.51-2 1.13-4.68c.16-.7.33-1.45.5-2.23 1.29-5.88 2.66-13.3 1.16-12.82-2.45.79-7.71 19.72-7.71 19.72s.21-5.55 0-10.18c-.033-1.681-.223-3.355-.57-5-.23-.85-.53-1.32-.93-1.17-.64.23-1.16 1.59-1.59 3.38-.732 3.63-1.223 7.305-1.47 11 0 0 .12-4.58.07-9.56 0-2.72-.11-5.56-.3-7.85-.24-2.93-.64-4.95-1.31-4.64s-1.08 2.85-1.35 6.24c-.17 2.11-.27 4.54-.34 7-1.17 1.21-3 5-4.38 8.15-1.09 2.47-1.91 4.51-1.91 4.51s5.76-22.91 3.62-22.32-7.92 22.32-7.92 22.32 2.35-11.33 2-15.6c0-.19 0-.36-.07-.52-.17-1-.58-1.4-1.32-.77l-.13.11c-1.32 1.25-2.41 3.6-3.27 6.13-.742 2.259-1.35 4.559-1.82 6.89-.058-.074-.13-.136-.213-.18-.082-.045-.173-.072-.267-.08-1.53-.2-6 4-6 4s6.15-10.41 4-10.21c-.78.07-2.16 1.44-3.62 3.14l-.06.08c-2.54 3-5.25 7-5.25 7s2.84-4.8 5.36-9.74l.42-.82c2.61-5.2 4.68-10.27 2.53-9.78-.17.042-.334.102-.49.18-.931.544-1.743 1.268-2.39 2.13-2.309 3.035-4.318 6.287-6 9.71 1.06-2.49 1.76-4.68 1-4.69-1.83 0-8.67 11.21-8.67 11.21s.95-3.46 1.89-7.48l.08-.34c1.29-5.53 2.53-12 1.31-11.92h-.12c-2.47.79-8.08 19.72-8.08 19.72h-181.28v5.24h350l-.33-3.42s1.24-24.88-.99-25.87z" fill="#77b590"/><path d="m302.63 116.62h-38.48c-2.115 0-3.83 1.715-3.83 3.83v.52c0 2.115 1.715 3.83 3.83 3.83h38.48c2.115 0 3.83-1.715 3.83-3.83v-.52c0-2.115-1.715-3.83-3.83-3.83z" fill="#434343"/><path d="m218.137 66.3073-2.282 2.899 66.732 52.5507 2.283-2.899z" fill="#fff"/><path d="m209.247 34.8144 12.571 9.8989c1.666 1.3127 2.744 3.2338 2.994 5.3407.251 2.1069-.346 4.227-1.659 5.8939l-9.224 11.7139-24.905-19.6123 9.429-11.9731c1.258-1.5982 3.1-2.6309 5.12-2.8711 2.02-.2401 4.053.332 5.651 1.5905z" fill="#ff6b6b"/><path d="m223.45 55.61-9.52 12.08-24.93-19.61c-.41.517-.714 1.1101-.894 1.7451-.18.6351-.233 1.2995-.155 1.9549.079.6554.286 1.2888.61 1.8638s.759 1.0801 1.279 1.4862l21 16.51 3 2.33c.517.4103 1.11.7143 1.745.8942.635.18 1.3.2324 1.955.1543s1.289-.2851 1.864-.6093c.575-.3241 1.08-.7589 1.486-1.2792l7.09-9c.32-.4043.556-.8676.696-1.3635.141-.4959.182-1.0145.122-1.5263-.061-.5117-.222-1.0066-.473-1.4562-.252-.4496-.59-.8451-.995-1.164z" fill="#434343"/><path d="m206.406 57.0533-11.086-8.7296-.922 1.1706 11.086 8.7296z" fill="#434343"/><path d="m208.992 55.3306-11.147-8.7482-.924 1.1771 11.147 8.7482z" fill="#434343"/><path d="m209.904 52.6143-11.085-8.7297-.922 1.1706 11.086 8.7297z" fill="#434343"/><path d="m214.235 28.9623-.149-.1175c-.56-.4408-1.371-.3444-1.812.2154l-7.046 8.9484c-.441.5597-.345 1.3708.215 1.8116l.149.1175c.56.4408 1.371.3444 1.812-.2153l7.047-8.9485c.44-.5597.344-1.3708-.216-1.8116z" fill="#434343"/><path d="m246.1 66.72c-3.5 4.45-3.21 3.79-6.72 8.23l-3.7-2.95c3.5-4.45 3.21-3.79 6.72-8.23.232-.2944.338-.6689.294-1.0412-.044-.3722-.235-.7117-.529-.9438s-.669-.3377-1.041-.2936-.712.2342-.944.5286c-3.79 4.82-3.8 4.53-7.59 9.34-.232.2976-.337.6748-.292 1.0494s.236.7163.532.9506l5.91 4.64c.298.2319.675.3369 1.049.2919.375-.0449.717-.2361.951-.5319 3.79-4.82 3.8-4.53 7.59-9.34.18-.2976.244-.6515.18-.9935-.065-.3419-.254-.6479-.531-.8589s-.622-.3122-.969-.284c-.347.0281-.671.1835-.91.4364z" fill="#fff"/><path d="m237.938 75.1801-1.909-1.5034-3.947 5.0124 1.909 1.5034z" fill="#fff"/><path d="m282.77 123.03c3.131 0 5.67-1.034 5.67-2.31s-2.539-2.31-5.67-2.31-5.67 1.034-5.67 2.31 2.539 2.31 5.67 2.31z" fill="#fff"/><path d="m265.7 118.4h11.5c.862 0 1.689.342 2.298.952.61.609.952 1.436.952 2.298h-18c0-.862.342-1.689.952-2.298.609-.61 1.436-.952 2.298-.952z" fill="#fff"/><path d="m300.32 123.31h-11.5c-.862 0-1.689-.342-2.298-.952-.61-.609-.952-1.436-.952-2.298h18c0 .862-.342 1.689-.952 2.298-.609.61-1.436.952-2.298.952z" fill="#fff"/></g></svg>