<svg fill="none" height="130" viewBox="0 0 350 130" width="350" xmlns="http://www.w3.org/2000/svg" xmlns:xlink="http://www.w3.org/1999/xlink"><clipPath id="a"><path d="m0 0h350v130h-350z"/></clipPath><mask height="22" maskUnits="userSpaceOnUse" width="15" x="230" y="26"><path d="m243.918 26.4441c1.763 8.5987-8.405 22.7147-11.937 20.6757-4.036-2.3302 1.684-20.3929 11.937-20.6757z" fill="#66ad66"/></mask><g clip-path="url(#a)"><path d="m0 0h350v130h-350z" fill="#dccac1"/><path d="m105.5 58c-57-10.5-76.5-4-119 73l21 71.5h303l107-62.5v-140.5l-78-20.5c-39.167 1.3333-123.6 10-148 34-30.5 30-29 55.5-86 45z" fill="#efe7e2"/><path d="m135.5 100.5c-50-5.5001-69-7.0001-87.5 97v56l192.5 13.5 164.5-61 44.5-105.5c-10.667-20.3335-39.7-65.4001-70.5-83.0001-38.5-22.00003-141.5-9.50004-138.5 28 3 37.5-55 60.5001-105 55.0001z" fill="#f8f4f2"/><g fill="#915f3a"><path d="m200 95c0-2.7614 2.239-5 5-5s5 2.2386 5 5v20c0 2.761-2.239 5-5 5s-5-2.239-5-5z"/><path d="m190 95c0-2.7614 2.239-5 5-5h120c2.761 0 5 2.2386 5 5s-2.239 5-5 5h-120c-2.761 0-5-2.2386-5-5z"/><path d="m300 95c0-2.7614 2.239-5 5-5s5 2.2386 5 5v20c0 2.761-2.239 5-5 5s-5-2.239-5-5z"/></g><path d="m266 41c0-.5523.448-1 1-1h8c.552 0 1 .4477 1 1v49h-10z" fill="#83beff"/><path clip-rule="evenodd" d="m231.433 53.3803c-.808 5.9014-.933 12.6222-.933 18.1197h-1c0-5.5025.125-12.2816.942-18.2553.409-2.9867.993-5.7895 1.829-8.1389.833-2.3408 1.935-4.284 3.412-5.4928l.634.774c-1.273 1.0412-2.296 2.7856-3.104 5.0541-.804 2.26-1.376 4.9884-1.78 7.9392z" fill="#77b590" fill-rule="evenodd"/><path d="m243.918 26.4441c1.763 8.5987-8.405 22.7147-11.937 20.6757-4.036-2.3302 1.684-20.3929 11.937-20.6757z" fill="#3c6448"/><path d="m231.981 47.1199c5.117-12.6265 7.868-15.8363 10.26-18.6277.57-.6658 1.12-1.3077 1.677-2.048-10.253.2828-15.973 18.3454-11.937 20.6757z" fill="#77b590"/><path d="m215 90-5-20h40l-5 20z" fill="#634132"/><path d="m278 51c0-.5523.448-1 1-1h8c.552 0 1 .4477 1 1v39h-10z" fill="#533a71"/><path d="m290 51c0-.5523.448-1 1-1h8c.552 0 1 .4477 1 1v39h-10z" fill="#533a71"/><path d="m266 75h10v10h-10z" fill="#0078fa"/><path d="m278 79h10v6h-10z" fill="#40295c"/><path d="m290 79h10v6h-10z" fill="#40295c"/></g></svg>